%TF.GenerationSoftware,KiCad,Pcbnew,7.0.2*%
%TF.CreationDate,2023-07-10T01:25:34+02:00*%
%TF.ProjectId,FPGA_V2,46504741-5f56-4322-9e6b-696361645f70,rev?*%
%TF.SameCoordinates,Original*%
%TF.FileFunction,Legend,Top*%
%TF.FilePolarity,Positive*%
%FSLAX46Y46*%
G04 Gerber Fmt 4.6, Leading zero omitted, Abs format (unit mm)*
G04 Created by KiCad (PCBNEW 7.0.2) date 2023-07-10 01:25:34*
%MOMM*%
%LPD*%
G01*
G04 APERTURE LIST*
%ADD10C,0.150000*%
%ADD11C,0.120000*%
%ADD12C,0.200000*%
G04 APERTURE END LIST*
D10*
%TO.C,C38*%
X90317142Y-75407380D02*
X90269523Y-75455000D01*
X90269523Y-75455000D02*
X90126666Y-75502619D01*
X90126666Y-75502619D02*
X90031428Y-75502619D01*
X90031428Y-75502619D02*
X89888571Y-75455000D01*
X89888571Y-75455000D02*
X89793333Y-75359761D01*
X89793333Y-75359761D02*
X89745714Y-75264523D01*
X89745714Y-75264523D02*
X89698095Y-75074047D01*
X89698095Y-75074047D02*
X89698095Y-74931190D01*
X89698095Y-74931190D02*
X89745714Y-74740714D01*
X89745714Y-74740714D02*
X89793333Y-74645476D01*
X89793333Y-74645476D02*
X89888571Y-74550238D01*
X89888571Y-74550238D02*
X90031428Y-74502619D01*
X90031428Y-74502619D02*
X90126666Y-74502619D01*
X90126666Y-74502619D02*
X90269523Y-74550238D01*
X90269523Y-74550238D02*
X90317142Y-74597857D01*
X90650476Y-74502619D02*
X91269523Y-74502619D01*
X91269523Y-74502619D02*
X90936190Y-74883571D01*
X90936190Y-74883571D02*
X91079047Y-74883571D01*
X91079047Y-74883571D02*
X91174285Y-74931190D01*
X91174285Y-74931190D02*
X91221904Y-74978809D01*
X91221904Y-74978809D02*
X91269523Y-75074047D01*
X91269523Y-75074047D02*
X91269523Y-75312142D01*
X91269523Y-75312142D02*
X91221904Y-75407380D01*
X91221904Y-75407380D02*
X91174285Y-75455000D01*
X91174285Y-75455000D02*
X91079047Y-75502619D01*
X91079047Y-75502619D02*
X90793333Y-75502619D01*
X90793333Y-75502619D02*
X90698095Y-75455000D01*
X90698095Y-75455000D02*
X90650476Y-75407380D01*
X91840952Y-74931190D02*
X91745714Y-74883571D01*
X91745714Y-74883571D02*
X91698095Y-74835952D01*
X91698095Y-74835952D02*
X91650476Y-74740714D01*
X91650476Y-74740714D02*
X91650476Y-74693095D01*
X91650476Y-74693095D02*
X91698095Y-74597857D01*
X91698095Y-74597857D02*
X91745714Y-74550238D01*
X91745714Y-74550238D02*
X91840952Y-74502619D01*
X91840952Y-74502619D02*
X92031428Y-74502619D01*
X92031428Y-74502619D02*
X92126666Y-74550238D01*
X92126666Y-74550238D02*
X92174285Y-74597857D01*
X92174285Y-74597857D02*
X92221904Y-74693095D01*
X92221904Y-74693095D02*
X92221904Y-74740714D01*
X92221904Y-74740714D02*
X92174285Y-74835952D01*
X92174285Y-74835952D02*
X92126666Y-74883571D01*
X92126666Y-74883571D02*
X92031428Y-74931190D01*
X92031428Y-74931190D02*
X91840952Y-74931190D01*
X91840952Y-74931190D02*
X91745714Y-74978809D01*
X91745714Y-74978809D02*
X91698095Y-75026428D01*
X91698095Y-75026428D02*
X91650476Y-75121666D01*
X91650476Y-75121666D02*
X91650476Y-75312142D01*
X91650476Y-75312142D02*
X91698095Y-75407380D01*
X91698095Y-75407380D02*
X91745714Y-75455000D01*
X91745714Y-75455000D02*
X91840952Y-75502619D01*
X91840952Y-75502619D02*
X92031428Y-75502619D01*
X92031428Y-75502619D02*
X92126666Y-75455000D01*
X92126666Y-75455000D02*
X92174285Y-75407380D01*
X92174285Y-75407380D02*
X92221904Y-75312142D01*
X92221904Y-75312142D02*
X92221904Y-75121666D01*
X92221904Y-75121666D02*
X92174285Y-75026428D01*
X92174285Y-75026428D02*
X92126666Y-74978809D01*
X92126666Y-74978809D02*
X92031428Y-74931190D01*
%TO.C,U5*%
X78372619Y-115501904D02*
X79182142Y-115501904D01*
X79182142Y-115501904D02*
X79277380Y-115454285D01*
X79277380Y-115454285D02*
X79325000Y-115406666D01*
X79325000Y-115406666D02*
X79372619Y-115311428D01*
X79372619Y-115311428D02*
X79372619Y-115120952D01*
X79372619Y-115120952D02*
X79325000Y-115025714D01*
X79325000Y-115025714D02*
X79277380Y-114978095D01*
X79277380Y-114978095D02*
X79182142Y-114930476D01*
X79182142Y-114930476D02*
X78372619Y-114930476D01*
X78372619Y-113978095D02*
X78372619Y-114454285D01*
X78372619Y-114454285D02*
X78848809Y-114501904D01*
X78848809Y-114501904D02*
X78801190Y-114454285D01*
X78801190Y-114454285D02*
X78753571Y-114359047D01*
X78753571Y-114359047D02*
X78753571Y-114120952D01*
X78753571Y-114120952D02*
X78801190Y-114025714D01*
X78801190Y-114025714D02*
X78848809Y-113978095D01*
X78848809Y-113978095D02*
X78944047Y-113930476D01*
X78944047Y-113930476D02*
X79182142Y-113930476D01*
X79182142Y-113930476D02*
X79277380Y-113978095D01*
X79277380Y-113978095D02*
X79325000Y-114025714D01*
X79325000Y-114025714D02*
X79372619Y-114120952D01*
X79372619Y-114120952D02*
X79372619Y-114359047D01*
X79372619Y-114359047D02*
X79325000Y-114454285D01*
X79325000Y-114454285D02*
X79277380Y-114501904D01*
%TO.C,C33*%
X140580642Y-84684480D02*
X140533023Y-84732100D01*
X140533023Y-84732100D02*
X140390166Y-84779719D01*
X140390166Y-84779719D02*
X140294928Y-84779719D01*
X140294928Y-84779719D02*
X140152071Y-84732100D01*
X140152071Y-84732100D02*
X140056833Y-84636861D01*
X140056833Y-84636861D02*
X140009214Y-84541623D01*
X140009214Y-84541623D02*
X139961595Y-84351147D01*
X139961595Y-84351147D02*
X139961595Y-84208290D01*
X139961595Y-84208290D02*
X140009214Y-84017814D01*
X140009214Y-84017814D02*
X140056833Y-83922576D01*
X140056833Y-83922576D02*
X140152071Y-83827338D01*
X140152071Y-83827338D02*
X140294928Y-83779719D01*
X140294928Y-83779719D02*
X140390166Y-83779719D01*
X140390166Y-83779719D02*
X140533023Y-83827338D01*
X140533023Y-83827338D02*
X140580642Y-83874957D01*
X140913976Y-83779719D02*
X141533023Y-83779719D01*
X141533023Y-83779719D02*
X141199690Y-84160671D01*
X141199690Y-84160671D02*
X141342547Y-84160671D01*
X141342547Y-84160671D02*
X141437785Y-84208290D01*
X141437785Y-84208290D02*
X141485404Y-84255909D01*
X141485404Y-84255909D02*
X141533023Y-84351147D01*
X141533023Y-84351147D02*
X141533023Y-84589242D01*
X141533023Y-84589242D02*
X141485404Y-84684480D01*
X141485404Y-84684480D02*
X141437785Y-84732100D01*
X141437785Y-84732100D02*
X141342547Y-84779719D01*
X141342547Y-84779719D02*
X141056833Y-84779719D01*
X141056833Y-84779719D02*
X140961595Y-84732100D01*
X140961595Y-84732100D02*
X140913976Y-84684480D01*
X141866357Y-83779719D02*
X142485404Y-83779719D01*
X142485404Y-83779719D02*
X142152071Y-84160671D01*
X142152071Y-84160671D02*
X142294928Y-84160671D01*
X142294928Y-84160671D02*
X142390166Y-84208290D01*
X142390166Y-84208290D02*
X142437785Y-84255909D01*
X142437785Y-84255909D02*
X142485404Y-84351147D01*
X142485404Y-84351147D02*
X142485404Y-84589242D01*
X142485404Y-84589242D02*
X142437785Y-84684480D01*
X142437785Y-84684480D02*
X142390166Y-84732100D01*
X142390166Y-84732100D02*
X142294928Y-84779719D01*
X142294928Y-84779719D02*
X142009214Y-84779719D01*
X142009214Y-84779719D02*
X141913976Y-84732100D01*
X141913976Y-84732100D02*
X141866357Y-84684480D01*
%TO.C,RN2*%
X103499523Y-65252619D02*
X103166190Y-64776428D01*
X102928095Y-65252619D02*
X102928095Y-64252619D01*
X102928095Y-64252619D02*
X103309047Y-64252619D01*
X103309047Y-64252619D02*
X103404285Y-64300238D01*
X103404285Y-64300238D02*
X103451904Y-64347857D01*
X103451904Y-64347857D02*
X103499523Y-64443095D01*
X103499523Y-64443095D02*
X103499523Y-64585952D01*
X103499523Y-64585952D02*
X103451904Y-64681190D01*
X103451904Y-64681190D02*
X103404285Y-64728809D01*
X103404285Y-64728809D02*
X103309047Y-64776428D01*
X103309047Y-64776428D02*
X102928095Y-64776428D01*
X103928095Y-65252619D02*
X103928095Y-64252619D01*
X103928095Y-64252619D02*
X104499523Y-65252619D01*
X104499523Y-65252619D02*
X104499523Y-64252619D01*
X104928095Y-64347857D02*
X104975714Y-64300238D01*
X104975714Y-64300238D02*
X105070952Y-64252619D01*
X105070952Y-64252619D02*
X105309047Y-64252619D01*
X105309047Y-64252619D02*
X105404285Y-64300238D01*
X105404285Y-64300238D02*
X105451904Y-64347857D01*
X105451904Y-64347857D02*
X105499523Y-64443095D01*
X105499523Y-64443095D02*
X105499523Y-64538333D01*
X105499523Y-64538333D02*
X105451904Y-64681190D01*
X105451904Y-64681190D02*
X104880476Y-65252619D01*
X104880476Y-65252619D02*
X105499523Y-65252619D01*
%TO.C,C40*%
X90411142Y-66808480D02*
X90363523Y-66856100D01*
X90363523Y-66856100D02*
X90220666Y-66903719D01*
X90220666Y-66903719D02*
X90125428Y-66903719D01*
X90125428Y-66903719D02*
X89982571Y-66856100D01*
X89982571Y-66856100D02*
X89887333Y-66760861D01*
X89887333Y-66760861D02*
X89839714Y-66665623D01*
X89839714Y-66665623D02*
X89792095Y-66475147D01*
X89792095Y-66475147D02*
X89792095Y-66332290D01*
X89792095Y-66332290D02*
X89839714Y-66141814D01*
X89839714Y-66141814D02*
X89887333Y-66046576D01*
X89887333Y-66046576D02*
X89982571Y-65951338D01*
X89982571Y-65951338D02*
X90125428Y-65903719D01*
X90125428Y-65903719D02*
X90220666Y-65903719D01*
X90220666Y-65903719D02*
X90363523Y-65951338D01*
X90363523Y-65951338D02*
X90411142Y-65998957D01*
X91268285Y-66237052D02*
X91268285Y-66903719D01*
X91030190Y-65856100D02*
X90792095Y-66570385D01*
X90792095Y-66570385D02*
X91411142Y-66570385D01*
X91982571Y-65903719D02*
X92077809Y-65903719D01*
X92077809Y-65903719D02*
X92173047Y-65951338D01*
X92173047Y-65951338D02*
X92220666Y-65998957D01*
X92220666Y-65998957D02*
X92268285Y-66094195D01*
X92268285Y-66094195D02*
X92315904Y-66284671D01*
X92315904Y-66284671D02*
X92315904Y-66522766D01*
X92315904Y-66522766D02*
X92268285Y-66713242D01*
X92268285Y-66713242D02*
X92220666Y-66808480D01*
X92220666Y-66808480D02*
X92173047Y-66856100D01*
X92173047Y-66856100D02*
X92077809Y-66903719D01*
X92077809Y-66903719D02*
X91982571Y-66903719D01*
X91982571Y-66903719D02*
X91887333Y-66856100D01*
X91887333Y-66856100D02*
X91839714Y-66808480D01*
X91839714Y-66808480D02*
X91792095Y-66713242D01*
X91792095Y-66713242D02*
X91744476Y-66522766D01*
X91744476Y-66522766D02*
X91744476Y-66284671D01*
X91744476Y-66284671D02*
X91792095Y-66094195D01*
X91792095Y-66094195D02*
X91839714Y-65998957D01*
X91839714Y-65998957D02*
X91887333Y-65951338D01*
X91887333Y-65951338D02*
X91982571Y-65903719D01*
%TO.C,C39*%
X90317142Y-62707380D02*
X90269523Y-62755000D01*
X90269523Y-62755000D02*
X90126666Y-62802619D01*
X90126666Y-62802619D02*
X90031428Y-62802619D01*
X90031428Y-62802619D02*
X89888571Y-62755000D01*
X89888571Y-62755000D02*
X89793333Y-62659761D01*
X89793333Y-62659761D02*
X89745714Y-62564523D01*
X89745714Y-62564523D02*
X89698095Y-62374047D01*
X89698095Y-62374047D02*
X89698095Y-62231190D01*
X89698095Y-62231190D02*
X89745714Y-62040714D01*
X89745714Y-62040714D02*
X89793333Y-61945476D01*
X89793333Y-61945476D02*
X89888571Y-61850238D01*
X89888571Y-61850238D02*
X90031428Y-61802619D01*
X90031428Y-61802619D02*
X90126666Y-61802619D01*
X90126666Y-61802619D02*
X90269523Y-61850238D01*
X90269523Y-61850238D02*
X90317142Y-61897857D01*
X90650476Y-61802619D02*
X91269523Y-61802619D01*
X91269523Y-61802619D02*
X90936190Y-62183571D01*
X90936190Y-62183571D02*
X91079047Y-62183571D01*
X91079047Y-62183571D02*
X91174285Y-62231190D01*
X91174285Y-62231190D02*
X91221904Y-62278809D01*
X91221904Y-62278809D02*
X91269523Y-62374047D01*
X91269523Y-62374047D02*
X91269523Y-62612142D01*
X91269523Y-62612142D02*
X91221904Y-62707380D01*
X91221904Y-62707380D02*
X91174285Y-62755000D01*
X91174285Y-62755000D02*
X91079047Y-62802619D01*
X91079047Y-62802619D02*
X90793333Y-62802619D01*
X90793333Y-62802619D02*
X90698095Y-62755000D01*
X90698095Y-62755000D02*
X90650476Y-62707380D01*
X91745714Y-62802619D02*
X91936190Y-62802619D01*
X91936190Y-62802619D02*
X92031428Y-62755000D01*
X92031428Y-62755000D02*
X92079047Y-62707380D01*
X92079047Y-62707380D02*
X92174285Y-62564523D01*
X92174285Y-62564523D02*
X92221904Y-62374047D01*
X92221904Y-62374047D02*
X92221904Y-61993095D01*
X92221904Y-61993095D02*
X92174285Y-61897857D01*
X92174285Y-61897857D02*
X92126666Y-61850238D01*
X92126666Y-61850238D02*
X92031428Y-61802619D01*
X92031428Y-61802619D02*
X91840952Y-61802619D01*
X91840952Y-61802619D02*
X91745714Y-61850238D01*
X91745714Y-61850238D02*
X91698095Y-61897857D01*
X91698095Y-61897857D02*
X91650476Y-61993095D01*
X91650476Y-61993095D02*
X91650476Y-62231190D01*
X91650476Y-62231190D02*
X91698095Y-62326428D01*
X91698095Y-62326428D02*
X91745714Y-62374047D01*
X91745714Y-62374047D02*
X91840952Y-62421666D01*
X91840952Y-62421666D02*
X92031428Y-62421666D01*
X92031428Y-62421666D02*
X92126666Y-62374047D01*
X92126666Y-62374047D02*
X92174285Y-62326428D01*
X92174285Y-62326428D02*
X92221904Y-62231190D01*
%TO.C,R59*%
X135717642Y-73440319D02*
X135384309Y-72964128D01*
X135146214Y-73440319D02*
X135146214Y-72440319D01*
X135146214Y-72440319D02*
X135527166Y-72440319D01*
X135527166Y-72440319D02*
X135622404Y-72487938D01*
X135622404Y-72487938D02*
X135670023Y-72535557D01*
X135670023Y-72535557D02*
X135717642Y-72630795D01*
X135717642Y-72630795D02*
X135717642Y-72773652D01*
X135717642Y-72773652D02*
X135670023Y-72868890D01*
X135670023Y-72868890D02*
X135622404Y-72916509D01*
X135622404Y-72916509D02*
X135527166Y-72964128D01*
X135527166Y-72964128D02*
X135146214Y-72964128D01*
X136622404Y-72440319D02*
X136146214Y-72440319D01*
X136146214Y-72440319D02*
X136098595Y-72916509D01*
X136098595Y-72916509D02*
X136146214Y-72868890D01*
X136146214Y-72868890D02*
X136241452Y-72821271D01*
X136241452Y-72821271D02*
X136479547Y-72821271D01*
X136479547Y-72821271D02*
X136574785Y-72868890D01*
X136574785Y-72868890D02*
X136622404Y-72916509D01*
X136622404Y-72916509D02*
X136670023Y-73011747D01*
X136670023Y-73011747D02*
X136670023Y-73249842D01*
X136670023Y-73249842D02*
X136622404Y-73345080D01*
X136622404Y-73345080D02*
X136574785Y-73392700D01*
X136574785Y-73392700D02*
X136479547Y-73440319D01*
X136479547Y-73440319D02*
X136241452Y-73440319D01*
X136241452Y-73440319D02*
X136146214Y-73392700D01*
X136146214Y-73392700D02*
X136098595Y-73345080D01*
X137146214Y-73440319D02*
X137336690Y-73440319D01*
X137336690Y-73440319D02*
X137431928Y-73392700D01*
X137431928Y-73392700D02*
X137479547Y-73345080D01*
X137479547Y-73345080D02*
X137574785Y-73202223D01*
X137574785Y-73202223D02*
X137622404Y-73011747D01*
X137622404Y-73011747D02*
X137622404Y-72630795D01*
X137622404Y-72630795D02*
X137574785Y-72535557D01*
X137574785Y-72535557D02*
X137527166Y-72487938D01*
X137527166Y-72487938D02*
X137431928Y-72440319D01*
X137431928Y-72440319D02*
X137241452Y-72440319D01*
X137241452Y-72440319D02*
X137146214Y-72487938D01*
X137146214Y-72487938D02*
X137098595Y-72535557D01*
X137098595Y-72535557D02*
X137050976Y-72630795D01*
X137050976Y-72630795D02*
X137050976Y-72868890D01*
X137050976Y-72868890D02*
X137098595Y-72964128D01*
X137098595Y-72964128D02*
X137146214Y-73011747D01*
X137146214Y-73011747D02*
X137241452Y-73059366D01*
X137241452Y-73059366D02*
X137431928Y-73059366D01*
X137431928Y-73059366D02*
X137527166Y-73011747D01*
X137527166Y-73011747D02*
X137574785Y-72964128D01*
X137574785Y-72964128D02*
X137622404Y-72868890D01*
%TO.C,S2*%
X123243095Y-86240000D02*
X123385952Y-86287619D01*
X123385952Y-86287619D02*
X123624047Y-86287619D01*
X123624047Y-86287619D02*
X123719285Y-86240000D01*
X123719285Y-86240000D02*
X123766904Y-86192380D01*
X123766904Y-86192380D02*
X123814523Y-86097142D01*
X123814523Y-86097142D02*
X123814523Y-86001904D01*
X123814523Y-86001904D02*
X123766904Y-85906666D01*
X123766904Y-85906666D02*
X123719285Y-85859047D01*
X123719285Y-85859047D02*
X123624047Y-85811428D01*
X123624047Y-85811428D02*
X123433571Y-85763809D01*
X123433571Y-85763809D02*
X123338333Y-85716190D01*
X123338333Y-85716190D02*
X123290714Y-85668571D01*
X123290714Y-85668571D02*
X123243095Y-85573333D01*
X123243095Y-85573333D02*
X123243095Y-85478095D01*
X123243095Y-85478095D02*
X123290714Y-85382857D01*
X123290714Y-85382857D02*
X123338333Y-85335238D01*
X123338333Y-85335238D02*
X123433571Y-85287619D01*
X123433571Y-85287619D02*
X123671666Y-85287619D01*
X123671666Y-85287619D02*
X123814523Y-85335238D01*
X124195476Y-85382857D02*
X124243095Y-85335238D01*
X124243095Y-85335238D02*
X124338333Y-85287619D01*
X124338333Y-85287619D02*
X124576428Y-85287619D01*
X124576428Y-85287619D02*
X124671666Y-85335238D01*
X124671666Y-85335238D02*
X124719285Y-85382857D01*
X124719285Y-85382857D02*
X124766904Y-85478095D01*
X124766904Y-85478095D02*
X124766904Y-85573333D01*
X124766904Y-85573333D02*
X124719285Y-85716190D01*
X124719285Y-85716190D02*
X124147857Y-86287619D01*
X124147857Y-86287619D02*
X124766904Y-86287619D01*
%TO.C,C37*%
X140643742Y-93551880D02*
X140596123Y-93599500D01*
X140596123Y-93599500D02*
X140453266Y-93647119D01*
X140453266Y-93647119D02*
X140358028Y-93647119D01*
X140358028Y-93647119D02*
X140215171Y-93599500D01*
X140215171Y-93599500D02*
X140119933Y-93504261D01*
X140119933Y-93504261D02*
X140072314Y-93409023D01*
X140072314Y-93409023D02*
X140024695Y-93218547D01*
X140024695Y-93218547D02*
X140024695Y-93075690D01*
X140024695Y-93075690D02*
X140072314Y-92885214D01*
X140072314Y-92885214D02*
X140119933Y-92789976D01*
X140119933Y-92789976D02*
X140215171Y-92694738D01*
X140215171Y-92694738D02*
X140358028Y-92647119D01*
X140358028Y-92647119D02*
X140453266Y-92647119D01*
X140453266Y-92647119D02*
X140596123Y-92694738D01*
X140596123Y-92694738D02*
X140643742Y-92742357D01*
X140977076Y-92647119D02*
X141596123Y-92647119D01*
X141596123Y-92647119D02*
X141262790Y-93028071D01*
X141262790Y-93028071D02*
X141405647Y-93028071D01*
X141405647Y-93028071D02*
X141500885Y-93075690D01*
X141500885Y-93075690D02*
X141548504Y-93123309D01*
X141548504Y-93123309D02*
X141596123Y-93218547D01*
X141596123Y-93218547D02*
X141596123Y-93456642D01*
X141596123Y-93456642D02*
X141548504Y-93551880D01*
X141548504Y-93551880D02*
X141500885Y-93599500D01*
X141500885Y-93599500D02*
X141405647Y-93647119D01*
X141405647Y-93647119D02*
X141119933Y-93647119D01*
X141119933Y-93647119D02*
X141024695Y-93599500D01*
X141024695Y-93599500D02*
X140977076Y-93551880D01*
X141929457Y-92647119D02*
X142596123Y-92647119D01*
X142596123Y-92647119D02*
X142167552Y-93647119D01*
%TO.C,R9*%
X24233333Y-67392619D02*
X23900000Y-66916428D01*
X23661905Y-67392619D02*
X23661905Y-66392619D01*
X23661905Y-66392619D02*
X24042857Y-66392619D01*
X24042857Y-66392619D02*
X24138095Y-66440238D01*
X24138095Y-66440238D02*
X24185714Y-66487857D01*
X24185714Y-66487857D02*
X24233333Y-66583095D01*
X24233333Y-66583095D02*
X24233333Y-66725952D01*
X24233333Y-66725952D02*
X24185714Y-66821190D01*
X24185714Y-66821190D02*
X24138095Y-66868809D01*
X24138095Y-66868809D02*
X24042857Y-66916428D01*
X24042857Y-66916428D02*
X23661905Y-66916428D01*
X24709524Y-67392619D02*
X24900000Y-67392619D01*
X24900000Y-67392619D02*
X24995238Y-67345000D01*
X24995238Y-67345000D02*
X25042857Y-67297380D01*
X25042857Y-67297380D02*
X25138095Y-67154523D01*
X25138095Y-67154523D02*
X25185714Y-66964047D01*
X25185714Y-66964047D02*
X25185714Y-66583095D01*
X25185714Y-66583095D02*
X25138095Y-66487857D01*
X25138095Y-66487857D02*
X25090476Y-66440238D01*
X25090476Y-66440238D02*
X24995238Y-66392619D01*
X24995238Y-66392619D02*
X24804762Y-66392619D01*
X24804762Y-66392619D02*
X24709524Y-66440238D01*
X24709524Y-66440238D02*
X24661905Y-66487857D01*
X24661905Y-66487857D02*
X24614286Y-66583095D01*
X24614286Y-66583095D02*
X24614286Y-66821190D01*
X24614286Y-66821190D02*
X24661905Y-66916428D01*
X24661905Y-66916428D02*
X24709524Y-66964047D01*
X24709524Y-66964047D02*
X24804762Y-67011666D01*
X24804762Y-67011666D02*
X24995238Y-67011666D01*
X24995238Y-67011666D02*
X25090476Y-66964047D01*
X25090476Y-66964047D02*
X25138095Y-66916428D01*
X25138095Y-66916428D02*
X25185714Y-66821190D01*
%TO.C,R60*%
X140350942Y-97312519D02*
X140017609Y-96836328D01*
X139779514Y-97312519D02*
X139779514Y-96312519D01*
X139779514Y-96312519D02*
X140160466Y-96312519D01*
X140160466Y-96312519D02*
X140255704Y-96360138D01*
X140255704Y-96360138D02*
X140303323Y-96407757D01*
X140303323Y-96407757D02*
X140350942Y-96502995D01*
X140350942Y-96502995D02*
X140350942Y-96645852D01*
X140350942Y-96645852D02*
X140303323Y-96741090D01*
X140303323Y-96741090D02*
X140255704Y-96788709D01*
X140255704Y-96788709D02*
X140160466Y-96836328D01*
X140160466Y-96836328D02*
X139779514Y-96836328D01*
X141208085Y-96312519D02*
X141017609Y-96312519D01*
X141017609Y-96312519D02*
X140922371Y-96360138D01*
X140922371Y-96360138D02*
X140874752Y-96407757D01*
X140874752Y-96407757D02*
X140779514Y-96550614D01*
X140779514Y-96550614D02*
X140731895Y-96741090D01*
X140731895Y-96741090D02*
X140731895Y-97122042D01*
X140731895Y-97122042D02*
X140779514Y-97217280D01*
X140779514Y-97217280D02*
X140827133Y-97264900D01*
X140827133Y-97264900D02*
X140922371Y-97312519D01*
X140922371Y-97312519D02*
X141112847Y-97312519D01*
X141112847Y-97312519D02*
X141208085Y-97264900D01*
X141208085Y-97264900D02*
X141255704Y-97217280D01*
X141255704Y-97217280D02*
X141303323Y-97122042D01*
X141303323Y-97122042D02*
X141303323Y-96883947D01*
X141303323Y-96883947D02*
X141255704Y-96788709D01*
X141255704Y-96788709D02*
X141208085Y-96741090D01*
X141208085Y-96741090D02*
X141112847Y-96693471D01*
X141112847Y-96693471D02*
X140922371Y-96693471D01*
X140922371Y-96693471D02*
X140827133Y-96741090D01*
X140827133Y-96741090D02*
X140779514Y-96788709D01*
X140779514Y-96788709D02*
X140731895Y-96883947D01*
X141922371Y-96312519D02*
X142017609Y-96312519D01*
X142017609Y-96312519D02*
X142112847Y-96360138D01*
X142112847Y-96360138D02*
X142160466Y-96407757D01*
X142160466Y-96407757D02*
X142208085Y-96502995D01*
X142208085Y-96502995D02*
X142255704Y-96693471D01*
X142255704Y-96693471D02*
X142255704Y-96931566D01*
X142255704Y-96931566D02*
X142208085Y-97122042D01*
X142208085Y-97122042D02*
X142160466Y-97217280D01*
X142160466Y-97217280D02*
X142112847Y-97264900D01*
X142112847Y-97264900D02*
X142017609Y-97312519D01*
X142017609Y-97312519D02*
X141922371Y-97312519D01*
X141922371Y-97312519D02*
X141827133Y-97264900D01*
X141827133Y-97264900D02*
X141779514Y-97217280D01*
X141779514Y-97217280D02*
X141731895Y-97122042D01*
X141731895Y-97122042D02*
X141684276Y-96931566D01*
X141684276Y-96931566D02*
X141684276Y-96693471D01*
X141684276Y-96693471D02*
X141731895Y-96502995D01*
X141731895Y-96502995D02*
X141779514Y-96407757D01*
X141779514Y-96407757D02*
X141827133Y-96360138D01*
X141827133Y-96360138D02*
X141922371Y-96312519D01*
%TO.C,C44*%
X96785642Y-73404480D02*
X96738023Y-73452100D01*
X96738023Y-73452100D02*
X96595166Y-73499719D01*
X96595166Y-73499719D02*
X96499928Y-73499719D01*
X96499928Y-73499719D02*
X96357071Y-73452100D01*
X96357071Y-73452100D02*
X96261833Y-73356861D01*
X96261833Y-73356861D02*
X96214214Y-73261623D01*
X96214214Y-73261623D02*
X96166595Y-73071147D01*
X96166595Y-73071147D02*
X96166595Y-72928290D01*
X96166595Y-72928290D02*
X96214214Y-72737814D01*
X96214214Y-72737814D02*
X96261833Y-72642576D01*
X96261833Y-72642576D02*
X96357071Y-72547338D01*
X96357071Y-72547338D02*
X96499928Y-72499719D01*
X96499928Y-72499719D02*
X96595166Y-72499719D01*
X96595166Y-72499719D02*
X96738023Y-72547338D01*
X96738023Y-72547338D02*
X96785642Y-72594957D01*
X97642785Y-72833052D02*
X97642785Y-73499719D01*
X97404690Y-72452100D02*
X97166595Y-73166385D01*
X97166595Y-73166385D02*
X97785642Y-73166385D01*
X98595166Y-72833052D02*
X98595166Y-73499719D01*
X98357071Y-72452100D02*
X98118976Y-73166385D01*
X98118976Y-73166385D02*
X98738023Y-73166385D01*
%TO.C,SW1*%
X143886667Y-115005000D02*
X144029524Y-115052619D01*
X144029524Y-115052619D02*
X144267619Y-115052619D01*
X144267619Y-115052619D02*
X144362857Y-115005000D01*
X144362857Y-115005000D02*
X144410476Y-114957380D01*
X144410476Y-114957380D02*
X144458095Y-114862142D01*
X144458095Y-114862142D02*
X144458095Y-114766904D01*
X144458095Y-114766904D02*
X144410476Y-114671666D01*
X144410476Y-114671666D02*
X144362857Y-114624047D01*
X144362857Y-114624047D02*
X144267619Y-114576428D01*
X144267619Y-114576428D02*
X144077143Y-114528809D01*
X144077143Y-114528809D02*
X143981905Y-114481190D01*
X143981905Y-114481190D02*
X143934286Y-114433571D01*
X143934286Y-114433571D02*
X143886667Y-114338333D01*
X143886667Y-114338333D02*
X143886667Y-114243095D01*
X143886667Y-114243095D02*
X143934286Y-114147857D01*
X143934286Y-114147857D02*
X143981905Y-114100238D01*
X143981905Y-114100238D02*
X144077143Y-114052619D01*
X144077143Y-114052619D02*
X144315238Y-114052619D01*
X144315238Y-114052619D02*
X144458095Y-114100238D01*
X144791429Y-114052619D02*
X145029524Y-115052619D01*
X145029524Y-115052619D02*
X145220000Y-114338333D01*
X145220000Y-114338333D02*
X145410476Y-115052619D01*
X145410476Y-115052619D02*
X145648572Y-114052619D01*
X146553333Y-115052619D02*
X145981905Y-115052619D01*
X146267619Y-115052619D02*
X146267619Y-114052619D01*
X146267619Y-114052619D02*
X146172381Y-114195476D01*
X146172381Y-114195476D02*
X146077143Y-114290714D01*
X146077143Y-114290714D02*
X145981905Y-114338333D01*
%TO.C,Q1*%
X51324761Y-79157857D02*
X51229523Y-79110238D01*
X51229523Y-79110238D02*
X51134285Y-79015000D01*
X51134285Y-79015000D02*
X50991428Y-78872142D01*
X50991428Y-78872142D02*
X50896190Y-78824523D01*
X50896190Y-78824523D02*
X50800952Y-78824523D01*
X50848571Y-79062619D02*
X50753333Y-79015000D01*
X50753333Y-79015000D02*
X50658095Y-78919761D01*
X50658095Y-78919761D02*
X50610476Y-78729285D01*
X50610476Y-78729285D02*
X50610476Y-78395952D01*
X50610476Y-78395952D02*
X50658095Y-78205476D01*
X50658095Y-78205476D02*
X50753333Y-78110238D01*
X50753333Y-78110238D02*
X50848571Y-78062619D01*
X50848571Y-78062619D02*
X51039047Y-78062619D01*
X51039047Y-78062619D02*
X51134285Y-78110238D01*
X51134285Y-78110238D02*
X51229523Y-78205476D01*
X51229523Y-78205476D02*
X51277142Y-78395952D01*
X51277142Y-78395952D02*
X51277142Y-78729285D01*
X51277142Y-78729285D02*
X51229523Y-78919761D01*
X51229523Y-78919761D02*
X51134285Y-79015000D01*
X51134285Y-79015000D02*
X51039047Y-79062619D01*
X51039047Y-79062619D02*
X50848571Y-79062619D01*
X52229523Y-79062619D02*
X51658095Y-79062619D01*
X51943809Y-79062619D02*
X51943809Y-78062619D01*
X51943809Y-78062619D02*
X51848571Y-78205476D01*
X51848571Y-78205476D02*
X51753333Y-78300714D01*
X51753333Y-78300714D02*
X51658095Y-78348333D01*
%TO.C,C42*%
X96549242Y-62816180D02*
X96501623Y-62863800D01*
X96501623Y-62863800D02*
X96358766Y-62911419D01*
X96358766Y-62911419D02*
X96263528Y-62911419D01*
X96263528Y-62911419D02*
X96120671Y-62863800D01*
X96120671Y-62863800D02*
X96025433Y-62768561D01*
X96025433Y-62768561D02*
X95977814Y-62673323D01*
X95977814Y-62673323D02*
X95930195Y-62482847D01*
X95930195Y-62482847D02*
X95930195Y-62339990D01*
X95930195Y-62339990D02*
X95977814Y-62149514D01*
X95977814Y-62149514D02*
X96025433Y-62054276D01*
X96025433Y-62054276D02*
X96120671Y-61959038D01*
X96120671Y-61959038D02*
X96263528Y-61911419D01*
X96263528Y-61911419D02*
X96358766Y-61911419D01*
X96358766Y-61911419D02*
X96501623Y-61959038D01*
X96501623Y-61959038D02*
X96549242Y-62006657D01*
X97406385Y-62244752D02*
X97406385Y-62911419D01*
X97168290Y-61863800D02*
X96930195Y-62578085D01*
X96930195Y-62578085D02*
X97549242Y-62578085D01*
X97882576Y-62006657D02*
X97930195Y-61959038D01*
X97930195Y-61959038D02*
X98025433Y-61911419D01*
X98025433Y-61911419D02*
X98263528Y-61911419D01*
X98263528Y-61911419D02*
X98358766Y-61959038D01*
X98358766Y-61959038D02*
X98406385Y-62006657D01*
X98406385Y-62006657D02*
X98454004Y-62101895D01*
X98454004Y-62101895D02*
X98454004Y-62197133D01*
X98454004Y-62197133D02*
X98406385Y-62339990D01*
X98406385Y-62339990D02*
X97834957Y-62911419D01*
X97834957Y-62911419D02*
X98454004Y-62911419D01*
%TO.C,J1*%
X162662619Y-24403333D02*
X163376904Y-24403333D01*
X163376904Y-24403333D02*
X163519761Y-24450952D01*
X163519761Y-24450952D02*
X163615000Y-24546190D01*
X163615000Y-24546190D02*
X163662619Y-24689047D01*
X163662619Y-24689047D02*
X163662619Y-24784285D01*
X163662619Y-23403333D02*
X163662619Y-23974761D01*
X163662619Y-23689047D02*
X162662619Y-23689047D01*
X162662619Y-23689047D02*
X162805476Y-23784285D01*
X162805476Y-23784285D02*
X162900714Y-23879523D01*
X162900714Y-23879523D02*
X162948333Y-23974761D01*
%TO.C,R58*%
X133571742Y-68075719D02*
X133238409Y-67599528D01*
X133000314Y-68075719D02*
X133000314Y-67075719D01*
X133000314Y-67075719D02*
X133381266Y-67075719D01*
X133381266Y-67075719D02*
X133476504Y-67123338D01*
X133476504Y-67123338D02*
X133524123Y-67170957D01*
X133524123Y-67170957D02*
X133571742Y-67266195D01*
X133571742Y-67266195D02*
X133571742Y-67409052D01*
X133571742Y-67409052D02*
X133524123Y-67504290D01*
X133524123Y-67504290D02*
X133476504Y-67551909D01*
X133476504Y-67551909D02*
X133381266Y-67599528D01*
X133381266Y-67599528D02*
X133000314Y-67599528D01*
X134476504Y-67075719D02*
X134000314Y-67075719D01*
X134000314Y-67075719D02*
X133952695Y-67551909D01*
X133952695Y-67551909D02*
X134000314Y-67504290D01*
X134000314Y-67504290D02*
X134095552Y-67456671D01*
X134095552Y-67456671D02*
X134333647Y-67456671D01*
X134333647Y-67456671D02*
X134428885Y-67504290D01*
X134428885Y-67504290D02*
X134476504Y-67551909D01*
X134476504Y-67551909D02*
X134524123Y-67647147D01*
X134524123Y-67647147D02*
X134524123Y-67885242D01*
X134524123Y-67885242D02*
X134476504Y-67980480D01*
X134476504Y-67980480D02*
X134428885Y-68028100D01*
X134428885Y-68028100D02*
X134333647Y-68075719D01*
X134333647Y-68075719D02*
X134095552Y-68075719D01*
X134095552Y-68075719D02*
X134000314Y-68028100D01*
X134000314Y-68028100D02*
X133952695Y-67980480D01*
X135095552Y-67504290D02*
X135000314Y-67456671D01*
X135000314Y-67456671D02*
X134952695Y-67409052D01*
X134952695Y-67409052D02*
X134905076Y-67313814D01*
X134905076Y-67313814D02*
X134905076Y-67266195D01*
X134905076Y-67266195D02*
X134952695Y-67170957D01*
X134952695Y-67170957D02*
X135000314Y-67123338D01*
X135000314Y-67123338D02*
X135095552Y-67075719D01*
X135095552Y-67075719D02*
X135286028Y-67075719D01*
X135286028Y-67075719D02*
X135381266Y-67123338D01*
X135381266Y-67123338D02*
X135428885Y-67170957D01*
X135428885Y-67170957D02*
X135476504Y-67266195D01*
X135476504Y-67266195D02*
X135476504Y-67313814D01*
X135476504Y-67313814D02*
X135428885Y-67409052D01*
X135428885Y-67409052D02*
X135381266Y-67456671D01*
X135381266Y-67456671D02*
X135286028Y-67504290D01*
X135286028Y-67504290D02*
X135095552Y-67504290D01*
X135095552Y-67504290D02*
X135000314Y-67551909D01*
X135000314Y-67551909D02*
X134952695Y-67599528D01*
X134952695Y-67599528D02*
X134905076Y-67694766D01*
X134905076Y-67694766D02*
X134905076Y-67885242D01*
X134905076Y-67885242D02*
X134952695Y-67980480D01*
X134952695Y-67980480D02*
X135000314Y-68028100D01*
X135000314Y-68028100D02*
X135095552Y-68075719D01*
X135095552Y-68075719D02*
X135286028Y-68075719D01*
X135286028Y-68075719D02*
X135381266Y-68028100D01*
X135381266Y-68028100D02*
X135428885Y-67980480D01*
X135428885Y-67980480D02*
X135476504Y-67885242D01*
X135476504Y-67885242D02*
X135476504Y-67694766D01*
X135476504Y-67694766D02*
X135428885Y-67599528D01*
X135428885Y-67599528D02*
X135381266Y-67551909D01*
X135381266Y-67551909D02*
X135286028Y-67504290D01*
%TO.C,SW3*%
X162941667Y-101445000D02*
X163084524Y-101492619D01*
X163084524Y-101492619D02*
X163322619Y-101492619D01*
X163322619Y-101492619D02*
X163417857Y-101445000D01*
X163417857Y-101445000D02*
X163465476Y-101397380D01*
X163465476Y-101397380D02*
X163513095Y-101302142D01*
X163513095Y-101302142D02*
X163513095Y-101206904D01*
X163513095Y-101206904D02*
X163465476Y-101111666D01*
X163465476Y-101111666D02*
X163417857Y-101064047D01*
X163417857Y-101064047D02*
X163322619Y-101016428D01*
X163322619Y-101016428D02*
X163132143Y-100968809D01*
X163132143Y-100968809D02*
X163036905Y-100921190D01*
X163036905Y-100921190D02*
X162989286Y-100873571D01*
X162989286Y-100873571D02*
X162941667Y-100778333D01*
X162941667Y-100778333D02*
X162941667Y-100683095D01*
X162941667Y-100683095D02*
X162989286Y-100587857D01*
X162989286Y-100587857D02*
X163036905Y-100540238D01*
X163036905Y-100540238D02*
X163132143Y-100492619D01*
X163132143Y-100492619D02*
X163370238Y-100492619D01*
X163370238Y-100492619D02*
X163513095Y-100540238D01*
X163846429Y-100492619D02*
X164084524Y-101492619D01*
X164084524Y-101492619D02*
X164275000Y-100778333D01*
X164275000Y-100778333D02*
X164465476Y-101492619D01*
X164465476Y-101492619D02*
X164703572Y-100492619D01*
X164989286Y-100492619D02*
X165608333Y-100492619D01*
X165608333Y-100492619D02*
X165275000Y-100873571D01*
X165275000Y-100873571D02*
X165417857Y-100873571D01*
X165417857Y-100873571D02*
X165513095Y-100921190D01*
X165513095Y-100921190D02*
X165560714Y-100968809D01*
X165560714Y-100968809D02*
X165608333Y-101064047D01*
X165608333Y-101064047D02*
X165608333Y-101302142D01*
X165608333Y-101302142D02*
X165560714Y-101397380D01*
X165560714Y-101397380D02*
X165513095Y-101445000D01*
X165513095Y-101445000D02*
X165417857Y-101492619D01*
X165417857Y-101492619D02*
X165132143Y-101492619D01*
X165132143Y-101492619D02*
X165036905Y-101445000D01*
X165036905Y-101445000D02*
X164989286Y-101397380D01*
%TO.C,S3*%
X123243095Y-94040000D02*
X123385952Y-94087619D01*
X123385952Y-94087619D02*
X123624047Y-94087619D01*
X123624047Y-94087619D02*
X123719285Y-94040000D01*
X123719285Y-94040000D02*
X123766904Y-93992380D01*
X123766904Y-93992380D02*
X123814523Y-93897142D01*
X123814523Y-93897142D02*
X123814523Y-93801904D01*
X123814523Y-93801904D02*
X123766904Y-93706666D01*
X123766904Y-93706666D02*
X123719285Y-93659047D01*
X123719285Y-93659047D02*
X123624047Y-93611428D01*
X123624047Y-93611428D02*
X123433571Y-93563809D01*
X123433571Y-93563809D02*
X123338333Y-93516190D01*
X123338333Y-93516190D02*
X123290714Y-93468571D01*
X123290714Y-93468571D02*
X123243095Y-93373333D01*
X123243095Y-93373333D02*
X123243095Y-93278095D01*
X123243095Y-93278095D02*
X123290714Y-93182857D01*
X123290714Y-93182857D02*
X123338333Y-93135238D01*
X123338333Y-93135238D02*
X123433571Y-93087619D01*
X123433571Y-93087619D02*
X123671666Y-93087619D01*
X123671666Y-93087619D02*
X123814523Y-93135238D01*
X124147857Y-93087619D02*
X124766904Y-93087619D01*
X124766904Y-93087619D02*
X124433571Y-93468571D01*
X124433571Y-93468571D02*
X124576428Y-93468571D01*
X124576428Y-93468571D02*
X124671666Y-93516190D01*
X124671666Y-93516190D02*
X124719285Y-93563809D01*
X124719285Y-93563809D02*
X124766904Y-93659047D01*
X124766904Y-93659047D02*
X124766904Y-93897142D01*
X124766904Y-93897142D02*
X124719285Y-93992380D01*
X124719285Y-93992380D02*
X124671666Y-94040000D01*
X124671666Y-94040000D02*
X124576428Y-94087619D01*
X124576428Y-94087619D02*
X124290714Y-94087619D01*
X124290714Y-94087619D02*
X124195476Y-94040000D01*
X124195476Y-94040000D02*
X124147857Y-93992380D01*
%TO.C,R16*%
X155837142Y-85172619D02*
X155503809Y-84696428D01*
X155265714Y-85172619D02*
X155265714Y-84172619D01*
X155265714Y-84172619D02*
X155646666Y-84172619D01*
X155646666Y-84172619D02*
X155741904Y-84220238D01*
X155741904Y-84220238D02*
X155789523Y-84267857D01*
X155789523Y-84267857D02*
X155837142Y-84363095D01*
X155837142Y-84363095D02*
X155837142Y-84505952D01*
X155837142Y-84505952D02*
X155789523Y-84601190D01*
X155789523Y-84601190D02*
X155741904Y-84648809D01*
X155741904Y-84648809D02*
X155646666Y-84696428D01*
X155646666Y-84696428D02*
X155265714Y-84696428D01*
X156789523Y-85172619D02*
X156218095Y-85172619D01*
X156503809Y-85172619D02*
X156503809Y-84172619D01*
X156503809Y-84172619D02*
X156408571Y-84315476D01*
X156408571Y-84315476D02*
X156313333Y-84410714D01*
X156313333Y-84410714D02*
X156218095Y-84458333D01*
X157646666Y-84172619D02*
X157456190Y-84172619D01*
X157456190Y-84172619D02*
X157360952Y-84220238D01*
X157360952Y-84220238D02*
X157313333Y-84267857D01*
X157313333Y-84267857D02*
X157218095Y-84410714D01*
X157218095Y-84410714D02*
X157170476Y-84601190D01*
X157170476Y-84601190D02*
X157170476Y-84982142D01*
X157170476Y-84982142D02*
X157218095Y-85077380D01*
X157218095Y-85077380D02*
X157265714Y-85125000D01*
X157265714Y-85125000D02*
X157360952Y-85172619D01*
X157360952Y-85172619D02*
X157551428Y-85172619D01*
X157551428Y-85172619D02*
X157646666Y-85125000D01*
X157646666Y-85125000D02*
X157694285Y-85077380D01*
X157694285Y-85077380D02*
X157741904Y-84982142D01*
X157741904Y-84982142D02*
X157741904Y-84744047D01*
X157741904Y-84744047D02*
X157694285Y-84648809D01*
X157694285Y-84648809D02*
X157646666Y-84601190D01*
X157646666Y-84601190D02*
X157551428Y-84553571D01*
X157551428Y-84553571D02*
X157360952Y-84553571D01*
X157360952Y-84553571D02*
X157265714Y-84601190D01*
X157265714Y-84601190D02*
X157218095Y-84648809D01*
X157218095Y-84648809D02*
X157170476Y-84744047D01*
%TO.C,SW4*%
X162941667Y-114145000D02*
X163084524Y-114192619D01*
X163084524Y-114192619D02*
X163322619Y-114192619D01*
X163322619Y-114192619D02*
X163417857Y-114145000D01*
X163417857Y-114145000D02*
X163465476Y-114097380D01*
X163465476Y-114097380D02*
X163513095Y-114002142D01*
X163513095Y-114002142D02*
X163513095Y-113906904D01*
X163513095Y-113906904D02*
X163465476Y-113811666D01*
X163465476Y-113811666D02*
X163417857Y-113764047D01*
X163417857Y-113764047D02*
X163322619Y-113716428D01*
X163322619Y-113716428D02*
X163132143Y-113668809D01*
X163132143Y-113668809D02*
X163036905Y-113621190D01*
X163036905Y-113621190D02*
X162989286Y-113573571D01*
X162989286Y-113573571D02*
X162941667Y-113478333D01*
X162941667Y-113478333D02*
X162941667Y-113383095D01*
X162941667Y-113383095D02*
X162989286Y-113287857D01*
X162989286Y-113287857D02*
X163036905Y-113240238D01*
X163036905Y-113240238D02*
X163132143Y-113192619D01*
X163132143Y-113192619D02*
X163370238Y-113192619D01*
X163370238Y-113192619D02*
X163513095Y-113240238D01*
X163846429Y-113192619D02*
X164084524Y-114192619D01*
X164084524Y-114192619D02*
X164275000Y-113478333D01*
X164275000Y-113478333D02*
X164465476Y-114192619D01*
X164465476Y-114192619D02*
X164703572Y-113192619D01*
X165513095Y-113525952D02*
X165513095Y-114192619D01*
X165275000Y-113145000D02*
X165036905Y-113859285D01*
X165036905Y-113859285D02*
X165655952Y-113859285D01*
%TO.C,R17*%
X155837142Y-90252619D02*
X155503809Y-89776428D01*
X155265714Y-90252619D02*
X155265714Y-89252619D01*
X155265714Y-89252619D02*
X155646666Y-89252619D01*
X155646666Y-89252619D02*
X155741904Y-89300238D01*
X155741904Y-89300238D02*
X155789523Y-89347857D01*
X155789523Y-89347857D02*
X155837142Y-89443095D01*
X155837142Y-89443095D02*
X155837142Y-89585952D01*
X155837142Y-89585952D02*
X155789523Y-89681190D01*
X155789523Y-89681190D02*
X155741904Y-89728809D01*
X155741904Y-89728809D02*
X155646666Y-89776428D01*
X155646666Y-89776428D02*
X155265714Y-89776428D01*
X156789523Y-90252619D02*
X156218095Y-90252619D01*
X156503809Y-90252619D02*
X156503809Y-89252619D01*
X156503809Y-89252619D02*
X156408571Y-89395476D01*
X156408571Y-89395476D02*
X156313333Y-89490714D01*
X156313333Y-89490714D02*
X156218095Y-89538333D01*
X157122857Y-89252619D02*
X157789523Y-89252619D01*
X157789523Y-89252619D02*
X157360952Y-90252619D01*
%TO.C,U4*%
X19952619Y-115501904D02*
X20762142Y-115501904D01*
X20762142Y-115501904D02*
X20857380Y-115454285D01*
X20857380Y-115454285D02*
X20905000Y-115406666D01*
X20905000Y-115406666D02*
X20952619Y-115311428D01*
X20952619Y-115311428D02*
X20952619Y-115120952D01*
X20952619Y-115120952D02*
X20905000Y-115025714D01*
X20905000Y-115025714D02*
X20857380Y-114978095D01*
X20857380Y-114978095D02*
X20762142Y-114930476D01*
X20762142Y-114930476D02*
X19952619Y-114930476D01*
X20285952Y-114025714D02*
X20952619Y-114025714D01*
X19905000Y-114263809D02*
X20619285Y-114501904D01*
X20619285Y-114501904D02*
X20619285Y-113882857D01*
%TO.C,SW2*%
X151506667Y-119505000D02*
X151649524Y-119552619D01*
X151649524Y-119552619D02*
X151887619Y-119552619D01*
X151887619Y-119552619D02*
X151982857Y-119505000D01*
X151982857Y-119505000D02*
X152030476Y-119457380D01*
X152030476Y-119457380D02*
X152078095Y-119362142D01*
X152078095Y-119362142D02*
X152078095Y-119266904D01*
X152078095Y-119266904D02*
X152030476Y-119171666D01*
X152030476Y-119171666D02*
X151982857Y-119124047D01*
X151982857Y-119124047D02*
X151887619Y-119076428D01*
X151887619Y-119076428D02*
X151697143Y-119028809D01*
X151697143Y-119028809D02*
X151601905Y-118981190D01*
X151601905Y-118981190D02*
X151554286Y-118933571D01*
X151554286Y-118933571D02*
X151506667Y-118838333D01*
X151506667Y-118838333D02*
X151506667Y-118743095D01*
X151506667Y-118743095D02*
X151554286Y-118647857D01*
X151554286Y-118647857D02*
X151601905Y-118600238D01*
X151601905Y-118600238D02*
X151697143Y-118552619D01*
X151697143Y-118552619D02*
X151935238Y-118552619D01*
X151935238Y-118552619D02*
X152078095Y-118600238D01*
X152411429Y-118552619D02*
X152649524Y-119552619D01*
X152649524Y-119552619D02*
X152840000Y-118838333D01*
X152840000Y-118838333D02*
X153030476Y-119552619D01*
X153030476Y-119552619D02*
X153268572Y-118552619D01*
X153601905Y-118647857D02*
X153649524Y-118600238D01*
X153649524Y-118600238D02*
X153744762Y-118552619D01*
X153744762Y-118552619D02*
X153982857Y-118552619D01*
X153982857Y-118552619D02*
X154078095Y-118600238D01*
X154078095Y-118600238D02*
X154125714Y-118647857D01*
X154125714Y-118647857D02*
X154173333Y-118743095D01*
X154173333Y-118743095D02*
X154173333Y-118838333D01*
X154173333Y-118838333D02*
X154125714Y-118981190D01*
X154125714Y-118981190D02*
X153554286Y-119552619D01*
X153554286Y-119552619D02*
X154173333Y-119552619D01*
%TO.C,C41*%
X90317142Y-70647380D02*
X90269523Y-70695000D01*
X90269523Y-70695000D02*
X90126666Y-70742619D01*
X90126666Y-70742619D02*
X90031428Y-70742619D01*
X90031428Y-70742619D02*
X89888571Y-70695000D01*
X89888571Y-70695000D02*
X89793333Y-70599761D01*
X89793333Y-70599761D02*
X89745714Y-70504523D01*
X89745714Y-70504523D02*
X89698095Y-70314047D01*
X89698095Y-70314047D02*
X89698095Y-70171190D01*
X89698095Y-70171190D02*
X89745714Y-69980714D01*
X89745714Y-69980714D02*
X89793333Y-69885476D01*
X89793333Y-69885476D02*
X89888571Y-69790238D01*
X89888571Y-69790238D02*
X90031428Y-69742619D01*
X90031428Y-69742619D02*
X90126666Y-69742619D01*
X90126666Y-69742619D02*
X90269523Y-69790238D01*
X90269523Y-69790238D02*
X90317142Y-69837857D01*
X91174285Y-70075952D02*
X91174285Y-70742619D01*
X90936190Y-69695000D02*
X90698095Y-70409285D01*
X90698095Y-70409285D02*
X91317142Y-70409285D01*
X92221904Y-70742619D02*
X91650476Y-70742619D01*
X91936190Y-70742619D02*
X91936190Y-69742619D01*
X91936190Y-69742619D02*
X91840952Y-69885476D01*
X91840952Y-69885476D02*
X91745714Y-69980714D01*
X91745714Y-69980714D02*
X91650476Y-70028333D01*
%TO.C,C32*%
X141117142Y-80487380D02*
X141069523Y-80535000D01*
X141069523Y-80535000D02*
X140926666Y-80582619D01*
X140926666Y-80582619D02*
X140831428Y-80582619D01*
X140831428Y-80582619D02*
X140688571Y-80535000D01*
X140688571Y-80535000D02*
X140593333Y-80439761D01*
X140593333Y-80439761D02*
X140545714Y-80344523D01*
X140545714Y-80344523D02*
X140498095Y-80154047D01*
X140498095Y-80154047D02*
X140498095Y-80011190D01*
X140498095Y-80011190D02*
X140545714Y-79820714D01*
X140545714Y-79820714D02*
X140593333Y-79725476D01*
X140593333Y-79725476D02*
X140688571Y-79630238D01*
X140688571Y-79630238D02*
X140831428Y-79582619D01*
X140831428Y-79582619D02*
X140926666Y-79582619D01*
X140926666Y-79582619D02*
X141069523Y-79630238D01*
X141069523Y-79630238D02*
X141117142Y-79677857D01*
X141450476Y-79582619D02*
X142069523Y-79582619D01*
X142069523Y-79582619D02*
X141736190Y-79963571D01*
X141736190Y-79963571D02*
X141879047Y-79963571D01*
X141879047Y-79963571D02*
X141974285Y-80011190D01*
X141974285Y-80011190D02*
X142021904Y-80058809D01*
X142021904Y-80058809D02*
X142069523Y-80154047D01*
X142069523Y-80154047D02*
X142069523Y-80392142D01*
X142069523Y-80392142D02*
X142021904Y-80487380D01*
X142021904Y-80487380D02*
X141974285Y-80535000D01*
X141974285Y-80535000D02*
X141879047Y-80582619D01*
X141879047Y-80582619D02*
X141593333Y-80582619D01*
X141593333Y-80582619D02*
X141498095Y-80535000D01*
X141498095Y-80535000D02*
X141450476Y-80487380D01*
X142450476Y-79677857D02*
X142498095Y-79630238D01*
X142498095Y-79630238D02*
X142593333Y-79582619D01*
X142593333Y-79582619D02*
X142831428Y-79582619D01*
X142831428Y-79582619D02*
X142926666Y-79630238D01*
X142926666Y-79630238D02*
X142974285Y-79677857D01*
X142974285Y-79677857D02*
X143021904Y-79773095D01*
X143021904Y-79773095D02*
X143021904Y-79868333D01*
X143021904Y-79868333D02*
X142974285Y-80011190D01*
X142974285Y-80011190D02*
X142402857Y-80582619D01*
X142402857Y-80582619D02*
X143021904Y-80582619D01*
%TO.C,Q2*%
X128254761Y-68787857D02*
X128159523Y-68740238D01*
X128159523Y-68740238D02*
X128064285Y-68645000D01*
X128064285Y-68645000D02*
X127921428Y-68502142D01*
X127921428Y-68502142D02*
X127826190Y-68454523D01*
X127826190Y-68454523D02*
X127730952Y-68454523D01*
X127778571Y-68692619D02*
X127683333Y-68645000D01*
X127683333Y-68645000D02*
X127588095Y-68549761D01*
X127588095Y-68549761D02*
X127540476Y-68359285D01*
X127540476Y-68359285D02*
X127540476Y-68025952D01*
X127540476Y-68025952D02*
X127588095Y-67835476D01*
X127588095Y-67835476D02*
X127683333Y-67740238D01*
X127683333Y-67740238D02*
X127778571Y-67692619D01*
X127778571Y-67692619D02*
X127969047Y-67692619D01*
X127969047Y-67692619D02*
X128064285Y-67740238D01*
X128064285Y-67740238D02*
X128159523Y-67835476D01*
X128159523Y-67835476D02*
X128207142Y-68025952D01*
X128207142Y-68025952D02*
X128207142Y-68359285D01*
X128207142Y-68359285D02*
X128159523Y-68549761D01*
X128159523Y-68549761D02*
X128064285Y-68645000D01*
X128064285Y-68645000D02*
X127969047Y-68692619D01*
X127969047Y-68692619D02*
X127778571Y-68692619D01*
X128588095Y-67787857D02*
X128635714Y-67740238D01*
X128635714Y-67740238D02*
X128730952Y-67692619D01*
X128730952Y-67692619D02*
X128969047Y-67692619D01*
X128969047Y-67692619D02*
X129064285Y-67740238D01*
X129064285Y-67740238D02*
X129111904Y-67787857D01*
X129111904Y-67787857D02*
X129159523Y-67883095D01*
X129159523Y-67883095D02*
X129159523Y-67978333D01*
X129159523Y-67978333D02*
X129111904Y-68121190D01*
X129111904Y-68121190D02*
X128540476Y-68692619D01*
X128540476Y-68692619D02*
X129159523Y-68692619D01*
%TO.C,C43*%
X96911842Y-67156280D02*
X96864223Y-67203900D01*
X96864223Y-67203900D02*
X96721366Y-67251519D01*
X96721366Y-67251519D02*
X96626128Y-67251519D01*
X96626128Y-67251519D02*
X96483271Y-67203900D01*
X96483271Y-67203900D02*
X96388033Y-67108661D01*
X96388033Y-67108661D02*
X96340414Y-67013423D01*
X96340414Y-67013423D02*
X96292795Y-66822947D01*
X96292795Y-66822947D02*
X96292795Y-66680090D01*
X96292795Y-66680090D02*
X96340414Y-66489614D01*
X96340414Y-66489614D02*
X96388033Y-66394376D01*
X96388033Y-66394376D02*
X96483271Y-66299138D01*
X96483271Y-66299138D02*
X96626128Y-66251519D01*
X96626128Y-66251519D02*
X96721366Y-66251519D01*
X96721366Y-66251519D02*
X96864223Y-66299138D01*
X96864223Y-66299138D02*
X96911842Y-66346757D01*
X97768985Y-66584852D02*
X97768985Y-67251519D01*
X97530890Y-66203900D02*
X97292795Y-66918185D01*
X97292795Y-66918185D02*
X97911842Y-66918185D01*
X98197557Y-66251519D02*
X98816604Y-66251519D01*
X98816604Y-66251519D02*
X98483271Y-66632471D01*
X98483271Y-66632471D02*
X98626128Y-66632471D01*
X98626128Y-66632471D02*
X98721366Y-66680090D01*
X98721366Y-66680090D02*
X98768985Y-66727709D01*
X98768985Y-66727709D02*
X98816604Y-66822947D01*
X98816604Y-66822947D02*
X98816604Y-67061042D01*
X98816604Y-67061042D02*
X98768985Y-67156280D01*
X98768985Y-67156280D02*
X98721366Y-67203900D01*
X98721366Y-67203900D02*
X98626128Y-67251519D01*
X98626128Y-67251519D02*
X98340414Y-67251519D01*
X98340414Y-67251519D02*
X98245176Y-67203900D01*
X98245176Y-67203900D02*
X98197557Y-67156280D01*
%TO.C,U2*%
X116118095Y-59362619D02*
X116118095Y-60172142D01*
X116118095Y-60172142D02*
X116165714Y-60267380D01*
X116165714Y-60267380D02*
X116213333Y-60315000D01*
X116213333Y-60315000D02*
X116308571Y-60362619D01*
X116308571Y-60362619D02*
X116499047Y-60362619D01*
X116499047Y-60362619D02*
X116594285Y-60315000D01*
X116594285Y-60315000D02*
X116641904Y-60267380D01*
X116641904Y-60267380D02*
X116689523Y-60172142D01*
X116689523Y-60172142D02*
X116689523Y-59362619D01*
X117118095Y-59457857D02*
X117165714Y-59410238D01*
X117165714Y-59410238D02*
X117260952Y-59362619D01*
X117260952Y-59362619D02*
X117499047Y-59362619D01*
X117499047Y-59362619D02*
X117594285Y-59410238D01*
X117594285Y-59410238D02*
X117641904Y-59457857D01*
X117641904Y-59457857D02*
X117689523Y-59553095D01*
X117689523Y-59553095D02*
X117689523Y-59648333D01*
X117689523Y-59648333D02*
X117641904Y-59791190D01*
X117641904Y-59791190D02*
X117070476Y-60362619D01*
X117070476Y-60362619D02*
X117689523Y-60362619D01*
%TO.C,J2*%
X60196666Y-32822619D02*
X60196666Y-33536904D01*
X60196666Y-33536904D02*
X60149047Y-33679761D01*
X60149047Y-33679761D02*
X60053809Y-33775000D01*
X60053809Y-33775000D02*
X59910952Y-33822619D01*
X59910952Y-33822619D02*
X59815714Y-33822619D01*
X60625238Y-32917857D02*
X60672857Y-32870238D01*
X60672857Y-32870238D02*
X60768095Y-32822619D01*
X60768095Y-32822619D02*
X61006190Y-32822619D01*
X61006190Y-32822619D02*
X61101428Y-32870238D01*
X61101428Y-32870238D02*
X61149047Y-32917857D01*
X61149047Y-32917857D02*
X61196666Y-33013095D01*
X61196666Y-33013095D02*
X61196666Y-33108333D01*
X61196666Y-33108333D02*
X61149047Y-33251190D01*
X61149047Y-33251190D02*
X60577619Y-33822619D01*
X60577619Y-33822619D02*
X61196666Y-33822619D01*
%TO.C,R8*%
X23313333Y-81702619D02*
X22980000Y-81226428D01*
X22741905Y-81702619D02*
X22741905Y-80702619D01*
X22741905Y-80702619D02*
X23122857Y-80702619D01*
X23122857Y-80702619D02*
X23218095Y-80750238D01*
X23218095Y-80750238D02*
X23265714Y-80797857D01*
X23265714Y-80797857D02*
X23313333Y-80893095D01*
X23313333Y-80893095D02*
X23313333Y-81035952D01*
X23313333Y-81035952D02*
X23265714Y-81131190D01*
X23265714Y-81131190D02*
X23218095Y-81178809D01*
X23218095Y-81178809D02*
X23122857Y-81226428D01*
X23122857Y-81226428D02*
X22741905Y-81226428D01*
X23884762Y-81131190D02*
X23789524Y-81083571D01*
X23789524Y-81083571D02*
X23741905Y-81035952D01*
X23741905Y-81035952D02*
X23694286Y-80940714D01*
X23694286Y-80940714D02*
X23694286Y-80893095D01*
X23694286Y-80893095D02*
X23741905Y-80797857D01*
X23741905Y-80797857D02*
X23789524Y-80750238D01*
X23789524Y-80750238D02*
X23884762Y-80702619D01*
X23884762Y-80702619D02*
X24075238Y-80702619D01*
X24075238Y-80702619D02*
X24170476Y-80750238D01*
X24170476Y-80750238D02*
X24218095Y-80797857D01*
X24218095Y-80797857D02*
X24265714Y-80893095D01*
X24265714Y-80893095D02*
X24265714Y-80940714D01*
X24265714Y-80940714D02*
X24218095Y-81035952D01*
X24218095Y-81035952D02*
X24170476Y-81083571D01*
X24170476Y-81083571D02*
X24075238Y-81131190D01*
X24075238Y-81131190D02*
X23884762Y-81131190D01*
X23884762Y-81131190D02*
X23789524Y-81178809D01*
X23789524Y-81178809D02*
X23741905Y-81226428D01*
X23741905Y-81226428D02*
X23694286Y-81321666D01*
X23694286Y-81321666D02*
X23694286Y-81512142D01*
X23694286Y-81512142D02*
X23741905Y-81607380D01*
X23741905Y-81607380D02*
X23789524Y-81655000D01*
X23789524Y-81655000D02*
X23884762Y-81702619D01*
X23884762Y-81702619D02*
X24075238Y-81702619D01*
X24075238Y-81702619D02*
X24170476Y-81655000D01*
X24170476Y-81655000D02*
X24218095Y-81607380D01*
X24218095Y-81607380D02*
X24265714Y-81512142D01*
X24265714Y-81512142D02*
X24265714Y-81321666D01*
X24265714Y-81321666D02*
X24218095Y-81226428D01*
X24218095Y-81226428D02*
X24170476Y-81178809D01*
X24170476Y-81178809D02*
X24075238Y-81131190D01*
%TO.C,X1*%
X142805476Y-63677619D02*
X143472142Y-64677619D01*
X143472142Y-63677619D02*
X142805476Y-64677619D01*
X144376904Y-64677619D02*
X143805476Y-64677619D01*
X144091190Y-64677619D02*
X144091190Y-63677619D01*
X144091190Y-63677619D02*
X143995952Y-63820476D01*
X143995952Y-63820476D02*
X143900714Y-63915714D01*
X143900714Y-63915714D02*
X143805476Y-63963333D01*
%TO.C,D5*%
X132301905Y-77552619D02*
X132301905Y-76552619D01*
X132301905Y-76552619D02*
X132540000Y-76552619D01*
X132540000Y-76552619D02*
X132682857Y-76600238D01*
X132682857Y-76600238D02*
X132778095Y-76695476D01*
X132778095Y-76695476D02*
X132825714Y-76790714D01*
X132825714Y-76790714D02*
X132873333Y-76981190D01*
X132873333Y-76981190D02*
X132873333Y-77124047D01*
X132873333Y-77124047D02*
X132825714Y-77314523D01*
X132825714Y-77314523D02*
X132778095Y-77409761D01*
X132778095Y-77409761D02*
X132682857Y-77505000D01*
X132682857Y-77505000D02*
X132540000Y-77552619D01*
X132540000Y-77552619D02*
X132301905Y-77552619D01*
X133778095Y-76552619D02*
X133301905Y-76552619D01*
X133301905Y-76552619D02*
X133254286Y-77028809D01*
X133254286Y-77028809D02*
X133301905Y-76981190D01*
X133301905Y-76981190D02*
X133397143Y-76933571D01*
X133397143Y-76933571D02*
X133635238Y-76933571D01*
X133635238Y-76933571D02*
X133730476Y-76981190D01*
X133730476Y-76981190D02*
X133778095Y-77028809D01*
X133778095Y-77028809D02*
X133825714Y-77124047D01*
X133825714Y-77124047D02*
X133825714Y-77362142D01*
X133825714Y-77362142D02*
X133778095Y-77457380D01*
X133778095Y-77457380D02*
X133730476Y-77505000D01*
X133730476Y-77505000D02*
X133635238Y-77552619D01*
X133635238Y-77552619D02*
X133397143Y-77552619D01*
X133397143Y-77552619D02*
X133301905Y-77505000D01*
X133301905Y-77505000D02*
X133254286Y-77457380D01*
%TO.C,D1*%
X50032619Y-83963094D02*
X49032619Y-83963094D01*
X49032619Y-83963094D02*
X49032619Y-83724999D01*
X49032619Y-83724999D02*
X49080238Y-83582142D01*
X49080238Y-83582142D02*
X49175476Y-83486904D01*
X49175476Y-83486904D02*
X49270714Y-83439285D01*
X49270714Y-83439285D02*
X49461190Y-83391666D01*
X49461190Y-83391666D02*
X49604047Y-83391666D01*
X49604047Y-83391666D02*
X49794523Y-83439285D01*
X49794523Y-83439285D02*
X49889761Y-83486904D01*
X49889761Y-83486904D02*
X49985000Y-83582142D01*
X49985000Y-83582142D02*
X50032619Y-83724999D01*
X50032619Y-83724999D02*
X50032619Y-83963094D01*
X50032619Y-82439285D02*
X50032619Y-83010713D01*
X50032619Y-82724999D02*
X49032619Y-82724999D01*
X49032619Y-82724999D02*
X49175476Y-82820237D01*
X49175476Y-82820237D02*
X49270714Y-82915475D01*
X49270714Y-82915475D02*
X49318333Y-83010713D01*
%TO.C,C34*%
X140549142Y-88944580D02*
X140501523Y-88992200D01*
X140501523Y-88992200D02*
X140358666Y-89039819D01*
X140358666Y-89039819D02*
X140263428Y-89039819D01*
X140263428Y-89039819D02*
X140120571Y-88992200D01*
X140120571Y-88992200D02*
X140025333Y-88896961D01*
X140025333Y-88896961D02*
X139977714Y-88801723D01*
X139977714Y-88801723D02*
X139930095Y-88611247D01*
X139930095Y-88611247D02*
X139930095Y-88468390D01*
X139930095Y-88468390D02*
X139977714Y-88277914D01*
X139977714Y-88277914D02*
X140025333Y-88182676D01*
X140025333Y-88182676D02*
X140120571Y-88087438D01*
X140120571Y-88087438D02*
X140263428Y-88039819D01*
X140263428Y-88039819D02*
X140358666Y-88039819D01*
X140358666Y-88039819D02*
X140501523Y-88087438D01*
X140501523Y-88087438D02*
X140549142Y-88135057D01*
X140882476Y-88039819D02*
X141501523Y-88039819D01*
X141501523Y-88039819D02*
X141168190Y-88420771D01*
X141168190Y-88420771D02*
X141311047Y-88420771D01*
X141311047Y-88420771D02*
X141406285Y-88468390D01*
X141406285Y-88468390D02*
X141453904Y-88516009D01*
X141453904Y-88516009D02*
X141501523Y-88611247D01*
X141501523Y-88611247D02*
X141501523Y-88849342D01*
X141501523Y-88849342D02*
X141453904Y-88944580D01*
X141453904Y-88944580D02*
X141406285Y-88992200D01*
X141406285Y-88992200D02*
X141311047Y-89039819D01*
X141311047Y-89039819D02*
X141025333Y-89039819D01*
X141025333Y-89039819D02*
X140930095Y-88992200D01*
X140930095Y-88992200D02*
X140882476Y-88944580D01*
X142358666Y-88373152D02*
X142358666Y-89039819D01*
X142120571Y-87992200D02*
X141882476Y-88706485D01*
X141882476Y-88706485D02*
X142501523Y-88706485D01*
D11*
%TO.C,C38*%
X90852164Y-75840000D02*
X91067836Y-75840000D01*
X90852164Y-76560000D02*
X91067836Y-76560000D01*
%TO.C,U5*%
X98060000Y-116550000D02*
X100060000Y-116550000D01*
X80140000Y-116300000D02*
X130680000Y-116300000D01*
X80140000Y-116300000D02*
X80140000Y-97060000D01*
X130680000Y-116300000D02*
X130680000Y-97060000D01*
X130680000Y-97060000D02*
X80140000Y-97060000D01*
%TO.C,C33*%
X141115664Y-85117100D02*
X141331336Y-85117100D01*
X141115664Y-85837100D02*
X141331336Y-85837100D01*
%TO.C,RN2*%
X105240000Y-65620000D02*
X103140000Y-65620000D01*
X105240000Y-70960000D02*
X103140000Y-70960000D01*
%TO.C,C40*%
X90946164Y-67241100D02*
X91161836Y-67241100D01*
X90946164Y-67961100D02*
X91161836Y-67961100D01*
%TO.C,C39*%
X90852164Y-63140000D02*
X91067836Y-63140000D01*
X90852164Y-63860000D02*
X91067836Y-63860000D01*
%TO.C,R59*%
X136133436Y-73892700D02*
X136587564Y-73892700D01*
X136133436Y-75362700D02*
X136587564Y-75362700D01*
D12*
%TO.C,S2*%
X121005000Y-78025000D02*
X127005000Y-78025000D01*
X121005000Y-84625000D02*
X127005000Y-84625000D01*
D11*
%TO.C,C37*%
X141178764Y-93984500D02*
X141394436Y-93984500D01*
X141178764Y-94704500D02*
X141394436Y-94704500D01*
%TO.C,R9*%
X24172936Y-67845000D02*
X24627064Y-67845000D01*
X24172936Y-69315000D02*
X24627064Y-69315000D01*
%TO.C,R60*%
X140840159Y-97639900D02*
X141147441Y-97639900D01*
X140840159Y-98399900D02*
X141147441Y-98399900D01*
%TO.C,C44*%
X97320664Y-73837100D02*
X97536336Y-73837100D01*
X97320664Y-74557100D02*
X97536336Y-74557100D01*
%TO.C,SW1*%
X143150000Y-115270000D02*
X147290000Y-115270000D01*
X143150000Y-115570000D02*
X143150000Y-115270000D01*
X143150000Y-118410000D02*
X143150000Y-118110000D01*
X147290000Y-115270000D02*
X147290000Y-115570000D01*
X147290000Y-118110000D02*
X147290000Y-118410000D01*
X147290000Y-118410000D02*
X143150000Y-118410000D01*
%TO.C,Q1*%
X51420000Y-77760000D02*
X53095000Y-77760000D01*
X51420000Y-77760000D02*
X50770000Y-77760000D01*
X51420000Y-74640000D02*
X52070000Y-74640000D01*
X51420000Y-74640000D02*
X50770000Y-74640000D01*
%TO.C,C42*%
X97084264Y-63248800D02*
X97299936Y-63248800D01*
X97084264Y-63968800D02*
X97299936Y-63968800D01*
D12*
%TO.C,J1*%
X169800000Y-21970000D02*
X175400000Y-21970000D01*
X164500000Y-21970000D02*
X166800000Y-21970000D01*
X164500000Y-21970000D02*
X164500000Y-25370000D01*
X164500000Y-31170000D02*
X164500000Y-27770000D01*
X164500000Y-31170000D02*
X175400000Y-31170000D01*
D11*
%TO.C,R58*%
X133987536Y-68528100D02*
X134441664Y-68528100D01*
X133987536Y-69998100D02*
X134441664Y-69998100D01*
%TO.C,SW3*%
X160625000Y-101790000D02*
X160625000Y-103173000D01*
X160625000Y-101790000D02*
X162008000Y-101790000D01*
X160865000Y-102030000D02*
X160865000Y-103340000D01*
X160865000Y-102030000D02*
X167685000Y-102030000D01*
X160865000Y-104940000D02*
X160865000Y-106250000D01*
X160865000Y-106250000D02*
X167685000Y-106250000D01*
X162465000Y-103505000D02*
X162465000Y-104775000D01*
X162465000Y-103625000D02*
X163671667Y-103625000D01*
X162465000Y-103745000D02*
X163671667Y-103745000D01*
X162465000Y-103865000D02*
X163671667Y-103865000D01*
X162465000Y-103985000D02*
X163671667Y-103985000D01*
X162465000Y-104105000D02*
X163671667Y-104105000D01*
X162465000Y-104225000D02*
X163671667Y-104225000D01*
X162465000Y-104345000D02*
X163671667Y-104345000D01*
X162465000Y-104465000D02*
X163671667Y-104465000D01*
X162465000Y-104585000D02*
X163671667Y-104585000D01*
X162465000Y-104705000D02*
X163671667Y-104705000D01*
X162465000Y-104775000D02*
X166085000Y-104775000D01*
X163671667Y-103505000D02*
X163671667Y-104775000D01*
X166085000Y-103505000D02*
X162465000Y-103505000D01*
X166085000Y-104775000D02*
X166085000Y-103505000D01*
X167685000Y-102030000D02*
X167685000Y-103340000D01*
X167685000Y-104940000D02*
X167685000Y-106250000D01*
D12*
%TO.C,S3*%
X121005000Y-85825000D02*
X127005000Y-85825000D01*
X121005000Y-92425000D02*
X127005000Y-92425000D01*
D11*
%TO.C,R16*%
X156252936Y-85625000D02*
X156707064Y-85625000D01*
X156252936Y-87095000D02*
X156707064Y-87095000D01*
%TO.C,SW4*%
X160625000Y-114490000D02*
X160625000Y-115873000D01*
X160625000Y-114490000D02*
X162008000Y-114490000D01*
X160865000Y-114730000D02*
X160865000Y-116040000D01*
X160865000Y-114730000D02*
X167685000Y-114730000D01*
X160865000Y-117640000D02*
X160865000Y-118950000D01*
X160865000Y-118950000D02*
X167685000Y-118950000D01*
X162465000Y-116205000D02*
X162465000Y-117475000D01*
X162465000Y-116325000D02*
X163671667Y-116325000D01*
X162465000Y-116445000D02*
X163671667Y-116445000D01*
X162465000Y-116565000D02*
X163671667Y-116565000D01*
X162465000Y-116685000D02*
X163671667Y-116685000D01*
X162465000Y-116805000D02*
X163671667Y-116805000D01*
X162465000Y-116925000D02*
X163671667Y-116925000D01*
X162465000Y-117045000D02*
X163671667Y-117045000D01*
X162465000Y-117165000D02*
X163671667Y-117165000D01*
X162465000Y-117285000D02*
X163671667Y-117285000D01*
X162465000Y-117405000D02*
X163671667Y-117405000D01*
X162465000Y-117475000D02*
X166085000Y-117475000D01*
X163671667Y-116205000D02*
X163671667Y-117475000D01*
X166085000Y-116205000D02*
X162465000Y-116205000D01*
X166085000Y-117475000D02*
X166085000Y-116205000D01*
X167685000Y-114730000D02*
X167685000Y-116040000D01*
X167685000Y-117640000D02*
X167685000Y-118950000D01*
%TO.C,R17*%
X156252936Y-90705000D02*
X156707064Y-90705000D01*
X156252936Y-92175000D02*
X156707064Y-92175000D01*
%TO.C,U4*%
X39640000Y-116550000D02*
X41640000Y-116550000D01*
X21720000Y-116300000D02*
X72260000Y-116300000D01*
X21720000Y-116300000D02*
X21720000Y-97060000D01*
X72260000Y-116300000D02*
X72260000Y-97060000D01*
X72260000Y-97060000D02*
X21720000Y-97060000D01*
%TO.C,SW2*%
X154910000Y-118410000D02*
X150770000Y-118410000D01*
X154910000Y-118110000D02*
X154910000Y-118410000D01*
X154910000Y-115270000D02*
X154910000Y-115570000D01*
X150770000Y-118410000D02*
X150770000Y-118110000D01*
X150770000Y-115570000D02*
X150770000Y-115270000D01*
X150770000Y-115270000D02*
X154910000Y-115270000D01*
%TO.C,C41*%
X90852164Y-71080000D02*
X91067836Y-71080000D01*
X90852164Y-71800000D02*
X91067836Y-71800000D01*
%TO.C,C32*%
X141652164Y-80920000D02*
X141867836Y-80920000D01*
X141652164Y-81640000D02*
X141867836Y-81640000D01*
%TO.C,Q2*%
X128350000Y-69070000D02*
X126675000Y-69070000D01*
X128350000Y-69070000D02*
X129000000Y-69070000D01*
X128350000Y-72190000D02*
X127700000Y-72190000D01*
X128350000Y-72190000D02*
X129000000Y-72190000D01*
%TO.C,C43*%
X97446864Y-67588900D02*
X97662536Y-67588900D01*
X97446864Y-68308900D02*
X97662536Y-68308900D01*
%TO.C,U2*%
X109270000Y-76010000D02*
X109270000Y-61790000D01*
X110270000Y-60790000D02*
X124490000Y-60790000D01*
X124490000Y-60790000D02*
X124490000Y-76010000D01*
X124490000Y-76010000D02*
X109270000Y-76010000D01*
%TO.C,J2*%
X57215000Y-34660000D02*
X58470000Y-34660000D01*
X58470000Y-34360000D02*
X58470000Y-34660000D01*
X58470000Y-34360000D02*
X62590000Y-34360000D01*
X58470000Y-36180000D02*
X58470000Y-36660000D01*
X58470000Y-38180000D02*
X58470000Y-38660000D01*
X58470000Y-40180000D02*
X58470000Y-40660000D01*
X58470000Y-42180000D02*
X58470000Y-42660000D01*
X58470000Y-44180000D02*
X58470000Y-44660000D01*
X58470000Y-46180000D02*
X58470000Y-46660000D01*
X58470000Y-48180000D02*
X58470000Y-48480000D01*
X58470000Y-48480000D02*
X62590000Y-48480000D01*
X62590000Y-34360000D02*
X62590000Y-34660000D01*
X62590000Y-36180000D02*
X62590000Y-36660000D01*
X62590000Y-38180000D02*
X62590000Y-38660000D01*
X62590000Y-40180000D02*
X62590000Y-40660000D01*
X62590000Y-42180000D02*
X62590000Y-42660000D01*
X62590000Y-44180000D02*
X62590000Y-44660000D01*
X62590000Y-46180000D02*
X62590000Y-46660000D01*
X62590000Y-48180000D02*
X62590000Y-48480000D01*
%TO.C,R8*%
X23252936Y-82155000D02*
X23707064Y-82155000D01*
X23252936Y-83625000D02*
X23707064Y-83625000D01*
%TO.C,X1*%
X141065000Y-65015000D02*
X141065000Y-69265000D01*
X141065000Y-69265000D02*
X146165000Y-69265000D01*
%TO.C,D5*%
X131355000Y-77780000D02*
X131355000Y-79700000D01*
X131355000Y-79700000D02*
X134040000Y-79700000D01*
X134040000Y-77780000D02*
X131355000Y-77780000D01*
%TO.C,D1*%
X50260000Y-84910000D02*
X52180000Y-84910000D01*
X52180000Y-84910000D02*
X52180000Y-82225000D01*
X50260000Y-82225000D02*
X50260000Y-84910000D01*
%TO.C,C34*%
X141084164Y-89377200D02*
X141299836Y-89377200D01*
X141084164Y-90097200D02*
X141299836Y-90097200D01*
%TD*%
M02*
