%TF.GenerationSoftware,KiCad,Pcbnew,7.0.2*%
%TF.CreationDate,2023-07-10T01:25:34+02:00*%
%TF.ProjectId,FPGA_V2,46504741-5f56-4322-9e6b-696361645f70,rev?*%
%TF.SameCoordinates,Original*%
%TF.FileFunction,Copper,L2,Bot*%
%TF.FilePolarity,Positive*%
%FSLAX46Y46*%
G04 Gerber Fmt 4.6, Leading zero omitted, Abs format (unit mm)*
G04 Created by KiCad (PCBNEW 7.0.2) date 2023-07-10 01:25:34*
%MOMM*%
%LPD*%
G01*
G04 APERTURE LIST*
G04 Aperture macros list*
%AMRoundRect*
0 Rectangle with rounded corners*
0 $1 Rounding radius*
0 $2 $3 $4 $5 $6 $7 $8 $9 X,Y pos of 4 corners*
0 Add a 4 corners polygon primitive as box body*
4,1,4,$2,$3,$4,$5,$6,$7,$8,$9,$2,$3,0*
0 Add four circle primitives for the rounded corners*
1,1,$1+$1,$2,$3*
1,1,$1+$1,$4,$5*
1,1,$1+$1,$6,$7*
1,1,$1+$1,$8,$9*
0 Add four rect primitives between the rounded corners*
20,1,$1+$1,$2,$3,$4,$5,0*
20,1,$1+$1,$4,$5,$6,$7,0*
20,1,$1+$1,$6,$7,$8,$9,0*
20,1,$1+$1,$8,$9,$2,$3,0*%
G04 Aperture macros list end*
%TA.AperFunction,ComponentPad*%
%ADD10R,1.500000X1.500000*%
%TD*%
%TA.AperFunction,ComponentPad*%
%ADD11C,1.500000*%
%TD*%
%TA.AperFunction,ComponentPad*%
%ADD12O,2.000000X2.600000*%
%TD*%
%TA.AperFunction,ComponentPad*%
%ADD13O,2.600000X2.000000*%
%TD*%
%TA.AperFunction,SMDPad,CuDef*%
%ADD14RoundRect,0.250000X0.475000X-0.250000X0.475000X0.250000X-0.475000X0.250000X-0.475000X-0.250000X0*%
%TD*%
%TA.AperFunction,SMDPad,CuDef*%
%ADD15RoundRect,0.250000X0.250000X0.475000X-0.250000X0.475000X-0.250000X-0.475000X0.250000X-0.475000X0*%
%TD*%
%TA.AperFunction,SMDPad,CuDef*%
%ADD16R,0.900000X0.900000*%
%TD*%
%TA.AperFunction,SMDPad,CuDef*%
%ADD17RoundRect,0.250000X0.350000X0.450000X-0.350000X0.450000X-0.350000X-0.450000X0.350000X-0.450000X0*%
%TD*%
%TA.AperFunction,SMDPad,CuDef*%
%ADD18RoundRect,0.250000X-0.450000X0.350000X-0.450000X-0.350000X0.450000X-0.350000X0.450000X0.350000X0*%
%TD*%
%TA.AperFunction,SMDPad,CuDef*%
%ADD19RoundRect,0.140000X-0.170000X0.140000X-0.170000X-0.140000X0.170000X-0.140000X0.170000X0.140000X0*%
%TD*%
%TA.AperFunction,SMDPad,CuDef*%
%ADD20RoundRect,0.250000X-0.475000X0.250000X-0.475000X-0.250000X0.475000X-0.250000X0.475000X0.250000X0*%
%TD*%
%TA.AperFunction,SMDPad,CuDef*%
%ADD21RoundRect,0.250000X0.450000X-0.350000X0.450000X0.350000X-0.450000X0.350000X-0.450000X-0.350000X0*%
%TD*%
%TA.AperFunction,SMDPad,CuDef*%
%ADD22RoundRect,0.150000X-0.150000X0.650000X-0.150000X-0.650000X0.150000X-0.650000X0.150000X0.650000X0*%
%TD*%
%TA.AperFunction,SMDPad,CuDef*%
%ADD23RoundRect,0.140000X0.170000X-0.140000X0.170000X0.140000X-0.170000X0.140000X-0.170000X-0.140000X0*%
%TD*%
%TA.AperFunction,SMDPad,CuDef*%
%ADD24RoundRect,0.140000X-0.140000X-0.170000X0.140000X-0.170000X0.140000X0.170000X-0.140000X0.170000X0*%
%TD*%
%TA.AperFunction,SMDPad,CuDef*%
%ADD25R,1.461999X0.354800*%
%TD*%
%TA.AperFunction,SMDPad,CuDef*%
%ADD26R,2.400000X3.400001*%
%TD*%
%TA.AperFunction,SMDPad,CuDef*%
%ADD27R,2.400000X4.200000*%
%TD*%
%TA.AperFunction,SMDPad,CuDef*%
%ADD28R,1.600000X1.400000*%
%TD*%
%TA.AperFunction,ViaPad*%
%ADD29C,0.800000*%
%TD*%
%TA.AperFunction,Conductor*%
%ADD30C,0.250000*%
%TD*%
G04 APERTURE END LIST*
%TA.AperFunction,EtchedComponent*%
%TO.C,U1*%
G36*
X23435000Y-32215000D02*
G01*
X23135000Y-32215000D01*
X23135000Y-31915000D01*
X23435000Y-31915000D01*
X23435000Y-32215000D01*
G37*
%TD.AperFunction*%
%TA.AperFunction,EtchedComponent*%
G36*
X23435000Y-28515000D02*
G01*
X23135000Y-28515000D01*
X23135000Y-28215000D01*
X23435000Y-28215000D01*
X23435000Y-28515000D01*
G37*
%TD.AperFunction*%
%TA.AperFunction,EtchedComponent*%
G36*
X22585000Y-32215000D02*
G01*
X22285000Y-32215000D01*
X22285000Y-31915000D01*
X22585000Y-31915000D01*
X22585000Y-32215000D01*
G37*
%TD.AperFunction*%
%TA.AperFunction,EtchedComponent*%
G36*
X22585000Y-28515000D02*
G01*
X22285000Y-28515000D01*
X22285000Y-28215000D01*
X22585000Y-28215000D01*
X22585000Y-28515000D01*
G37*
%TD.AperFunction*%
%TD*%
D10*
%TO.P,U5,1,e*%
%TO.N,/IO/DE*%
X99060000Y-114300000D03*
D11*
%TO.P,U5,2,d*%
%TO.N,/IO/DD*%
X101600000Y-114300000D03*
%TO.P,U5,3,DPX*%
%TO.N,/IO/DP*%
X104140000Y-114300000D03*
%TO.P,U5,4,c*%
%TO.N,/IO/DC*%
X106680000Y-114300000D03*
%TO.P,U5,5,g*%
%TO.N,/IO/DG*%
X109220000Y-114300000D03*
%TO.P,U5,6,CA4*%
%TO.N,/IO/AN7*%
X111760000Y-114300000D03*
%TO.P,U5,7,b*%
%TO.N,/IO/DB*%
X111760000Y-99060000D03*
%TO.P,U5,8,CA3*%
%TO.N,/IO/AN6*%
X109220000Y-99060000D03*
%TO.P,U5,9,CA2*%
%TO.N,/IO/AN5*%
X106680000Y-99060000D03*
%TO.P,U5,10,f*%
%TO.N,/IO/DF*%
X104140000Y-99060000D03*
%TO.P,U5,11,a*%
%TO.N,/IO/DA*%
X101600000Y-99060000D03*
%TO.P,U5,12,CA1*%
%TO.N,/IO/AN4*%
X99060000Y-99060000D03*
%TD*%
D12*
%TO.P,J1,1*%
%TO.N,+12V*%
X165300000Y-26570000D03*
%TO.P,J1,2*%
%TO.N,GND*%
X171300000Y-26570000D03*
D13*
%TO.P,J1,3*%
%TO.N,unconnected-(J1-Pad3)*%
X168300000Y-21870000D03*
%TD*%
D10*
%TO.P,U4,1,e*%
%TO.N,/IO/DE*%
X40640000Y-114300000D03*
D11*
%TO.P,U4,2,d*%
%TO.N,/IO/DD*%
X43180000Y-114300000D03*
%TO.P,U4,3,DPX*%
%TO.N,/IO/DP*%
X45720000Y-114300000D03*
%TO.P,U4,4,c*%
%TO.N,/IO/DC*%
X48260000Y-114300000D03*
%TO.P,U4,5,g*%
%TO.N,/IO/DG*%
X50800000Y-114300000D03*
%TO.P,U4,6,CA4*%
%TO.N,/IO/AN3*%
X53340000Y-114300000D03*
%TO.P,U4,7,b*%
%TO.N,/IO/DB*%
X53340000Y-99060000D03*
%TO.P,U4,8,CA3*%
%TO.N,/IO/AN2*%
X50800000Y-99060000D03*
%TO.P,U4,9,CA2*%
%TO.N,/IO/AN1*%
X48260000Y-99060000D03*
%TO.P,U4,10,f*%
%TO.N,/IO/DF*%
X45720000Y-99060000D03*
%TO.P,U4,11,a*%
%TO.N,/IO/DA*%
X43180000Y-99060000D03*
%TO.P,U4,12,CA1*%
%TO.N,/IO/AN0*%
X40640000Y-99060000D03*
%TD*%
D14*
%TO.P,C17,1*%
%TO.N,+1V0*%
X126530000Y-47620000D03*
%TO.P,C17,2*%
%TO.N,GND*%
X126530000Y-45720000D03*
%TD*%
D15*
%TO.P,C24,1*%
%TO.N,+1V0*%
X35520000Y-55880000D03*
%TO.P,C24,2*%
%TO.N,GND*%
X33620000Y-55880000D03*
%TD*%
D16*
%TO.P,RN1,1,R1.1*%
%TO.N,/Utilities/JTAG_TMS*%
X70580000Y-36850000D03*
%TO.P,RN1,2,R2.1*%
%TO.N,/Utilities/JTAG_TCK*%
X70580000Y-38190000D03*
%TO.P,RN1,3,R3.1*%
%TO.N,/Utilities/JTAG_TDO*%
X70580000Y-39510000D03*
%TO.P,RN1,4,R4.1*%
%TO.N,/Utilities/JTAG_TDI*%
X70580000Y-40850000D03*
%TO.P,RN1,5,R4.2*%
%TO.N,+3V3*%
X67580000Y-40850000D03*
%TO.P,RN1,6,R3.2*%
X67580000Y-39510000D03*
%TO.P,RN1,7,R2.2*%
X67580000Y-38190000D03*
%TO.P,RN1,8,R1.2*%
X67580000Y-36850000D03*
%TD*%
D17*
%TO.P,R33,1*%
%TO.N,/IO/SPI_SCLK*%
X144240000Y-73660000D03*
%TO.P,R33,2*%
%TO.N,SPI_F_SCLK*%
X142240000Y-73660000D03*
%TD*%
D14*
%TO.P,C10,1*%
%TO.N,+1V0*%
X126530000Y-52700000D03*
%TO.P,C10,2*%
%TO.N,GND*%
X126530000Y-50800000D03*
%TD*%
D18*
%TO.P,R28,1*%
%TO.N,/IO/SPI_DQ2*%
X70570000Y-84347600D03*
%TO.P,R28,2*%
%TO.N,+3V3*%
X70570000Y-86347600D03*
%TD*%
D19*
%TO.P,C36,1*%
%TO.N,+3V3*%
X77370000Y-74497600D03*
%TO.P,C36,2*%
%TO.N,GND*%
X77370000Y-75457600D03*
%TD*%
D18*
%TO.P,R75,1*%
%TO.N,/IO/DC*%
X106680000Y-118035000D03*
%TO.P,R75,2*%
%TO.N,Net-(U2C-IO_L7P_T1_D09_14)*%
X106680000Y-120035000D03*
%TD*%
D20*
%TO.P,C4,1*%
%TO.N,+1V8*%
X131670000Y-56920000D03*
%TO.P,C4,2*%
%TO.N,GND*%
X131670000Y-58820000D03*
%TD*%
D14*
%TO.P,C16,1*%
%TO.N,+1V0*%
X130992900Y-47614400D03*
%TO.P,C16,2*%
%TO.N,GND*%
X130992900Y-45714400D03*
%TD*%
D21*
%TO.P,R77,1*%
%TO.N,/IO/DA*%
X105966900Y-94099600D03*
%TO.P,R77,2*%
%TO.N,Net-(U2C-IO_L6P_T0_FCS_B_14)*%
X105966900Y-92099600D03*
%TD*%
D18*
%TO.P,R81,1*%
%TO.N,/IO/SW2*%
X152400000Y-55880000D03*
%TO.P,R81,2*%
%TO.N,Net-(U2C-IO_L16N_T2_D31_14)*%
X152400000Y-57880000D03*
%TD*%
%TO.P,R78,1*%
%TO.N,/IO/PS1*%
X142240000Y-55880000D03*
%TO.P,R78,2*%
%TO.N,Net-(U2C-IO_L15P_T2_DQS_RDWR_B_14)*%
X142240000Y-57880000D03*
%TD*%
D17*
%TO.P,R6,1*%
%TO.N,+1V0*%
X49070000Y-50640000D03*
%TO.P,R6,2*%
%TO.N,Net-(U1-VFB2)*%
X47070000Y-50640000D03*
%TD*%
D21*
%TO.P,R76,1*%
%TO.N,/IO/DB*%
X40640000Y-92785000D03*
%TO.P,R76,2*%
%TO.N,Net-(U2C-IO_L6N_T0_D08_VREF_14)*%
X40640000Y-90785000D03*
%TD*%
D15*
%TO.P,C21,1*%
%TO.N,+3V3*%
X40640000Y-60960000D03*
%TO.P,C21,2*%
%TO.N,GND*%
X38740000Y-60960000D03*
%TD*%
%TO.P,C27,1*%
%TO.N,+1V0*%
X35560000Y-66040000D03*
%TO.P,C27,2*%
%TO.N,GND*%
X33660000Y-66040000D03*
%TD*%
D14*
%TO.P,C11,1*%
%TO.N,+1V0*%
X121920000Y-52700000D03*
%TO.P,C11,2*%
%TO.N,GND*%
X121920000Y-50800000D03*
%TD*%
D18*
%TO.P,R73,1*%
%TO.N,/IO/DE*%
X55880000Y-119375400D03*
%TO.P,R73,2*%
%TO.N,Net-(U2C-IO_L8P_T1_D11_14)*%
X55880000Y-121375400D03*
%TD*%
D22*
%TO.P,U3,1,~{CS}*%
%TO.N,/IO/SPI_CS*%
X69095000Y-75117600D03*
%TO.P,U3,2,DQ1*%
%TO.N,/IO/SPI_DQ1*%
X70365000Y-75117600D03*
%TO.P,U3,3,DQ2/~{WP}*%
%TO.N,/IO/SPI_DQ2*%
X71635000Y-75117600D03*
%TO.P,U3,4,VSS*%
%TO.N,GND*%
X72905000Y-75117600D03*
%TO.P,U3,5,DQ0*%
%TO.N,/IO/SPI_DQ0*%
X72905000Y-82317600D03*
%TO.P,U3,6,CLK*%
%TO.N,/IO/SPI_SCLK*%
X71635000Y-82317600D03*
%TO.P,U3,7,DQ3/~{HOLD}*%
%TO.N,/IO/SPI_DQ3*%
X70365000Y-82317600D03*
%TO.P,U3,8,VCC*%
%TO.N,+3V3*%
X69095000Y-82317600D03*
%TD*%
D18*
%TO.P,R74,1*%
%TO.N,/IO/DD*%
X111760000Y-119380000D03*
%TO.P,R74,2*%
%TO.N,Net-(U2C-IO_L7N_T1_D10_14)*%
X111760000Y-121380000D03*
%TD*%
D19*
%TO.P,C1,1*%
%TO.N,+1V8*%
X135190000Y-50800000D03*
%TO.P,C1,2*%
%TO.N,GND*%
X135190000Y-51760000D03*
%TD*%
D21*
%TO.P,R70,1*%
%TO.N,/IO/DP*%
X51087800Y-121380000D03*
%TO.P,R70,2*%
%TO.N,Net-(U2C-IO_L9N_T1_DQS_D13_14)*%
X51087800Y-119380000D03*
%TD*%
D17*
%TO.P,R5,1*%
%TO.N,+1V8*%
X49070000Y-47690000D03*
%TO.P,R5,2*%
%TO.N,Net-(U1-VFB1)*%
X47070000Y-47690000D03*
%TD*%
D21*
%TO.P,R69,1*%
%TO.N,/IO/AN0*%
X60960000Y-92440000D03*
%TO.P,R69,2*%
%TO.N,Net-(U2C-IO_L10N_T1_D15_14)*%
X60960000Y-90440000D03*
%TD*%
%TO.P,R67,1*%
%TO.N,/IO/AN2*%
X46125000Y-92535400D03*
%TO.P,R67,2*%
%TO.N,Net-(U2C-IO_L11N_T1_SRCC_14)*%
X46125000Y-90535400D03*
%TD*%
D23*
%TO.P,C31,1*%
%TO.N,+1V0*%
X106100000Y-53016200D03*
%TO.P,C31,2*%
%TO.N,GND*%
X106100000Y-52056200D03*
%TD*%
D18*
%TO.P,R34,1*%
%TO.N,/IO/AN7*%
X101600000Y-119292500D03*
%TO.P,R34,2*%
%TO.N,Net-(U2C-IO_L14P_T2_SRCC_14)*%
X101600000Y-121292500D03*
%TD*%
D17*
%TO.P,R7,1*%
%TO.N,+3V3*%
X49070000Y-53590000D03*
%TO.P,R7,2*%
%TO.N,Net-(U1-VFB3)*%
X47070000Y-53590000D03*
%TD*%
D23*
%TO.P,C12,1*%
%TO.N,Net-(U1-VREG5)*%
X31441500Y-21989100D03*
%TO.P,C12,2*%
%TO.N,GND*%
X31441500Y-21029100D03*
%TD*%
D19*
%TO.P,C35,1*%
%TO.N,+3V3*%
X75400000Y-74497600D03*
%TO.P,C35,2*%
%TO.N,GND*%
X75400000Y-75457600D03*
%TD*%
D24*
%TO.P,C13,1*%
%TO.N,/Power/SW1*%
X48530000Y-60960000D03*
%TO.P,C13,2*%
%TO.N,Net-(U1-VBST1)*%
X49490000Y-60960000D03*
%TD*%
D20*
%TO.P,C5,1*%
%TO.N,+1V8*%
X134680000Y-56920000D03*
%TO.P,C5,2*%
%TO.N,GND*%
X134680000Y-58820000D03*
%TD*%
D14*
%TO.P,C18,1*%
%TO.N,+1V0*%
X121920000Y-47620000D03*
%TO.P,C18,2*%
%TO.N,GND*%
X121920000Y-45720000D03*
%TD*%
D15*
%TO.P,C23,1*%
%TO.N,+1V8*%
X39970000Y-66040000D03*
%TO.P,C23,2*%
%TO.N,GND*%
X38070000Y-66040000D03*
%TD*%
D18*
%TO.P,R71,1*%
%TO.N,/IO/DG*%
X46007800Y-119380000D03*
%TO.P,R71,2*%
%TO.N,Net-(U2C-IO_L9P_T1_DQS_14)*%
X46007800Y-121380000D03*
%TD*%
D24*
%TO.P,C14,1*%
%TO.N,/Power/SW2*%
X54920000Y-66040000D03*
%TO.P,C14,2*%
%TO.N,Net-(U1-VBST2)*%
X55880000Y-66040000D03*
%TD*%
D18*
%TO.P,R29,1*%
%TO.N,/IO/SPI_CS*%
X72560000Y-84347600D03*
%TO.P,R29,2*%
%TO.N,+3V3*%
X72560000Y-86347600D03*
%TD*%
D21*
%TO.P,R64,1*%
%TO.N,/IO/AN5*%
X100463000Y-94355500D03*
%TO.P,R64,2*%
%TO.N,Net-(U2C-IO_L13P_T2_MRCC_14)*%
X100463000Y-92355500D03*
%TD*%
D19*
%TO.P,C30,1*%
%TO.N,+1V0*%
X139130000Y-53670000D03*
%TO.P,C30,2*%
%TO.N,GND*%
X139130000Y-54630000D03*
%TD*%
%TO.P,C3,1*%
%TO.N,+1V0*%
X131008400Y-50689200D03*
%TO.P,C3,2*%
%TO.N,GND*%
X131008400Y-51649200D03*
%TD*%
D20*
%TO.P,C8,1*%
%TO.N,+12V*%
X40640000Y-26104900D03*
%TO.P,C8,2*%
%TO.N,GND*%
X40640000Y-28004900D03*
%TD*%
D21*
%TO.P,R68,1*%
%TO.N,/IO/AN1*%
X50800000Y-92440000D03*
%TO.P,R68,2*%
%TO.N,Net-(U2C-IO_L11P_T1_SRCC_14)*%
X50800000Y-90440000D03*
%TD*%
D19*
%TO.P,C29,1*%
%TO.N,+1V8*%
X137160000Y-53670000D03*
%TO.P,C29,2*%
%TO.N,GND*%
X137160000Y-54630000D03*
%TD*%
D18*
%TO.P,R80,1*%
%TO.N,/IO/SW1*%
X157480000Y-55880000D03*
%TO.P,R80,2*%
%TO.N,Net-(U2C-IO_L16P_T2_CSI_B_14)*%
X157480000Y-57880000D03*
%TD*%
D23*
%TO.P,C22,1*%
%TO.N,+1V0*%
X108070000Y-55886200D03*
%TO.P,C22,2*%
%TO.N,GND*%
X108070000Y-54926200D03*
%TD*%
D18*
%TO.P,R66,1*%
%TO.N,/IO/AN3*%
X40927800Y-119380000D03*
%TO.P,R66,2*%
%TO.N,Net-(U2C-IO_L12P_T1_MRCC_14)*%
X40927800Y-121380000D03*
%TD*%
D20*
%TO.P,C7,1*%
%TO.N,+12V*%
X35780000Y-26104900D03*
%TO.P,C7,2*%
%TO.N,GND*%
X35780000Y-28004900D03*
%TD*%
%TO.P,C6,1*%
%TO.N,+1V0*%
X128660000Y-61370000D03*
%TO.P,C6,2*%
%TO.N,GND*%
X128660000Y-63270000D03*
%TD*%
D17*
%TO.P,R3,1*%
%TO.N,Net-(U1-VFB2)*%
X49070000Y-41790000D03*
%TO.P,R3,2*%
%TO.N,GND*%
X47070000Y-41790000D03*
%TD*%
D25*
%TO.P,U1,1,VIN*%
%TO.N,+12V*%
X25781000Y-27289949D03*
%TO.P,U1,2,VIN*%
X25781000Y-27939960D03*
%TO.P,U1,3,VBST1*%
%TO.N,Net-(U1-VBST1)*%
X25781000Y-28589972D03*
%TO.P,U1,4,SW1*%
%TO.N,/Power/SW1*%
X25781000Y-29239983D03*
%TO.P,U1,5,PGND1*%
%TO.N,GND*%
X25781000Y-29889994D03*
%TO.P,U1,6,VREG5*%
%TO.N,Net-(U1-VREG5)*%
X25781000Y-30540006D03*
%TO.P,U1,7,PG*%
%TO.N,/Power/PGOOD*%
X25781000Y-31190017D03*
%TO.P,U1,8,EN1*%
%TO.N,Net-(U1-EN1)*%
X25781000Y-31840028D03*
%TO.P,U1,9,VFB1*%
%TO.N,Net-(U1-VFB1)*%
X25781000Y-32490040D03*
%TO.P,U1,10,GND*%
%TO.N,GND*%
X25781000Y-33140051D03*
%TO.P,U1,11,VFB2*%
%TO.N,Net-(U1-VFB2)*%
X19939000Y-33140051D03*
%TO.P,U1,12,VFB3*%
%TO.N,Net-(U1-VFB3)*%
X19939000Y-32490040D03*
%TO.P,U1,13,EN3*%
%TO.N,Net-(U1-EN1)*%
X19939000Y-31840028D03*
%TO.P,U1,14,VBST3*%
%TO.N,Net-(U1-VBST3)*%
X19939000Y-31190017D03*
%TO.P,U1,15,SW3*%
%TO.N,/Power/SW3*%
X19939000Y-30540006D03*
%TO.P,U1,16,PGND3*%
%TO.N,GND*%
X19939000Y-29889994D03*
%TO.P,U1,17,EN2*%
%TO.N,Net-(U1-EN1)*%
X19939000Y-29239983D03*
%TO.P,U1,18,PGND2*%
%TO.N,GND*%
X19939000Y-28589972D03*
%TO.P,U1,19,SW2*%
%TO.N,/Power/SW2*%
X19939000Y-27939960D03*
%TO.P,U1,20,VBST2*%
%TO.N,Net-(U1-VBST2)*%
X19939000Y-27289949D03*
D26*
%TO.P,U1,21,PAD*%
%TO.N,GND*%
X22860000Y-30215000D03*
%TD*%
D17*
%TO.P,R2,1*%
%TO.N,Net-(U1-VFB1)*%
X49070000Y-38840000D03*
%TO.P,R2,2*%
%TO.N,GND*%
X47070000Y-38840000D03*
%TD*%
%TO.P,R63,1*%
%TO.N,/IO/AN6*%
X95980000Y-93980000D03*
%TO.P,R63,2*%
%TO.N,Net-(U2C-IO_L13N_T2_MRCC_14)*%
X93980000Y-93980000D03*
%TD*%
D15*
%TO.P,C25,1*%
%TO.N,+3V3*%
X35520000Y-60960000D03*
%TO.P,C25,2*%
%TO.N,GND*%
X33620000Y-60960000D03*
%TD*%
D17*
%TO.P,R4,1*%
%TO.N,Net-(U1-VFB3)*%
X49070000Y-44740000D03*
%TO.P,R4,2*%
%TO.N,GND*%
X47070000Y-44740000D03*
%TD*%
D18*
%TO.P,R27,1*%
%TO.N,/IO/SPI_DQ3*%
X68580000Y-84347600D03*
%TO.P,R27,2*%
%TO.N,+3V3*%
X68580000Y-86347600D03*
%TD*%
D27*
%TO.P,L2,1,1*%
%TO.N,/Power/SW2*%
X24820000Y-47190000D03*
%TO.P,L2,2,2*%
%TO.N,+1V0*%
X20320000Y-47190000D03*
%TD*%
D18*
%TO.P,R79,1*%
%TO.N,/IO/PS2*%
X145190000Y-55880000D03*
%TO.P,R79,2*%
%TO.N,Net-(U2C-IO_L15N_T2_DQS_DOUT_CSO_B_14)*%
X145190000Y-57880000D03*
%TD*%
D24*
%TO.P,C15,1*%
%TO.N,/Power/SW3*%
X49840000Y-68580000D03*
%TO.P,C15,2*%
%TO.N,Net-(U1-VBST3)*%
X50800000Y-68580000D03*
%TD*%
D21*
%TO.P,R72,1*%
%TO.N,/IO/DF*%
X55880000Y-92508300D03*
%TO.P,R72,2*%
%TO.N,Net-(U2C-IO_L8N_T1_D12_14)*%
X55880000Y-90508300D03*
%TD*%
D23*
%TO.P,C26,1*%
%TO.N,+1V0*%
X106100000Y-55886200D03*
%TO.P,C26,2*%
%TO.N,GND*%
X106100000Y-54926200D03*
%TD*%
D15*
%TO.P,C19,1*%
%TO.N,+1V8*%
X44420000Y-66040000D03*
%TO.P,C19,2*%
%TO.N,GND*%
X42520000Y-66040000D03*
%TD*%
D27*
%TO.P,L1,1,1*%
%TO.N,/Power/SW1*%
X24820000Y-38100000D03*
%TO.P,L1,2,2*%
%TO.N,+1V8*%
X20320000Y-38100000D03*
%TD*%
D20*
%TO.P,C2,1*%
%TO.N,+1V8*%
X128660000Y-56920000D03*
%TO.P,C2,2*%
%TO.N,GND*%
X128660000Y-58820000D03*
%TD*%
D21*
%TO.P,R1,1*%
%TO.N,Net-(U1-EN1)*%
X45720000Y-22534900D03*
%TO.P,R1,2*%
%TO.N,+12V*%
X45720000Y-20534900D03*
%TD*%
D28*
%TO.P,S1,1,1*%
%TO.N,GND*%
X42175000Y-38390000D03*
%TO.P,S1,2,2*%
X34175000Y-38390000D03*
%TO.P,S1,3,3*%
%TO.N,Net-(U1-EN1)*%
X34175000Y-42890000D03*
%TO.P,S1,4,4*%
X42175000Y-42890000D03*
%TD*%
D15*
%TO.P,C20,1*%
%TO.N,+1V0*%
X40640000Y-55880000D03*
%TO.P,C20,2*%
%TO.N,GND*%
X38740000Y-55880000D03*
%TD*%
D27*
%TO.P,L3,1,1*%
%TO.N,/Power/SW3*%
X24820000Y-55880000D03*
%TO.P,L3,2,2*%
%TO.N,+3V3*%
X20320000Y-55880000D03*
%TD*%
D21*
%TO.P,R65,1*%
%TO.N,/IO/AN4*%
X111397400Y-94118800D03*
%TO.P,R65,2*%
%TO.N,Net-(U2C-IO_L12N_T1_MRCC_14)*%
X111397400Y-92118800D03*
%TD*%
D19*
%TO.P,C9,1*%
%TO.N,+12V*%
X35860000Y-21034900D03*
%TO.P,C9,2*%
%TO.N,GND*%
X35860000Y-21994900D03*
%TD*%
D23*
%TO.P,C28,1*%
%TO.N,+1V0*%
X112010000Y-53016200D03*
%TO.P,C28,2*%
%TO.N,GND*%
X112010000Y-52056200D03*
%TD*%
D29*
%TO.N,+1V8*%
X112075000Y-54722900D03*
X140744000Y-82009700D03*
X49553900Y-54722900D03*
X20320000Y-40925500D03*
X49070000Y-46577600D03*
X116958000Y-66455400D03*
X147626000Y-66269000D03*
X128760000Y-56005500D03*
%TO.N,GND*%
X39660600Y-55118500D03*
X47070000Y-43582600D03*
X91289400Y-68335700D03*
X124938000Y-60661400D03*
X125742000Y-70900000D03*
X123952000Y-63351100D03*
X78168700Y-74882700D03*
X52141000Y-75978000D03*
%TO.N,+1V0*%
X104949000Y-52338000D03*
X48829300Y-52338000D03*
X116952000Y-64470100D03*
%TO.N,+12V*%
X40640000Y-25185900D03*
%TO.N,/Power/SW1*%
X48411000Y-60243600D03*
X26022300Y-25702500D03*
X26445900Y-38556800D03*
%TO.N,Net-(U1-VBST1)*%
X49490000Y-60228100D03*
X28008700Y-31006700D03*
%TO.N,/Power/SW2*%
X54374800Y-65494800D03*
X26422500Y-51753500D03*
%TO.N,Net-(U1-VBST2)*%
X21078800Y-27131100D03*
X55880000Y-65311100D03*
X42723400Y-30696900D03*
%TO.N,+3V3*%
X22763800Y-55238600D03*
X76423900Y-68911400D03*
X63719300Y-36324500D03*
X64762500Y-56062300D03*
X67441700Y-84778500D03*
X34540600Y-60622500D03*
X116741000Y-73400000D03*
X40012200Y-59919100D03*
X100343000Y-73123800D03*
%TO.N,/Utilities/JTAG_TMS*%
X68434300Y-37420000D03*
X114951000Y-72470700D03*
%TO.N,/Utilities/JTAG_TCK*%
X69080000Y-38400000D03*
X109852000Y-61547300D03*
%TO.N,/Utilities/JTAG_TDO*%
X114985000Y-75370800D03*
X65326200Y-41025400D03*
%TO.N,/Utilities/JTAG_TDI*%
X106653000Y-81080300D03*
X115126000Y-81080300D03*
X117528000Y-76092600D03*
X68010000Y-43420000D03*
%TO.N,/Power/PGOOD*%
X26916000Y-31236500D03*
X22220300Y-81778500D03*
X23130800Y-25323100D03*
%TO.N,/Utilities/FPGA_DONE*%
X119873000Y-74392600D03*
X125738000Y-69863100D03*
%TO.N,/IO/SPI_DQ3*%
X70796100Y-77410400D03*
%TO.N,/IO/SPI_DQ2*%
X101833000Y-66328000D03*
X73873100Y-74330900D03*
%TO.N,/IO/SPI_SCLK*%
X118958000Y-63385200D03*
X73734100Y-94621600D03*
X119310000Y-94621600D03*
X110007000Y-72421200D03*
X121129000Y-85608600D03*
X143438000Y-74601400D03*
%TO.N,SPI_F_SCLK*%
X119100000Y-60144200D03*
X142466000Y-71411700D03*
X117818000Y-61461900D03*
%TO.N,Net-(U2C-IO_L14P_T2_SRCC_14)*%
X122805000Y-69327400D03*
X102462000Y-120430000D03*
X99443100Y-121235000D03*
X87878700Y-56862100D03*
X118825000Y-56862100D03*
%TO.N,SYSRES*%
X121228000Y-86875000D03*
X141747000Y-72150300D03*
X122828000Y-61492700D03*
%TO.N,Net-(U2C-IO_L13N_T2_MRCC_14)*%
X119782000Y-72449300D03*
X93980000Y-92482700D03*
%TO.N,Net-(U2C-IO_L13P_T2_MRCC_14)*%
X120791000Y-69370700D03*
%TO.N,Net-(U2C-IO_L12P_T1_MRCC_14)*%
X118268000Y-101109000D03*
X122007000Y-70393300D03*
X39763100Y-110287000D03*
%TO.N,Net-(U2C-IO_L11N_T1_SRCC_14)*%
X124609000Y-65127100D03*
X120844000Y-59064100D03*
X67871300Y-66766100D03*
X59745700Y-76202400D03*
X53792900Y-78498500D03*
%TO.N,Net-(U2C-IO_L11P_T1_SRCC_14)*%
X64658900Y-58031800D03*
X123806000Y-65326500D03*
X120823000Y-58254700D03*
X50800000Y-80173600D03*
%TO.N,Net-(U2C-IO_L10N_T1_D15_14)*%
X68413800Y-60415500D03*
X60792700Y-75121600D03*
X121860000Y-66287700D03*
X119001000Y-58587400D03*
%TO.N,Net-(U2C-IO_L9N_T1_DQS_D13_14)*%
X118067000Y-119677000D03*
X141021000Y-77770900D03*
X124014000Y-66721200D03*
X52227800Y-119380000D03*
%TO.N,Net-(U2C-IO_L9P_T1_DQS_14)*%
X123985000Y-67659300D03*
X60792700Y-94076100D03*
%TO.N,Net-(U2C-IO_L8N_T1_D12_14)*%
X122564000Y-60671100D03*
X55880000Y-74427400D03*
X123862000Y-64523700D03*
%TO.N,Net-(U2C-IO_L7N_T1_D10_14)*%
X89427400Y-60140900D03*
X91837400Y-110759000D03*
X117716000Y-60142700D03*
X120863000Y-66273400D03*
X112391000Y-109097000D03*
%TO.N,Net-(U2C-IO_L7P_T1_D09_14)*%
X122564000Y-59431000D03*
X124671000Y-66041300D03*
X107545000Y-120900000D03*
X91232400Y-59851300D03*
%TO.N,Net-(U2C-IO_L6N_T0_D08_VREF_14)*%
X120904000Y-64499400D03*
X40640000Y-73422600D03*
%TO.N,Net-(U2C-IO_L6P_T0_FCS_B_14)*%
X119931000Y-63493900D03*
%TO.N,/IO/PS1*%
X143105000Y-56744700D03*
X152784000Y-61823600D03*
X146500000Y-117104000D03*
%TO.N,Net-(U2C-IO_L15P_T2_DQS_RDWR_B_14)*%
X133092000Y-72136400D03*
%TO.N,/IO/PS2*%
X149892000Y-117104000D03*
X153602000Y-61848800D03*
X146045000Y-58773400D03*
%TO.N,Net-(U2C-IO_L15N_T2_DQS_DOUT_CSO_B_14)*%
X131380000Y-72070900D03*
%TO.N,/IO/SW1*%
X160038000Y-101109000D03*
%TO.N,Net-(U2C-IO_L16P_T2_CSI_B_14)*%
X120798000Y-71453700D03*
%TO.N,/IO/SW2*%
X167534000Y-115870000D03*
X153264000Y-56744200D03*
%TO.N,Net-(U2C-IO_L16N_T2_D31_14)*%
X124829000Y-71508600D03*
%TO.N,/IO/SPI_DQ0*%
X84928200Y-68950000D03*
%TO.N,/IO/SPI_DQ1*%
X89793700Y-76464300D03*
X101837000Y-70864700D03*
X70544000Y-76464300D03*
%TO.N,/IO/SPI_F_DQ3*%
X109119000Y-64741900D03*
X118952000Y-64472500D03*
%TD*%
D30*
%TO.N,+1V8*%
X40835600Y-66905600D02*
X39970000Y-66040000D01*
X140744000Y-82009700D02*
X147626000Y-75128100D01*
X128760000Y-56920000D02*
X128660000Y-56920000D01*
X137160000Y-52770000D02*
X135190000Y-50800000D01*
X116958000Y-66455400D02*
X110076000Y-66455400D01*
X137160000Y-53670000D02*
X137160000Y-52770000D01*
X134680000Y-56150000D02*
X134680000Y-56920000D01*
X44420000Y-66040000D02*
X44420000Y-60579300D01*
X49553900Y-54533600D02*
X49553900Y-54722900D01*
X44420000Y-66040000D02*
X43554400Y-66905600D01*
X20320000Y-38100000D02*
X20320000Y-40925500D01*
X128760000Y-56920000D02*
X128760000Y-56005500D01*
X108592000Y-63644100D02*
X112075000Y-60160900D01*
X49820300Y-55179000D02*
X49820300Y-54267200D01*
X112075000Y-60160900D02*
X112075000Y-54722900D01*
X134680000Y-56920000D02*
X131670000Y-56920000D01*
X43554400Y-66905600D02*
X40835600Y-66905600D01*
X49820300Y-54267200D02*
X49553900Y-54533600D01*
X110076000Y-66455400D02*
X108592000Y-64971600D01*
X49820300Y-54267200D02*
X49820300Y-48440300D01*
X147626000Y-75128100D02*
X147626000Y-66269000D01*
X131670000Y-56920000D02*
X128760000Y-56920000D01*
X44420000Y-60579300D02*
X49820300Y-55179000D01*
X108592000Y-64971600D02*
X108592000Y-63644100D01*
X49820300Y-48440300D02*
X49070000Y-47690000D01*
X137160000Y-53670000D02*
X134680000Y-56150000D01*
X49070000Y-47690000D02*
X49070000Y-46577600D01*
%TO.N,GND*%
X106100000Y-54926200D02*
X106591000Y-54926200D01*
X128660000Y-63270000D02*
X128660000Y-62857500D01*
X137160000Y-56340000D02*
X134680000Y-58820000D01*
X34175000Y-38390000D02*
X32012000Y-38390000D01*
X121920000Y-50800000D02*
X121067000Y-49947100D01*
X42175000Y-29539900D02*
X40640000Y-28004900D01*
X112010000Y-52056200D02*
X120664000Y-52056200D01*
X51050900Y-74887900D02*
X52141000Y-75978000D01*
X47070000Y-38840000D02*
X47070000Y-41790000D01*
X106591000Y-54926200D02*
X108070000Y-54926200D01*
X126530000Y-45720000D02*
X126536000Y-45714400D01*
X139130000Y-54630000D02*
X137652000Y-54630000D01*
X46845000Y-38615000D02*
X46620000Y-38390000D01*
X121067000Y-46572900D02*
X121920000Y-45720000D01*
X33620000Y-55880000D02*
X34472900Y-56732900D01*
X38693700Y-60205800D02*
X38740000Y-60205800D01*
X25781000Y-29890000D02*
X24616200Y-29890000D01*
X121920000Y-45720000D02*
X126530000Y-45720000D01*
X37887100Y-56732900D02*
X38740000Y-55880000D01*
X135079000Y-51649200D02*
X135190000Y-51760000D01*
X42520000Y-66040000D02*
X41667100Y-65187100D01*
X46591800Y-23010800D02*
X41597700Y-28004900D01*
X41597700Y-28004900D02*
X40640000Y-28004900D01*
X47070000Y-43582600D02*
X47070000Y-41790000D01*
X41667100Y-65187100D02*
X38922900Y-65187100D01*
X128456000Y-68185800D02*
X125742000Y-70900000D01*
X50392600Y-68309400D02*
X50392600Y-68860900D01*
X24800000Y-32379400D02*
X25014400Y-32165000D01*
X126530000Y-50800000D02*
X127379000Y-51649200D01*
X108070000Y-54926200D02*
X110940000Y-52056200D01*
X38385000Y-59897100D02*
X38693700Y-60205800D01*
X51050900Y-69017400D02*
X51207400Y-68860900D01*
X24310000Y-30196200D02*
X24616200Y-29890000D01*
X38740000Y-60960000D02*
X38740000Y-65004200D01*
X170050000Y-26570000D02*
X141990000Y-54630000D01*
X46591800Y-20034300D02*
X46591800Y-23010800D01*
X42175000Y-38390000D02*
X42175000Y-29539900D01*
X22697500Y-30317500D02*
X22757500Y-30317500D01*
X127134000Y-62857500D02*
X126652000Y-62375100D01*
X22697500Y-30317500D02*
X20970000Y-28590000D01*
X38385000Y-59460700D02*
X38385000Y-59897100D01*
X106591000Y-54926200D02*
X106591000Y-52546800D01*
X34618100Y-66402000D02*
X35120300Y-66904200D01*
X37205800Y-66904200D02*
X38070000Y-66040000D01*
X130992900Y-45714400D02*
X131921000Y-45714400D01*
X18958000Y-29890000D02*
X18958000Y-28590000D01*
X84715700Y-68335700D02*
X91289400Y-68335700D01*
X47496700Y-37963300D02*
X49554300Y-37963300D01*
X33660000Y-66278200D02*
X35494200Y-68112400D01*
X22860000Y-30215000D02*
X24310000Y-30215000D01*
X25014400Y-32165000D02*
X31619900Y-32165000D01*
X126652000Y-62375100D02*
X124938000Y-60661400D01*
X128456000Y-62857500D02*
X128456000Y-68185800D01*
X137652000Y-54630000D02*
X137652000Y-52522600D01*
X38740000Y-55880000D02*
X38740000Y-59152000D01*
X35860000Y-21994900D02*
X35009900Y-21144800D01*
X106591000Y-52546800D02*
X106100000Y-52056200D01*
X34618100Y-61958100D02*
X34618100Y-66402000D01*
X50195600Y-68112400D02*
X50392600Y-68309400D01*
X47070000Y-38840000D02*
X46845000Y-38615000D01*
X39660600Y-55118500D02*
X38899100Y-55880000D01*
X78168700Y-74882700D02*
X84715700Y-68335700D01*
X35494200Y-68112400D02*
X50195600Y-68112400D01*
X29950600Y-21029100D02*
X24364300Y-26615400D01*
X24364300Y-29638100D02*
X24616200Y-29890000D01*
X50392600Y-68860900D02*
X50549100Y-69017400D01*
X20970000Y-28590000D02*
X19939000Y-28590000D01*
X72905000Y-75117600D02*
X73245000Y-75457600D01*
X33620000Y-60960000D02*
X34618100Y-61958100D01*
X49554300Y-37963300D02*
X50121400Y-38530400D01*
X141990000Y-54630000D02*
X139130000Y-54630000D01*
X38740000Y-59152000D02*
X38693700Y-59152000D01*
X19939000Y-29890000D02*
X18958000Y-29890000D01*
X73245000Y-75457600D02*
X75400000Y-75457600D01*
X77370000Y-75457600D02*
X77593800Y-75457600D01*
X25781000Y-33140000D02*
X24800000Y-33140000D01*
X38693700Y-59152000D02*
X38385000Y-59460700D01*
X110940000Y-52056200D02*
X112010000Y-52056200D01*
X134753000Y-50535800D02*
X134753000Y-51649200D01*
X128660000Y-58820000D02*
X129523000Y-58820000D01*
X131008400Y-51649200D02*
X134753000Y-51649200D01*
X131921000Y-45714400D02*
X139567000Y-53360900D01*
X129523000Y-61994300D02*
X128660000Y-62857500D01*
X31619900Y-32165000D02*
X35780000Y-28004900D01*
X128456000Y-62857500D02*
X127134000Y-62857500D01*
X22757500Y-30317500D02*
X22860000Y-30215000D01*
X22860000Y-30480000D02*
X22697500Y-30317500D01*
X129523000Y-58820000D02*
X131670000Y-58820000D01*
X18958000Y-28590000D02*
X19939000Y-28590000D01*
X35009900Y-21144800D02*
X34894200Y-21029100D01*
X126536000Y-45714400D02*
X130992900Y-45714400D01*
X126652000Y-62375100D02*
X124928000Y-62375100D01*
X36348700Y-19806000D02*
X46363500Y-19806000D01*
X124928000Y-62375100D02*
X123952000Y-63351100D01*
X33660000Y-66040000D02*
X33660000Y-66278200D01*
X171300000Y-26570000D02*
X170050000Y-26570000D01*
X24310000Y-30215000D02*
X24310000Y-30196200D01*
X38740000Y-65004200D02*
X38922900Y-65187100D01*
X50121400Y-38530400D02*
X50121400Y-67101900D01*
X120664000Y-52056200D02*
X121920000Y-50800000D01*
X129523000Y-58820000D02*
X129523000Y-61994300D01*
X51050900Y-69017400D02*
X51050900Y-74887900D01*
X32012000Y-38390000D02*
X26762000Y-33140000D01*
X51207400Y-68860900D02*
X51207400Y-68299100D01*
X128660000Y-62857500D02*
X128456000Y-62857500D01*
X51207400Y-68299100D02*
X50065800Y-67157500D01*
X38899100Y-55880000D02*
X38740000Y-55880000D01*
X137652000Y-54630000D02*
X137160000Y-54630000D01*
X127379000Y-51649200D02*
X131008400Y-51649200D01*
X134952000Y-50335900D02*
X134753000Y-50535800D01*
X26762000Y-33140000D02*
X25781000Y-33140000D01*
X35009900Y-21144800D02*
X36348700Y-19806000D01*
X46845000Y-38615000D02*
X47496700Y-37963300D01*
X24800000Y-33140000D02*
X24800000Y-32379400D01*
X24364300Y-26615400D02*
X24364300Y-29638100D01*
X46620000Y-38390000D02*
X42175000Y-38390000D01*
X134680000Y-58820000D02*
X131670000Y-58820000D01*
X38922900Y-65187100D02*
X38070000Y-66040000D01*
X135466000Y-50335900D02*
X134952000Y-50335900D01*
X35120300Y-66904200D02*
X37205800Y-66904200D01*
X50549100Y-69017400D02*
X51050900Y-69017400D01*
X50065800Y-67157500D02*
X39187500Y-67157500D01*
X38740000Y-60205800D02*
X38740000Y-60960000D01*
X47070000Y-44740000D02*
X47070000Y-43582600D01*
X134753000Y-51649200D02*
X135079000Y-51649200D01*
X50121400Y-67101900D02*
X50065800Y-67157500D01*
X137160000Y-54630000D02*
X137160000Y-56340000D01*
X139567000Y-53360900D02*
X139567000Y-54192600D01*
X77593800Y-75457600D02*
X78168700Y-74882700D01*
X39187500Y-67157500D02*
X38070000Y-66040000D01*
X75400000Y-75457600D02*
X77370000Y-75457600D01*
X34894200Y-21029100D02*
X31441500Y-21029100D01*
X46363500Y-19806000D02*
X46591800Y-20034300D01*
X40640000Y-28004900D02*
X35780000Y-28004900D01*
X34472900Y-56732900D02*
X37887100Y-56732900D01*
X31441500Y-21029100D02*
X29950600Y-21029100D01*
X139567000Y-54192600D02*
X139130000Y-54630000D01*
X137652000Y-52522600D02*
X135466000Y-50335900D01*
X121067000Y-49947100D02*
X121067000Y-46572900D01*
%TO.N,+1V0*%
X122774000Y-48474000D02*
X121920000Y-47620000D01*
X48829300Y-52338000D02*
X48158600Y-53008700D01*
X105645000Y-55430800D02*
X105645000Y-53471600D01*
X131008000Y-50689200D02*
X131008000Y-50689000D01*
X131084000Y-50613500D02*
X131008000Y-50689200D01*
X126530000Y-52700000D02*
X123260000Y-52700000D01*
X39051800Y-54982300D02*
X36417700Y-54982300D01*
X40640000Y-55073700D02*
X40157900Y-54591600D01*
X21770000Y-47190000D02*
X21770000Y-47846100D01*
X128660000Y-61370000D02*
X126530000Y-59240000D01*
X49070000Y-50640000D02*
X49070000Y-52097300D01*
X36417700Y-54982300D02*
X35520000Y-55880000D01*
X122774000Y-52214000D02*
X122774000Y-48474000D01*
X36195400Y-65404600D02*
X35560000Y-66040000D01*
X108070000Y-55886200D02*
X109140000Y-55886200D01*
X105789000Y-53327100D02*
X106100000Y-53016200D01*
X28902000Y-54978100D02*
X32968000Y-54978100D01*
X105645000Y-53471600D02*
X105789000Y-53327100D01*
X131160000Y-50537900D02*
X131008000Y-50689000D01*
X48158600Y-53008700D02*
X48158600Y-53837400D01*
X116952000Y-53016200D02*
X116952000Y-64470100D01*
X123260000Y-52700000D02*
X122774000Y-52214000D01*
X48158600Y-53837400D02*
X46922300Y-55073700D01*
X131084000Y-50613500D02*
X131008000Y-50689200D01*
X36195400Y-59749900D02*
X36195400Y-65404600D01*
X121920000Y-47620000D02*
X126530000Y-47620000D01*
X131160000Y-50537900D02*
X131084000Y-50613500D01*
X34618100Y-54978100D02*
X35520000Y-55880000D01*
X131160000Y-50537900D02*
X131084000Y-50613500D01*
X21770000Y-47846100D02*
X28902000Y-54978100D01*
X131008000Y-50689000D02*
X131008000Y-50689200D01*
X32968000Y-56522500D02*
X36195400Y-59749900D01*
X40157900Y-54591600D02*
X39442400Y-54591600D01*
X105348000Y-52885400D02*
X105348000Y-52736700D01*
X20320000Y-47190000D02*
X21770000Y-47190000D01*
X105348000Y-52736700D02*
X104949000Y-52338000D01*
X116952000Y-53016200D02*
X121604000Y-53016200D01*
X135633000Y-50084000D02*
X131614000Y-50084000D01*
X131008000Y-50689000D02*
X131008000Y-47629900D01*
X139130000Y-53580900D02*
X135633000Y-50084000D01*
X105789000Y-53327100D02*
X105348000Y-52885400D01*
X112010000Y-53016200D02*
X116952000Y-53016200D01*
X131008000Y-47629900D02*
X130993000Y-47614400D01*
X40640000Y-55880000D02*
X40640000Y-55073700D01*
X130992900Y-47614400D02*
X126536000Y-47614400D01*
X126530000Y-59240000D02*
X126530000Y-52700000D01*
X131311000Y-50386600D02*
X131160000Y-50537900D01*
X122406000Y-52214000D02*
X122774000Y-52214000D01*
X32968000Y-54978100D02*
X32968000Y-56522500D01*
X106100000Y-55886200D02*
X105645000Y-55430800D01*
X131311000Y-50386600D02*
X131160000Y-50537900D01*
X109140000Y-55886200D02*
X112010000Y-53016200D01*
X49070000Y-52097300D02*
X48829300Y-52338000D01*
X126536000Y-47614400D02*
X126530000Y-47620000D01*
X39051800Y-54982200D02*
X39051800Y-54982300D01*
X39442400Y-54591600D02*
X39051800Y-54982200D01*
X131614000Y-50084000D02*
X131311000Y-50386600D01*
X130993000Y-47614400D02*
X130992900Y-47614400D01*
X139130000Y-53670000D02*
X139130000Y-53580900D01*
X46922300Y-55073700D02*
X40640000Y-55073700D01*
X131008400Y-50689200D02*
X131008000Y-50689200D01*
X121604000Y-53016200D02*
X121920000Y-52700000D01*
X32968000Y-54978100D02*
X34618100Y-54978100D01*
X108070000Y-55886200D02*
X106100000Y-55886200D01*
X121920000Y-52700000D02*
X122406000Y-52214000D01*
%TO.N,+12V*%
X25781000Y-27940000D02*
X26762000Y-27940000D01*
X25781000Y-27289900D02*
X26762000Y-27289900D01*
X38190300Y-23694600D02*
X35780000Y-26104900D01*
X40640000Y-25185900D02*
X39681600Y-25185900D01*
X45720000Y-20534900D02*
X41069000Y-25185900D01*
X38190300Y-23365200D02*
X35860000Y-21034900D01*
X26762000Y-27289900D02*
X34595000Y-27289900D01*
X26762000Y-27940000D02*
X26762000Y-27289900D01*
X39681600Y-25185900D02*
X38190300Y-23694600D01*
X34595000Y-27289900D02*
X35780000Y-26104900D01*
X38190300Y-23694600D02*
X38190300Y-23365200D01*
X41069000Y-25185900D02*
X40640000Y-25185900D01*
X40640000Y-26104900D02*
X40640000Y-25185900D01*
%TO.N,Net-(U1-VREG5)*%
X26762000Y-30540000D02*
X26762000Y-29062300D01*
X24870100Y-28804200D02*
X24870100Y-27103700D01*
X25744400Y-26229400D02*
X27201200Y-26229400D01*
X26613200Y-28913500D02*
X24979400Y-28913500D01*
X27201200Y-26229400D02*
X31441500Y-21989100D01*
X24979400Y-28913500D02*
X24870100Y-28804200D01*
X26762000Y-29062300D02*
X26613200Y-28913500D01*
X25781000Y-30540000D02*
X26762000Y-30540000D01*
X24870100Y-27103700D02*
X25744400Y-26229400D01*
%TO.N,/Power/SW1*%
X24616200Y-26930400D02*
X25844100Y-25702500D01*
X26270000Y-38100000D02*
X26270000Y-38380900D01*
X25844100Y-25702500D02*
X26022300Y-25702500D01*
X24616200Y-29056200D02*
X24616200Y-26930400D01*
X48411000Y-60243600D02*
X48530000Y-60362600D01*
X24800000Y-29240000D02*
X24616200Y-29056200D01*
X25781000Y-29240000D02*
X24800000Y-29240000D01*
X48530000Y-60362600D02*
X48530000Y-60960000D01*
X24820000Y-38100000D02*
X26270000Y-38100000D01*
X26270000Y-38380900D02*
X26445900Y-38556800D01*
%TO.N,Net-(U1-VBST1)*%
X28008700Y-29836700D02*
X26762000Y-28590000D01*
X49490000Y-60228100D02*
X49490000Y-60960000D01*
X26762000Y-28590000D02*
X25781000Y-28590000D01*
X28008700Y-31006700D02*
X28008700Y-29836700D01*
%TO.N,/Power/SW2*%
X26422500Y-49517500D02*
X26422500Y-51753500D01*
X23370000Y-45740000D02*
X18815600Y-41185600D01*
X54374800Y-65494800D02*
X54920000Y-66040000D01*
X20772700Y-30215000D02*
X18915100Y-30215000D01*
X18915100Y-30215000D02*
X18649100Y-29949000D01*
X23370000Y-47190000D02*
X23370000Y-45740000D01*
X18815600Y-31806900D02*
X19107500Y-31515000D01*
X20703900Y-31515000D02*
X20857400Y-31361500D01*
X20857400Y-31361500D02*
X20857400Y-30299700D01*
X18815600Y-41185600D02*
X18815600Y-31806900D01*
X24095000Y-47190000D02*
X23370000Y-47190000D01*
X19107500Y-31515000D02*
X20703900Y-31515000D01*
X18958000Y-27940000D02*
X19939000Y-27940000D01*
X18649100Y-29949000D02*
X18649100Y-28248900D01*
X20857400Y-30299700D02*
X20772700Y-30215000D01*
X18649100Y-28248900D02*
X18958000Y-27940000D01*
X24095000Y-47190000D02*
X26422500Y-49517500D01*
X24820000Y-47190000D02*
X24095000Y-47190000D01*
%TO.N,Net-(U1-VBST2)*%
X55880000Y-43853500D02*
X42723400Y-30696900D01*
X20920000Y-27289900D02*
X21078800Y-27131100D01*
X55880000Y-65311100D02*
X55880000Y-43853500D01*
X19939000Y-27289900D02*
X20920000Y-27289900D01*
X55880000Y-66040000D02*
X55880000Y-65311100D01*
%TO.N,/Power/SW3*%
X24820000Y-58506000D02*
X24820000Y-55880000D01*
X18265300Y-49198000D02*
X18265300Y-31232700D01*
X49840000Y-68580000D02*
X34894000Y-68580000D01*
X34894000Y-68580000D02*
X24820000Y-58506000D01*
X23370000Y-54302700D02*
X18265300Y-49198000D01*
X23370000Y-55880000D02*
X23370000Y-54302700D01*
X18265300Y-31232700D02*
X18958000Y-30540000D01*
X24820000Y-55880000D02*
X23370000Y-55880000D01*
X18958000Y-30540000D02*
X19939000Y-30540000D01*
%TO.N,Net-(U1-VBST3)*%
X32400700Y-59981200D02*
X32400700Y-63521400D01*
X35263800Y-67419100D02*
X49858600Y-67419100D01*
X34366200Y-65486900D02*
X34366200Y-66521500D01*
X32400700Y-63521400D02*
X34366200Y-65486900D01*
X18517200Y-31630800D02*
X18517200Y-48881200D01*
X22066000Y-49646500D02*
X32400700Y-59981200D01*
X50800000Y-68360500D02*
X50800000Y-68580000D01*
X19939000Y-31190000D02*
X18958000Y-31190000D01*
X18517200Y-48881200D02*
X19282500Y-49646500D01*
X49858600Y-67419100D02*
X50800000Y-68360500D01*
X34366200Y-66521500D02*
X35263800Y-67419100D01*
X18958000Y-31190000D02*
X18517200Y-31630800D01*
X19282500Y-49646500D02*
X22066000Y-49646500D01*
%TO.N,+3V3*%
X68662500Y-74312300D02*
X69566200Y-73408600D01*
X22122400Y-55880000D02*
X22763800Y-55238600D01*
X67710900Y-84778500D02*
X67441700Y-84778500D01*
X74234700Y-73332300D02*
X75400000Y-74497600D01*
X64762500Y-56062300D02*
X64244800Y-55544600D01*
X40640000Y-60546900D02*
X40012200Y-59919100D01*
X69566200Y-60768300D02*
X64860200Y-56062300D01*
X68580000Y-86347600D02*
X67710900Y-85478500D01*
X70570000Y-86347600D02*
X68580000Y-86347600D01*
X100343000Y-73123800D02*
X100619000Y-73400000D01*
X64860200Y-56062300D02*
X64762500Y-56062300D01*
X67710900Y-85478500D02*
X67710900Y-84778500D01*
X67580000Y-36850000D02*
X64244800Y-36850000D01*
X67580000Y-38190000D02*
X67580000Y-39510000D01*
X35182500Y-60622500D02*
X35520000Y-60960000D01*
X49070000Y-53590000D02*
X41700000Y-60960000D01*
X72560000Y-86347600D02*
X70570000Y-86347600D01*
X75400000Y-74497600D02*
X77370000Y-74497600D01*
X67580000Y-39510000D02*
X67580000Y-40850000D01*
X69642500Y-73332300D02*
X74234700Y-73332300D01*
X68662500Y-82317600D02*
X69095000Y-82317600D01*
X40640000Y-60960000D02*
X40640000Y-60546900D01*
X100619000Y-73400000D02*
X116741000Y-73400000D01*
X67710900Y-84778500D02*
X67710900Y-83269200D01*
X68662500Y-82317600D02*
X68662500Y-74312300D01*
X74234700Y-73332300D02*
X74234700Y-71100600D01*
X64244800Y-55544600D02*
X64244800Y-36850000D01*
X74234700Y-71100600D02*
X76423900Y-68911400D01*
X67580000Y-36850000D02*
X67580000Y-38190000D01*
X34540600Y-60622500D02*
X35182500Y-60622500D01*
X20320000Y-55880000D02*
X22122400Y-55880000D01*
X67710900Y-83269200D02*
X68662500Y-82317600D01*
X69566200Y-73408600D02*
X69642500Y-73332300D01*
X64244800Y-36850000D02*
X63719300Y-36324500D01*
X69566200Y-73408600D02*
X69566200Y-60768300D01*
X41700000Y-60960000D02*
X40640000Y-60960000D01*
%TO.N,/Utilities/JTAG_TMS*%
X69303200Y-38934600D02*
X68848000Y-38934600D01*
X69312400Y-38925400D02*
X69303200Y-38934600D01*
X70580000Y-36850000D02*
X69004300Y-36850000D01*
X114951000Y-72470700D02*
X81405700Y-38925400D01*
X68434300Y-38520900D02*
X68434300Y-37420000D01*
X69004300Y-36850000D02*
X68434300Y-37420000D01*
X68848000Y-38934600D02*
X68434300Y-38520900D01*
X81405700Y-38925400D02*
X69312400Y-38925400D01*
%TO.N,/Utilities/JTAG_TCK*%
X69290000Y-38190000D02*
X69080000Y-38400000D01*
X86494700Y-38190000D02*
X70580000Y-38190000D01*
X70580000Y-38190000D02*
X69290000Y-38190000D01*
X109852000Y-61547300D02*
X86494700Y-38190000D01*
%TO.N,/Utilities/JTAG_TDO*%
X70580000Y-39510000D02*
X69880000Y-39510000D01*
X102908000Y-71251600D02*
X102908000Y-70425300D01*
X69880000Y-39685000D02*
X68122600Y-41442400D01*
X100628000Y-72052900D02*
X102107000Y-72052900D01*
X68122600Y-41442400D02*
X65743200Y-41442400D01*
X69880000Y-39510000D02*
X69880000Y-39685000D01*
X71992600Y-39510000D02*
X70580000Y-39510000D01*
X65743200Y-41442400D02*
X65326200Y-41025400D01*
X99784800Y-72895700D02*
X100628000Y-72052900D01*
X102908000Y-70425300D02*
X71992600Y-39510000D01*
X99784800Y-73365700D02*
X99784800Y-72895700D01*
X101790000Y-75370800D02*
X99784800Y-73365700D01*
X102107000Y-72052900D02*
X102908000Y-71251600D01*
X114985000Y-75370800D02*
X101790000Y-75370800D01*
%TO.N,/Utilities/JTAG_TDI*%
X102656000Y-71147200D02*
X102656000Y-70529700D01*
X99532900Y-72758800D02*
X100491000Y-71801000D01*
X102656000Y-70529700D02*
X72976300Y-40850000D01*
X117528000Y-76092600D02*
X115126000Y-78494800D01*
X99532900Y-73960100D02*
X99532900Y-72758800D01*
X72976300Y-40850000D02*
X70580000Y-40850000D01*
X102002000Y-71801000D02*
X102656000Y-71147200D01*
X100491000Y-71801000D02*
X102002000Y-71801000D01*
X69880000Y-40850000D02*
X69880000Y-41550000D01*
X106653000Y-81080300D02*
X99532900Y-73960100D01*
X70580000Y-40850000D02*
X69880000Y-40850000D01*
X115126000Y-78494800D02*
X115126000Y-81080300D01*
X69880000Y-41550000D02*
X68010000Y-43420000D01*
%TO.N,/Power/PGOOD*%
X22220300Y-81778500D02*
X17990200Y-77548400D01*
X26869500Y-31190000D02*
X26916000Y-31236500D01*
X20817900Y-25323100D02*
X23130800Y-25323100D01*
X25781000Y-31190000D02*
X26869500Y-31190000D01*
X17990200Y-77548400D02*
X17990200Y-28150800D01*
X17990200Y-28150800D02*
X20817900Y-25323100D01*
%TO.N,Net-(U1-EN1)*%
X24800000Y-31914500D02*
X24800000Y-31840000D01*
X41288600Y-26966300D02*
X35453900Y-26966300D01*
X19939000Y-31840000D02*
X21127600Y-31840000D01*
X24800000Y-31840000D02*
X25781000Y-31840000D01*
X26094300Y-42890000D02*
X34175000Y-42890000D01*
X20920000Y-29240000D02*
X21127600Y-29447600D01*
X19939000Y-29240000D02*
X20920000Y-29240000D01*
X45720000Y-22534900D02*
X41288600Y-26966300D01*
X22766800Y-33479200D02*
X23235300Y-33479200D01*
X21127600Y-29447600D02*
X21127600Y-31840000D01*
X23235300Y-33479200D02*
X23235300Y-40031000D01*
X23235300Y-33479200D02*
X24800000Y-31914500D01*
X30580200Y-31840000D02*
X25781000Y-31840000D01*
X23235300Y-40031000D02*
X26094300Y-42890000D01*
X21127600Y-31840000D02*
X22766800Y-33479200D01*
X35453900Y-26966300D02*
X30580200Y-31840000D01*
X42175000Y-42890000D02*
X34175000Y-42890000D01*
%TO.N,/IO/SPI_DQ3*%
X70365000Y-77841500D02*
X70796100Y-77410400D01*
X70365000Y-82562600D02*
X70365000Y-82317600D01*
X68580000Y-84347600D02*
X70365000Y-82562600D01*
X70365000Y-82317600D02*
X70365000Y-77841500D01*
%TO.N,/IO/SPI_DQ2*%
X71635000Y-74705300D02*
X72465400Y-73874900D01*
X71012800Y-83904800D02*
X71012800Y-77938900D01*
X71635000Y-75117600D02*
X71635000Y-74705300D01*
X70570000Y-84347600D02*
X71012800Y-83904800D01*
X72465400Y-73874900D02*
X73417100Y-73874900D01*
X73417100Y-73874900D02*
X73873100Y-74330900D01*
X71012800Y-77938900D02*
X71635000Y-77316700D01*
X71635000Y-77316700D02*
X71635000Y-75117600D01*
%TO.N,/IO/SPI_CS*%
X73115500Y-74131300D02*
X72633100Y-74131300D01*
X70602600Y-73610000D02*
X73913000Y-73610000D01*
X72633100Y-74131300D02*
X72446700Y-74317700D01*
X73342700Y-74545600D02*
X73342700Y-74358500D01*
X74055500Y-74931000D02*
X73728100Y-74931000D01*
X73913000Y-73610000D02*
X74421000Y-74118000D01*
X73342700Y-74358500D02*
X73115500Y-74131300D01*
X69095000Y-75117600D02*
X70602600Y-73610000D01*
X74421000Y-74118000D02*
X74421000Y-74565500D01*
X73728100Y-74931000D02*
X73342700Y-74545600D01*
X74421000Y-74565500D02*
X74055500Y-74931000D01*
X72446700Y-74317700D02*
X72446700Y-84234300D01*
X72446700Y-84234300D02*
X72560000Y-84347600D01*
%TO.N,/IO/SPI_SCLK*%
X72899700Y-85347600D02*
X73734100Y-86182000D01*
X143438000Y-74601400D02*
X144240000Y-73799600D01*
X72192700Y-85347600D02*
X72899700Y-85347600D01*
X115102000Y-73072800D02*
X110659000Y-73072800D01*
X71635000Y-84789900D02*
X72192700Y-85347600D01*
X144240000Y-73799600D02*
X144240000Y-73660000D01*
X121755000Y-92176300D02*
X119310000Y-94621600D01*
X73734100Y-86182000D02*
X73734100Y-94621600D01*
X121755000Y-86234500D02*
X121755000Y-92176300D01*
X119482000Y-63909000D02*
X119482000Y-68693500D01*
X118958000Y-63385200D02*
X119482000Y-63909000D01*
X121129000Y-85608600D02*
X121755000Y-86234500D01*
X110659000Y-73072800D02*
X110007000Y-72421200D01*
X71635000Y-82317600D02*
X71635000Y-84789900D01*
X119482000Y-68693500D02*
X115102000Y-73072800D01*
X121129000Y-85608600D02*
X132431000Y-85608600D01*
X132431000Y-85608600D02*
X143438000Y-74601400D01*
%TO.N,SPI_F_SCLK*%
X142240000Y-73660000D02*
X142466000Y-73434300D01*
X117818000Y-61461900D02*
X119100000Y-60180200D01*
X119100000Y-60180200D02*
X119100000Y-60144200D01*
X142466000Y-73434300D02*
X142466000Y-71411700D01*
%TO.N,/IO/AN7*%
X106768000Y-119292000D02*
X101600500Y-119292000D01*
X101600500Y-119292000D02*
X101600000Y-119292000D01*
X101600500Y-119292000D02*
X101600000Y-119292500D01*
X111760000Y-114300000D02*
X106768000Y-119292000D01*
%TO.N,Net-(U2C-IO_L14P_T2_SRCC_14)*%
X119818000Y-59369500D02*
X121088000Y-60639200D01*
X118825000Y-57413600D02*
X119818000Y-58407000D01*
X121088000Y-60639200D02*
X121088000Y-63164500D01*
X101600000Y-121292000D02*
X101600000Y-121292500D01*
X102462000Y-120430000D02*
X101600000Y-121292000D01*
X91824500Y-69014500D02*
X91824500Y-68029800D01*
X91824500Y-68029800D02*
X87878700Y-64084000D01*
X121936000Y-65076100D02*
X122805000Y-65945100D01*
X119818000Y-58407000D02*
X119818000Y-59369500D01*
X88968000Y-71871000D02*
X91824500Y-69014500D01*
X121088000Y-63164500D02*
X121936000Y-64012300D01*
X88968000Y-110760000D02*
X88968000Y-71871000D01*
X99443100Y-121235000D02*
X88968000Y-110760000D01*
X87878700Y-64084000D02*
X87878700Y-56862100D01*
X121936000Y-64012300D02*
X121936000Y-65076100D01*
X118825000Y-56862100D02*
X118825000Y-57413600D01*
X122805000Y-65945100D02*
X122805000Y-69327400D01*
%TO.N,SYSRES*%
X121228000Y-86875000D02*
X120581000Y-86228200D01*
X120581000Y-86228200D02*
X120581000Y-85355500D01*
X129726000Y-84171100D02*
X141747000Y-72150300D01*
X121766000Y-84171100D02*
X129726000Y-84171100D01*
X120581000Y-85355500D02*
X121766000Y-84171100D01*
%TO.N,/IO/AN6*%
X98833000Y-100469000D02*
X107811000Y-100469000D01*
X95980000Y-97616200D02*
X98833000Y-100469000D01*
X95980000Y-93980000D02*
X95980000Y-97616200D01*
X107811000Y-100469000D02*
X109220000Y-99060000D01*
%TO.N,Net-(U2C-IO_L13N_T2_MRCC_14)*%
X93980000Y-92482700D02*
X93980000Y-92880800D01*
X120445000Y-73112100D02*
X119782000Y-72449300D01*
X106330000Y-93084300D02*
X120445000Y-78969300D01*
X93980000Y-92880800D02*
X94183500Y-93084300D01*
X120445000Y-78969300D02*
X120445000Y-73112100D01*
X93980000Y-92880800D02*
X93980000Y-93980000D01*
X94183500Y-93084300D02*
X106330000Y-93084300D01*
%TO.N,/IO/AN5*%
X106680000Y-99060000D02*
X105523000Y-100217000D01*
X105523000Y-100217000D02*
X98937400Y-100217000D01*
X98144200Y-99424100D02*
X98144200Y-96674300D01*
X98937400Y-100217000D02*
X98144200Y-99424100D01*
X98144200Y-96674300D02*
X100463000Y-94355500D01*
%TO.N,Net-(U2C-IO_L13P_T2_MRCC_14)*%
X117632000Y-72530000D02*
X120791000Y-69370700D01*
X100463000Y-92355500D02*
X117632000Y-75186700D01*
X117632000Y-75186700D02*
X117632000Y-72530000D01*
%TO.N,/IO/AN4*%
X110377000Y-94118800D02*
X111397000Y-94118800D01*
X99965400Y-99965400D02*
X104530000Y-99965400D01*
X111397000Y-94118800D02*
X111397400Y-94118800D01*
X99060000Y-99060000D02*
X99965400Y-99965400D01*
X104530000Y-99965400D02*
X110377000Y-94118800D01*
%TO.N,/IO/AN3*%
X52429900Y-113390000D02*
X53340000Y-114300000D01*
X44251800Y-114466000D02*
X45328100Y-113390000D01*
X40927800Y-119380000D02*
X44251800Y-116056000D01*
X44251800Y-116056000D02*
X44251800Y-114466000D01*
X45328100Y-113390000D02*
X52429900Y-113390000D01*
%TO.N,Net-(U2C-IO_L12P_T1_MRCC_14)*%
X118268000Y-101109000D02*
X118268000Y-81788400D01*
X118268000Y-81788400D02*
X122007000Y-78049400D01*
X39763100Y-120215000D02*
X39763100Y-110287000D01*
X40927800Y-121380000D02*
X39763100Y-120215000D01*
X122007000Y-78049400D02*
X122007000Y-70393300D01*
%TO.N,/IO/AN2*%
X45171400Y-100206000D02*
X44543800Y-99577900D01*
X49654500Y-100206000D02*
X45171400Y-100206000D01*
X44543800Y-99577900D02*
X44543800Y-94116600D01*
X50800000Y-99060000D02*
X49654500Y-100206000D01*
X44543800Y-94116600D02*
X46125000Y-92535400D01*
%TO.N,Net-(U2C-IO_L11N_T1_SRCC_14)*%
X51728700Y-78498500D02*
X53792900Y-78498500D01*
X59745700Y-74891700D02*
X67871300Y-66766100D01*
X124609000Y-65127100D02*
X124609000Y-65313500D01*
X46125000Y-84102200D02*
X51728700Y-78498500D01*
X121785000Y-60005500D02*
X120844000Y-59064100D01*
X46125000Y-90535400D02*
X46125000Y-84102200D01*
X123540000Y-65871700D02*
X122266000Y-64597000D01*
X122266000Y-63254000D02*
X121785000Y-62773400D01*
X122266000Y-64597000D02*
X122266000Y-63254000D01*
X59745700Y-76202400D02*
X59745700Y-74891700D01*
X124609000Y-65313500D02*
X124051000Y-65871700D01*
X121785000Y-62773400D02*
X121785000Y-60005500D01*
X124051000Y-65871700D02*
X123540000Y-65871700D01*
%TO.N,/IO/AN1*%
X48260000Y-99060000D02*
X47374500Y-99945500D01*
X44807200Y-98432800D02*
X50800000Y-92440000D01*
X45290900Y-99945500D02*
X44807200Y-99461800D01*
X44807200Y-99461800D02*
X44807200Y-98432800D01*
X47374500Y-99945500D02*
X45290900Y-99945500D01*
%TO.N,Net-(U2C-IO_L11P_T1_SRCC_14)*%
X50800000Y-90440000D02*
X50800000Y-80173600D01*
X123806000Y-65326500D02*
X122518000Y-64038100D01*
X122518000Y-64038100D02*
X122518000Y-63149600D01*
X50800000Y-80173600D02*
X52918000Y-80173600D01*
X54656300Y-78435300D02*
X54656300Y-68034400D01*
X54656300Y-68034400D02*
X64658900Y-58031800D01*
X122037000Y-59468300D02*
X120823000Y-58254700D01*
X122518000Y-63149600D02*
X122037000Y-62668900D01*
X52918000Y-80173600D02*
X54656300Y-78435300D01*
X122037000Y-62668900D02*
X122037000Y-59468300D01*
%TO.N,/IO/AN0*%
X42040100Y-100460000D02*
X40640000Y-99060000D01*
X58658000Y-92440000D02*
X52070100Y-99027900D01*
X52070100Y-99027900D02*
X52070100Y-99141300D01*
X50751300Y-100460000D02*
X42040100Y-100460000D01*
X52070100Y-99141300D02*
X50751300Y-100460000D01*
X60960000Y-92440000D02*
X58658000Y-92440000D01*
%TO.N,Net-(U2C-IO_L10N_T1_D15_14)*%
X120836000Y-60777000D02*
X120836000Y-63268900D01*
X60792700Y-75121600D02*
X68413800Y-67500500D01*
X68413800Y-67500500D02*
X68413800Y-60415500D01*
X119001000Y-58941600D02*
X120836000Y-60777000D01*
X120836000Y-63268900D02*
X121684000Y-64116700D01*
X60960000Y-90440000D02*
X60960000Y-75288900D01*
X121684000Y-66111800D02*
X121860000Y-66287700D01*
X119001000Y-58587400D02*
X119001000Y-58941600D01*
X121684000Y-64116700D02*
X121684000Y-66111800D01*
X60960000Y-75288900D02*
X60792700Y-75121600D01*
%TO.N,/IO/DP*%
X51087800Y-121380000D02*
X49879900Y-120172000D01*
X49879900Y-120172000D02*
X45460300Y-120172000D01*
X45460300Y-120172000D02*
X45137900Y-119850000D01*
X45137900Y-119850000D02*
X45137900Y-114882000D01*
X45137900Y-114882000D02*
X45720000Y-114300000D01*
%TO.N,Net-(U2C-IO_L9N_T1_DQS_D13_14)*%
X136110000Y-82682100D02*
X141021000Y-77770900D01*
X136110000Y-101634000D02*
X136110000Y-82682100D01*
X118067000Y-119677000D02*
X136110000Y-101634000D01*
X51087800Y-119380000D02*
X52227800Y-119380000D01*
%TO.N,/IO/DG*%
X46007800Y-119380000D02*
X50800000Y-114588000D01*
X50800000Y-114588000D02*
X50800000Y-114300000D01*
%TO.N,Net-(U2C-IO_L9P_T1_DQS_14)*%
X60792700Y-115843000D02*
X60792700Y-94076100D01*
X46007800Y-121380000D02*
X46742600Y-122115000D01*
X54326800Y-120375000D02*
X56260200Y-120375000D01*
X56260200Y-120375000D02*
X60792700Y-115843000D01*
X46742600Y-122115000D02*
X52587400Y-122115000D01*
X52587400Y-122115000D02*
X54326800Y-120375000D01*
%TO.N,/IO/DF*%
X55880000Y-92508300D02*
X52271700Y-92508300D01*
X52271700Y-92508300D02*
X45720000Y-99060000D01*
%TO.N,Net-(U2C-IO_L8N_T1_D12_14)*%
X122770000Y-63045200D02*
X122289000Y-62564600D01*
X122289000Y-62564600D02*
X122289000Y-60946100D01*
X122289000Y-60946100D02*
X122564000Y-60671100D01*
X55880000Y-74427400D02*
X55880000Y-90508300D01*
X122770000Y-63431200D02*
X122770000Y-63045200D01*
X123862000Y-64523700D02*
X122770000Y-63431200D01*
%TO.N,/IO/DE*%
X53422900Y-113114000D02*
X55880000Y-115571000D01*
X55880000Y-119375000D02*
X55880000Y-119375400D01*
X40640000Y-114300000D02*
X41640000Y-114300000D01*
X41640000Y-114300000D02*
X42826100Y-113114000D01*
X55880000Y-115571000D02*
X55880000Y-119375000D01*
X42826100Y-113114000D02*
X53422900Y-113114000D01*
%TO.N,/IO/DD*%
X102482000Y-113418000D02*
X112175000Y-113418000D01*
X112175000Y-113418000D02*
X112672000Y-113915000D01*
X112672000Y-118468000D02*
X111760000Y-119380000D01*
X112672000Y-113915000D02*
X112672000Y-118468000D01*
X101600000Y-114300000D02*
X102482000Y-113418000D01*
%TO.N,Net-(U2C-IO_L7N_T1_D10_14)*%
X120584000Y-63392400D02*
X121432000Y-64240200D01*
X117716000Y-60142700D02*
X118255000Y-59603400D01*
X118255000Y-59603400D02*
X119306000Y-59603400D01*
X92105800Y-62819300D02*
X89427400Y-60140900D01*
X112963000Y-109669000D02*
X112391000Y-109097000D01*
X91837400Y-110759000D02*
X89219900Y-108141000D01*
X119306000Y-59603400D02*
X120584000Y-60881400D01*
X121432000Y-64240200D02*
X121432000Y-65704200D01*
X121432000Y-65704200D02*
X120863000Y-66273400D01*
X120584000Y-60881400D02*
X120584000Y-63392400D01*
X89219900Y-76189300D02*
X92105800Y-73303400D01*
X112963000Y-120177000D02*
X112963000Y-109669000D01*
X111760000Y-121380000D02*
X112963000Y-120177000D01*
X92105800Y-73303400D02*
X92105800Y-62819300D01*
X89219900Y-108141000D02*
X89219900Y-76189300D01*
%TO.N,/IO/DC*%
X106680000Y-118035000D02*
X106680000Y-114300000D01*
%TO.N,Net-(U2C-IO_L7P_T1_D09_14)*%
X106680000Y-120035000D02*
X107112000Y-120468000D01*
X93233600Y-78701800D02*
X100475000Y-71460700D01*
X123359000Y-60226100D02*
X122564000Y-59431000D01*
X102404000Y-71042800D02*
X102404000Y-70634100D01*
X123828000Y-63973000D02*
X123359000Y-63503900D01*
X101986000Y-71460700D02*
X102404000Y-71042800D01*
X107112000Y-120468000D02*
X107545000Y-120900000D01*
X105553000Y-122027000D02*
X100986000Y-122027000D01*
X125156000Y-64863200D02*
X124266000Y-63973000D01*
X124671000Y-66041300D02*
X125156000Y-65556200D01*
X100986000Y-122027000D02*
X93233600Y-114275000D01*
X124266000Y-63973000D02*
X123828000Y-63973000D01*
X100475000Y-71460700D02*
X101986000Y-71460700D01*
X93233600Y-114275000D02*
X93233600Y-78701800D01*
X125156000Y-65556200D02*
X125156000Y-64863200D01*
X91621300Y-59851300D02*
X91232400Y-59851300D01*
X102404000Y-70634100D02*
X91621300Y-59851300D01*
X107112000Y-120468000D02*
X105553000Y-122027000D01*
X123359000Y-63503900D02*
X123359000Y-60226100D01*
%TO.N,/IO/DB*%
X51676500Y-100724000D02*
X40988500Y-100724000D01*
X39727200Y-93697800D02*
X40640000Y-92785000D01*
X39727200Y-99462200D02*
X39727200Y-93697800D01*
X53340000Y-99060000D02*
X51676500Y-100724000D01*
X40988500Y-100724000D02*
X39727200Y-99462200D01*
%TO.N,Net-(U2C-IO_L6N_T0_D08_VREF_14)*%
X40640000Y-90785000D02*
X40640000Y-73422600D01*
%TO.N,/IO/DA*%
X101600000Y-98466500D02*
X101600000Y-99060000D01*
X105967000Y-94099600D02*
X105966900Y-94099600D01*
X105966900Y-94099600D02*
X101600000Y-98466500D01*
%TO.N,Net-(U2C-IO_L6P_T0_FCS_B_14)*%
X109514000Y-88552700D02*
X105967000Y-92099600D01*
X119931000Y-66154900D02*
X119931000Y-63493900D01*
X108332000Y-89734900D02*
X109514000Y-88552700D01*
X109514000Y-88552700D02*
X119233000Y-78833100D01*
X119233000Y-71673800D02*
X121320000Y-69587100D01*
X121320000Y-67544000D02*
X119931000Y-66154900D01*
X105966900Y-92099600D02*
X105967000Y-92099600D01*
X119233000Y-78833100D02*
X119233000Y-71673800D01*
X121320000Y-69587100D02*
X121320000Y-67544000D01*
%TO.N,/IO/PS1*%
X152784000Y-61823600D02*
X152784000Y-110820000D01*
X152784000Y-110820000D02*
X146500000Y-117104000D01*
X142240000Y-55880000D02*
X143105000Y-56744700D01*
%TO.N,Net-(U2C-IO_L15P_T2_DQS_RDWR_B_14)*%
X142240000Y-57880000D02*
X133092000Y-67028500D01*
X133092000Y-67028500D02*
X133092000Y-72136400D01*
%TO.N,/IO/PS2*%
X153602000Y-113394000D02*
X153602000Y-61848800D01*
X146045000Y-56734800D02*
X146045000Y-58773400D01*
X149892000Y-117104000D02*
X153602000Y-113394000D01*
X145190000Y-55880000D02*
X146045000Y-56734800D01*
%TO.N,Net-(U2C-IO_L15N_T2_DQS_DOUT_CSO_B_14)*%
X145190000Y-57880000D02*
X145190000Y-60843700D01*
X131996000Y-72687000D02*
X131380000Y-72070900D01*
X133347000Y-72687000D02*
X131996000Y-72687000D01*
X145190000Y-60843700D02*
X133347000Y-72687000D01*
%TO.N,/IO/SW1*%
X160038000Y-58437700D02*
X160038000Y-101109000D01*
X157480000Y-55880000D02*
X160038000Y-58437700D01*
%TO.N,Net-(U2C-IO_L16P_T2_CSI_B_14)*%
X122390000Y-69859400D02*
X125767000Y-73236700D01*
X120798000Y-71453700D02*
X120798000Y-70815200D01*
X139896000Y-73236700D02*
X155252000Y-57880000D01*
X125767000Y-73236700D02*
X139896000Y-73236700D01*
X155252000Y-57880000D02*
X157480000Y-57880000D01*
X120798000Y-70815200D02*
X121753000Y-69859400D01*
X121753000Y-69859400D02*
X122390000Y-69859400D01*
%TO.N,/IO/SW2*%
X152400000Y-55880000D02*
X153264000Y-56744200D01*
%TO.N,Net-(U2C-IO_L16N_T2_D31_14)*%
X137302000Y-72978300D02*
X126298000Y-72978300D01*
X126298000Y-72978300D02*
X124829000Y-71508600D01*
X152400000Y-57880000D02*
X137302000Y-72978300D01*
%TO.N,/IO/SPI_DQ0*%
X84928200Y-70294400D02*
X84928200Y-68950000D01*
X72905000Y-82317600D02*
X84928200Y-70294400D01*
%TO.N,/IO/SPI_DQ1*%
X70365000Y-75117600D02*
X70544000Y-75296600D01*
X95393300Y-70864700D02*
X89793700Y-76464300D01*
X101837000Y-70864700D02*
X95393300Y-70864700D01*
X70544000Y-75296600D02*
X70544000Y-76464300D01*
%TO.N,/IO/SPI_F_DQ3*%
X118411000Y-65013300D02*
X109390000Y-65013300D01*
X109390000Y-65013300D02*
X109119000Y-64741900D01*
X118952000Y-64472500D02*
X118411000Y-65013300D01*
%TO.N,Net-(U1-VFB1)*%
X47095200Y-46117700D02*
X33467500Y-32490000D01*
X47095200Y-47664800D02*
X47070000Y-47690000D01*
X47095200Y-46117700D02*
X47095200Y-47664800D01*
X33467500Y-32490000D02*
X25781000Y-32490000D01*
X49070000Y-38840000D02*
X47906700Y-40003300D01*
X47906700Y-40003300D02*
X47906700Y-45306200D01*
X47906700Y-45306200D02*
X47095200Y-46117700D01*
%TO.N,Net-(U1-VFB2)*%
X47808000Y-49533000D02*
X47070000Y-50271000D01*
X47808000Y-46002000D02*
X47808000Y-49533000D01*
X47070000Y-50271000D02*
X47070000Y-50640000D01*
X33119000Y-50271000D02*
X47070000Y-50271000D01*
X48306600Y-45503400D02*
X47808000Y-46002000D01*
X20920000Y-33140000D02*
X22410400Y-34630400D01*
X48306600Y-42553400D02*
X48306600Y-45503400D01*
X19939000Y-33140000D02*
X20920000Y-33140000D01*
X49070000Y-41790000D02*
X48306600Y-42553400D01*
X22410400Y-39562400D02*
X33119000Y-50271000D01*
X22410400Y-34630400D02*
X22410400Y-39562400D01*
%TO.N,Net-(U1-VFB3)*%
X36081700Y-53590000D02*
X47070000Y-53590000D01*
X22088800Y-39597100D02*
X36081700Y-53590000D01*
X19081100Y-32907100D02*
X19081100Y-33370000D01*
X49070000Y-44740000D02*
X49070000Y-45096300D01*
X19939000Y-32490000D02*
X19498200Y-32490000D01*
X19498200Y-32490000D02*
X19081100Y-32907100D01*
X22088800Y-36377700D02*
X22088800Y-39597100D01*
X48059900Y-52600100D02*
X47070000Y-53590000D01*
X48059900Y-46106400D02*
X48059900Y-52600100D01*
X19081100Y-33370000D02*
X22088800Y-36377700D01*
X49070000Y-45096300D02*
X48059900Y-46106400D01*
%TD*%
M02*
