%TF.GenerationSoftware,KiCad,Pcbnew,7.0.2*%
%TF.CreationDate,2023-07-10T01:25:34+02:00*%
%TF.ProjectId,FPGA_V2,46504741-5f56-4322-9e6b-696361645f70,rev?*%
%TF.SameCoordinates,Original*%
%TF.FileFunction,Legend,Bot*%
%TF.FilePolarity,Positive*%
%FSLAX46Y46*%
G04 Gerber Fmt 4.6, Leading zero omitted, Abs format (unit mm)*
G04 Created by KiCad (PCBNEW 7.0.2) date 2023-07-10 01:25:34*
%MOMM*%
%LPD*%
G01*
G04 APERTURE LIST*
%ADD10C,0.150000*%
%ADD11C,0.120000*%
%ADD12C,0.152400*%
%ADD13C,0.200000*%
G04 APERTURE END LIST*
D10*
%TO.C,C17*%
X128577380Y-46027142D02*
X128625000Y-45979523D01*
X128625000Y-45979523D02*
X128672619Y-45836666D01*
X128672619Y-45836666D02*
X128672619Y-45741428D01*
X128672619Y-45741428D02*
X128625000Y-45598571D01*
X128625000Y-45598571D02*
X128529761Y-45503333D01*
X128529761Y-45503333D02*
X128434523Y-45455714D01*
X128434523Y-45455714D02*
X128244047Y-45408095D01*
X128244047Y-45408095D02*
X128101190Y-45408095D01*
X128101190Y-45408095D02*
X127910714Y-45455714D01*
X127910714Y-45455714D02*
X127815476Y-45503333D01*
X127815476Y-45503333D02*
X127720238Y-45598571D01*
X127720238Y-45598571D02*
X127672619Y-45741428D01*
X127672619Y-45741428D02*
X127672619Y-45836666D01*
X127672619Y-45836666D02*
X127720238Y-45979523D01*
X127720238Y-45979523D02*
X127767857Y-46027142D01*
X128672619Y-46979523D02*
X128672619Y-46408095D01*
X128672619Y-46693809D02*
X127672619Y-46693809D01*
X127672619Y-46693809D02*
X127815476Y-46598571D01*
X127815476Y-46598571D02*
X127910714Y-46503333D01*
X127910714Y-46503333D02*
X127958333Y-46408095D01*
X127672619Y-47312857D02*
X127672619Y-47979523D01*
X127672619Y-47979523D02*
X128672619Y-47550952D01*
%TO.C,C24*%
X35212857Y-54567380D02*
X35260476Y-54615000D01*
X35260476Y-54615000D02*
X35403333Y-54662619D01*
X35403333Y-54662619D02*
X35498571Y-54662619D01*
X35498571Y-54662619D02*
X35641428Y-54615000D01*
X35641428Y-54615000D02*
X35736666Y-54519761D01*
X35736666Y-54519761D02*
X35784285Y-54424523D01*
X35784285Y-54424523D02*
X35831904Y-54234047D01*
X35831904Y-54234047D02*
X35831904Y-54091190D01*
X35831904Y-54091190D02*
X35784285Y-53900714D01*
X35784285Y-53900714D02*
X35736666Y-53805476D01*
X35736666Y-53805476D02*
X35641428Y-53710238D01*
X35641428Y-53710238D02*
X35498571Y-53662619D01*
X35498571Y-53662619D02*
X35403333Y-53662619D01*
X35403333Y-53662619D02*
X35260476Y-53710238D01*
X35260476Y-53710238D02*
X35212857Y-53757857D01*
X34831904Y-53757857D02*
X34784285Y-53710238D01*
X34784285Y-53710238D02*
X34689047Y-53662619D01*
X34689047Y-53662619D02*
X34450952Y-53662619D01*
X34450952Y-53662619D02*
X34355714Y-53710238D01*
X34355714Y-53710238D02*
X34308095Y-53757857D01*
X34308095Y-53757857D02*
X34260476Y-53853095D01*
X34260476Y-53853095D02*
X34260476Y-53948333D01*
X34260476Y-53948333D02*
X34308095Y-54091190D01*
X34308095Y-54091190D02*
X34879523Y-54662619D01*
X34879523Y-54662619D02*
X34260476Y-54662619D01*
X33403333Y-53995952D02*
X33403333Y-54662619D01*
X33641428Y-53615000D02*
X33879523Y-54329285D01*
X33879523Y-54329285D02*
X33260476Y-54329285D01*
%TO.C,RN1*%
X69770476Y-35812619D02*
X70103809Y-35336428D01*
X70341904Y-35812619D02*
X70341904Y-34812619D01*
X70341904Y-34812619D02*
X69960952Y-34812619D01*
X69960952Y-34812619D02*
X69865714Y-34860238D01*
X69865714Y-34860238D02*
X69818095Y-34907857D01*
X69818095Y-34907857D02*
X69770476Y-35003095D01*
X69770476Y-35003095D02*
X69770476Y-35145952D01*
X69770476Y-35145952D02*
X69818095Y-35241190D01*
X69818095Y-35241190D02*
X69865714Y-35288809D01*
X69865714Y-35288809D02*
X69960952Y-35336428D01*
X69960952Y-35336428D02*
X70341904Y-35336428D01*
X69341904Y-35812619D02*
X69341904Y-34812619D01*
X69341904Y-34812619D02*
X68770476Y-35812619D01*
X68770476Y-35812619D02*
X68770476Y-34812619D01*
X67770476Y-35812619D02*
X68341904Y-35812619D01*
X68056190Y-35812619D02*
X68056190Y-34812619D01*
X68056190Y-34812619D02*
X68151428Y-34955476D01*
X68151428Y-34955476D02*
X68246666Y-35050714D01*
X68246666Y-35050714D02*
X68341904Y-35098333D01*
%TO.C,R33*%
X143882857Y-72472619D02*
X144216190Y-71996428D01*
X144454285Y-72472619D02*
X144454285Y-71472619D01*
X144454285Y-71472619D02*
X144073333Y-71472619D01*
X144073333Y-71472619D02*
X143978095Y-71520238D01*
X143978095Y-71520238D02*
X143930476Y-71567857D01*
X143930476Y-71567857D02*
X143882857Y-71663095D01*
X143882857Y-71663095D02*
X143882857Y-71805952D01*
X143882857Y-71805952D02*
X143930476Y-71901190D01*
X143930476Y-71901190D02*
X143978095Y-71948809D01*
X143978095Y-71948809D02*
X144073333Y-71996428D01*
X144073333Y-71996428D02*
X144454285Y-71996428D01*
X143549523Y-71472619D02*
X142930476Y-71472619D01*
X142930476Y-71472619D02*
X143263809Y-71853571D01*
X143263809Y-71853571D02*
X143120952Y-71853571D01*
X143120952Y-71853571D02*
X143025714Y-71901190D01*
X143025714Y-71901190D02*
X142978095Y-71948809D01*
X142978095Y-71948809D02*
X142930476Y-72044047D01*
X142930476Y-72044047D02*
X142930476Y-72282142D01*
X142930476Y-72282142D02*
X142978095Y-72377380D01*
X142978095Y-72377380D02*
X143025714Y-72425000D01*
X143025714Y-72425000D02*
X143120952Y-72472619D01*
X143120952Y-72472619D02*
X143406666Y-72472619D01*
X143406666Y-72472619D02*
X143501904Y-72425000D01*
X143501904Y-72425000D02*
X143549523Y-72377380D01*
X142597142Y-71472619D02*
X141978095Y-71472619D01*
X141978095Y-71472619D02*
X142311428Y-71853571D01*
X142311428Y-71853571D02*
X142168571Y-71853571D01*
X142168571Y-71853571D02*
X142073333Y-71901190D01*
X142073333Y-71901190D02*
X142025714Y-71948809D01*
X142025714Y-71948809D02*
X141978095Y-72044047D01*
X141978095Y-72044047D02*
X141978095Y-72282142D01*
X141978095Y-72282142D02*
X142025714Y-72377380D01*
X142025714Y-72377380D02*
X142073333Y-72425000D01*
X142073333Y-72425000D02*
X142168571Y-72472619D01*
X142168571Y-72472619D02*
X142454285Y-72472619D01*
X142454285Y-72472619D02*
X142549523Y-72425000D01*
X142549523Y-72425000D02*
X142597142Y-72377380D01*
%TO.C,C10*%
X128577380Y-51107142D02*
X128625000Y-51059523D01*
X128625000Y-51059523D02*
X128672619Y-50916666D01*
X128672619Y-50916666D02*
X128672619Y-50821428D01*
X128672619Y-50821428D02*
X128625000Y-50678571D01*
X128625000Y-50678571D02*
X128529761Y-50583333D01*
X128529761Y-50583333D02*
X128434523Y-50535714D01*
X128434523Y-50535714D02*
X128244047Y-50488095D01*
X128244047Y-50488095D02*
X128101190Y-50488095D01*
X128101190Y-50488095D02*
X127910714Y-50535714D01*
X127910714Y-50535714D02*
X127815476Y-50583333D01*
X127815476Y-50583333D02*
X127720238Y-50678571D01*
X127720238Y-50678571D02*
X127672619Y-50821428D01*
X127672619Y-50821428D02*
X127672619Y-50916666D01*
X127672619Y-50916666D02*
X127720238Y-51059523D01*
X127720238Y-51059523D02*
X127767857Y-51107142D01*
X128672619Y-52059523D02*
X128672619Y-51488095D01*
X128672619Y-51773809D02*
X127672619Y-51773809D01*
X127672619Y-51773809D02*
X127815476Y-51678571D01*
X127815476Y-51678571D02*
X127910714Y-51583333D01*
X127910714Y-51583333D02*
X127958333Y-51488095D01*
X127672619Y-52678571D02*
X127672619Y-52773809D01*
X127672619Y-52773809D02*
X127720238Y-52869047D01*
X127720238Y-52869047D02*
X127767857Y-52916666D01*
X127767857Y-52916666D02*
X127863095Y-52964285D01*
X127863095Y-52964285D02*
X128053571Y-53011904D01*
X128053571Y-53011904D02*
X128291666Y-53011904D01*
X128291666Y-53011904D02*
X128482142Y-52964285D01*
X128482142Y-52964285D02*
X128577380Y-52916666D01*
X128577380Y-52916666D02*
X128625000Y-52869047D01*
X128625000Y-52869047D02*
X128672619Y-52773809D01*
X128672619Y-52773809D02*
X128672619Y-52678571D01*
X128672619Y-52678571D02*
X128625000Y-52583333D01*
X128625000Y-52583333D02*
X128577380Y-52535714D01*
X128577380Y-52535714D02*
X128482142Y-52488095D01*
X128482142Y-52488095D02*
X128291666Y-52440476D01*
X128291666Y-52440476D02*
X128053571Y-52440476D01*
X128053571Y-52440476D02*
X127863095Y-52488095D01*
X127863095Y-52488095D02*
X127767857Y-52535714D01*
X127767857Y-52535714D02*
X127720238Y-52583333D01*
X127720238Y-52583333D02*
X127672619Y-52678571D01*
%TO.C,C36*%
X76577380Y-74334742D02*
X76625000Y-74287123D01*
X76625000Y-74287123D02*
X76672619Y-74144266D01*
X76672619Y-74144266D02*
X76672619Y-74049028D01*
X76672619Y-74049028D02*
X76625000Y-73906171D01*
X76625000Y-73906171D02*
X76529761Y-73810933D01*
X76529761Y-73810933D02*
X76434523Y-73763314D01*
X76434523Y-73763314D02*
X76244047Y-73715695D01*
X76244047Y-73715695D02*
X76101190Y-73715695D01*
X76101190Y-73715695D02*
X75910714Y-73763314D01*
X75910714Y-73763314D02*
X75815476Y-73810933D01*
X75815476Y-73810933D02*
X75720238Y-73906171D01*
X75720238Y-73906171D02*
X75672619Y-74049028D01*
X75672619Y-74049028D02*
X75672619Y-74144266D01*
X75672619Y-74144266D02*
X75720238Y-74287123D01*
X75720238Y-74287123D02*
X75767857Y-74334742D01*
X75672619Y-74668076D02*
X75672619Y-75287123D01*
X75672619Y-75287123D02*
X76053571Y-74953790D01*
X76053571Y-74953790D02*
X76053571Y-75096647D01*
X76053571Y-75096647D02*
X76101190Y-75191885D01*
X76101190Y-75191885D02*
X76148809Y-75239504D01*
X76148809Y-75239504D02*
X76244047Y-75287123D01*
X76244047Y-75287123D02*
X76482142Y-75287123D01*
X76482142Y-75287123D02*
X76577380Y-75239504D01*
X76577380Y-75239504D02*
X76625000Y-75191885D01*
X76625000Y-75191885D02*
X76672619Y-75096647D01*
X76672619Y-75096647D02*
X76672619Y-74810933D01*
X76672619Y-74810933D02*
X76625000Y-74715695D01*
X76625000Y-74715695D02*
X76577380Y-74668076D01*
X75672619Y-76144266D02*
X75672619Y-75953790D01*
X75672619Y-75953790D02*
X75720238Y-75858552D01*
X75720238Y-75858552D02*
X75767857Y-75810933D01*
X75767857Y-75810933D02*
X75910714Y-75715695D01*
X75910714Y-75715695D02*
X76101190Y-75668076D01*
X76101190Y-75668076D02*
X76482142Y-75668076D01*
X76482142Y-75668076D02*
X76577380Y-75715695D01*
X76577380Y-75715695D02*
X76625000Y-75763314D01*
X76625000Y-75763314D02*
X76672619Y-75858552D01*
X76672619Y-75858552D02*
X76672619Y-76049028D01*
X76672619Y-76049028D02*
X76625000Y-76144266D01*
X76625000Y-76144266D02*
X76577380Y-76191885D01*
X76577380Y-76191885D02*
X76482142Y-76239504D01*
X76482142Y-76239504D02*
X76244047Y-76239504D01*
X76244047Y-76239504D02*
X76148809Y-76191885D01*
X76148809Y-76191885D02*
X76101190Y-76144266D01*
X76101190Y-76144266D02*
X76053571Y-76049028D01*
X76053571Y-76049028D02*
X76053571Y-75858552D01*
X76053571Y-75858552D02*
X76101190Y-75763314D01*
X76101190Y-75763314D02*
X76148809Y-75715695D01*
X76148809Y-75715695D02*
X76244047Y-75668076D01*
%TO.C,R75*%
X105492619Y-118392142D02*
X105016428Y-118058809D01*
X105492619Y-117820714D02*
X104492619Y-117820714D01*
X104492619Y-117820714D02*
X104492619Y-118201666D01*
X104492619Y-118201666D02*
X104540238Y-118296904D01*
X104540238Y-118296904D02*
X104587857Y-118344523D01*
X104587857Y-118344523D02*
X104683095Y-118392142D01*
X104683095Y-118392142D02*
X104825952Y-118392142D01*
X104825952Y-118392142D02*
X104921190Y-118344523D01*
X104921190Y-118344523D02*
X104968809Y-118296904D01*
X104968809Y-118296904D02*
X105016428Y-118201666D01*
X105016428Y-118201666D02*
X105016428Y-117820714D01*
X104492619Y-118725476D02*
X104492619Y-119392142D01*
X104492619Y-119392142D02*
X105492619Y-118963571D01*
X104492619Y-120249285D02*
X104492619Y-119773095D01*
X104492619Y-119773095D02*
X104968809Y-119725476D01*
X104968809Y-119725476D02*
X104921190Y-119773095D01*
X104921190Y-119773095D02*
X104873571Y-119868333D01*
X104873571Y-119868333D02*
X104873571Y-120106428D01*
X104873571Y-120106428D02*
X104921190Y-120201666D01*
X104921190Y-120201666D02*
X104968809Y-120249285D01*
X104968809Y-120249285D02*
X105064047Y-120296904D01*
X105064047Y-120296904D02*
X105302142Y-120296904D01*
X105302142Y-120296904D02*
X105397380Y-120249285D01*
X105397380Y-120249285D02*
X105445000Y-120201666D01*
X105445000Y-120201666D02*
X105492619Y-120106428D01*
X105492619Y-120106428D02*
X105492619Y-119868333D01*
X105492619Y-119868333D02*
X105445000Y-119773095D01*
X105445000Y-119773095D02*
X105397380Y-119725476D01*
%TO.C,C4*%
X131942470Y-54829742D02*
X131990090Y-54782123D01*
X131990090Y-54782123D02*
X132037709Y-54639266D01*
X132037709Y-54639266D02*
X132037709Y-54544028D01*
X132037709Y-54544028D02*
X131990090Y-54401171D01*
X131990090Y-54401171D02*
X131894851Y-54305933D01*
X131894851Y-54305933D02*
X131799613Y-54258314D01*
X131799613Y-54258314D02*
X131609137Y-54210695D01*
X131609137Y-54210695D02*
X131466280Y-54210695D01*
X131466280Y-54210695D02*
X131275804Y-54258314D01*
X131275804Y-54258314D02*
X131180566Y-54305933D01*
X131180566Y-54305933D02*
X131085328Y-54401171D01*
X131085328Y-54401171D02*
X131037709Y-54544028D01*
X131037709Y-54544028D02*
X131037709Y-54639266D01*
X131037709Y-54639266D02*
X131085328Y-54782123D01*
X131085328Y-54782123D02*
X131132947Y-54829742D01*
X131371042Y-55686885D02*
X132037709Y-55686885D01*
X130990090Y-55448790D02*
X131704375Y-55210695D01*
X131704375Y-55210695D02*
X131704375Y-55829742D01*
%TO.C,C16*%
X133040280Y-46021542D02*
X133087900Y-45973923D01*
X133087900Y-45973923D02*
X133135519Y-45831066D01*
X133135519Y-45831066D02*
X133135519Y-45735828D01*
X133135519Y-45735828D02*
X133087900Y-45592971D01*
X133087900Y-45592971D02*
X132992661Y-45497733D01*
X132992661Y-45497733D02*
X132897423Y-45450114D01*
X132897423Y-45450114D02*
X132706947Y-45402495D01*
X132706947Y-45402495D02*
X132564090Y-45402495D01*
X132564090Y-45402495D02*
X132373614Y-45450114D01*
X132373614Y-45450114D02*
X132278376Y-45497733D01*
X132278376Y-45497733D02*
X132183138Y-45592971D01*
X132183138Y-45592971D02*
X132135519Y-45735828D01*
X132135519Y-45735828D02*
X132135519Y-45831066D01*
X132135519Y-45831066D02*
X132183138Y-45973923D01*
X132183138Y-45973923D02*
X132230757Y-46021542D01*
X133135519Y-46973923D02*
X133135519Y-46402495D01*
X133135519Y-46688209D02*
X132135519Y-46688209D01*
X132135519Y-46688209D02*
X132278376Y-46592971D01*
X132278376Y-46592971D02*
X132373614Y-46497733D01*
X132373614Y-46497733D02*
X132421233Y-46402495D01*
X132135519Y-47831066D02*
X132135519Y-47640590D01*
X132135519Y-47640590D02*
X132183138Y-47545352D01*
X132183138Y-47545352D02*
X132230757Y-47497733D01*
X132230757Y-47497733D02*
X132373614Y-47402495D01*
X132373614Y-47402495D02*
X132564090Y-47354876D01*
X132564090Y-47354876D02*
X132945042Y-47354876D01*
X132945042Y-47354876D02*
X133040280Y-47402495D01*
X133040280Y-47402495D02*
X133087900Y-47450114D01*
X133087900Y-47450114D02*
X133135519Y-47545352D01*
X133135519Y-47545352D02*
X133135519Y-47735828D01*
X133135519Y-47735828D02*
X133087900Y-47831066D01*
X133087900Y-47831066D02*
X133040280Y-47878685D01*
X133040280Y-47878685D02*
X132945042Y-47926304D01*
X132945042Y-47926304D02*
X132706947Y-47926304D01*
X132706947Y-47926304D02*
X132611709Y-47878685D01*
X132611709Y-47878685D02*
X132564090Y-47831066D01*
X132564090Y-47831066D02*
X132516471Y-47735828D01*
X132516471Y-47735828D02*
X132516471Y-47545352D01*
X132516471Y-47545352D02*
X132564090Y-47450114D01*
X132564090Y-47450114D02*
X132611709Y-47402495D01*
X132611709Y-47402495D02*
X132706947Y-47354876D01*
%TO.C,R77*%
X108079519Y-92456742D02*
X107603328Y-92123409D01*
X108079519Y-91885314D02*
X107079519Y-91885314D01*
X107079519Y-91885314D02*
X107079519Y-92266266D01*
X107079519Y-92266266D02*
X107127138Y-92361504D01*
X107127138Y-92361504D02*
X107174757Y-92409123D01*
X107174757Y-92409123D02*
X107269995Y-92456742D01*
X107269995Y-92456742D02*
X107412852Y-92456742D01*
X107412852Y-92456742D02*
X107508090Y-92409123D01*
X107508090Y-92409123D02*
X107555709Y-92361504D01*
X107555709Y-92361504D02*
X107603328Y-92266266D01*
X107603328Y-92266266D02*
X107603328Y-91885314D01*
X107079519Y-92790076D02*
X107079519Y-93456742D01*
X107079519Y-93456742D02*
X108079519Y-93028171D01*
X107079519Y-93742457D02*
X107079519Y-94409123D01*
X107079519Y-94409123D02*
X108079519Y-93980552D01*
%TO.C,R81*%
X152862619Y-52697142D02*
X152386428Y-52363809D01*
X152862619Y-52125714D02*
X151862619Y-52125714D01*
X151862619Y-52125714D02*
X151862619Y-52506666D01*
X151862619Y-52506666D02*
X151910238Y-52601904D01*
X151910238Y-52601904D02*
X151957857Y-52649523D01*
X151957857Y-52649523D02*
X152053095Y-52697142D01*
X152053095Y-52697142D02*
X152195952Y-52697142D01*
X152195952Y-52697142D02*
X152291190Y-52649523D01*
X152291190Y-52649523D02*
X152338809Y-52601904D01*
X152338809Y-52601904D02*
X152386428Y-52506666D01*
X152386428Y-52506666D02*
X152386428Y-52125714D01*
X152291190Y-53268571D02*
X152243571Y-53173333D01*
X152243571Y-53173333D02*
X152195952Y-53125714D01*
X152195952Y-53125714D02*
X152100714Y-53078095D01*
X152100714Y-53078095D02*
X152053095Y-53078095D01*
X152053095Y-53078095D02*
X151957857Y-53125714D01*
X151957857Y-53125714D02*
X151910238Y-53173333D01*
X151910238Y-53173333D02*
X151862619Y-53268571D01*
X151862619Y-53268571D02*
X151862619Y-53459047D01*
X151862619Y-53459047D02*
X151910238Y-53554285D01*
X151910238Y-53554285D02*
X151957857Y-53601904D01*
X151957857Y-53601904D02*
X152053095Y-53649523D01*
X152053095Y-53649523D02*
X152100714Y-53649523D01*
X152100714Y-53649523D02*
X152195952Y-53601904D01*
X152195952Y-53601904D02*
X152243571Y-53554285D01*
X152243571Y-53554285D02*
X152291190Y-53459047D01*
X152291190Y-53459047D02*
X152291190Y-53268571D01*
X152291190Y-53268571D02*
X152338809Y-53173333D01*
X152338809Y-53173333D02*
X152386428Y-53125714D01*
X152386428Y-53125714D02*
X152481666Y-53078095D01*
X152481666Y-53078095D02*
X152672142Y-53078095D01*
X152672142Y-53078095D02*
X152767380Y-53125714D01*
X152767380Y-53125714D02*
X152815000Y-53173333D01*
X152815000Y-53173333D02*
X152862619Y-53268571D01*
X152862619Y-53268571D02*
X152862619Y-53459047D01*
X152862619Y-53459047D02*
X152815000Y-53554285D01*
X152815000Y-53554285D02*
X152767380Y-53601904D01*
X152767380Y-53601904D02*
X152672142Y-53649523D01*
X152672142Y-53649523D02*
X152481666Y-53649523D01*
X152481666Y-53649523D02*
X152386428Y-53601904D01*
X152386428Y-53601904D02*
X152338809Y-53554285D01*
X152338809Y-53554285D02*
X152291190Y-53459047D01*
X152862619Y-54601904D02*
X152862619Y-54030476D01*
X152862619Y-54316190D02*
X151862619Y-54316190D01*
X151862619Y-54316190D02*
X152005476Y-54220952D01*
X152005476Y-54220952D02*
X152100714Y-54125714D01*
X152100714Y-54125714D02*
X152148333Y-54030476D01*
%TO.C,R78*%
X141052619Y-56237142D02*
X140576428Y-55903809D01*
X141052619Y-55665714D02*
X140052619Y-55665714D01*
X140052619Y-55665714D02*
X140052619Y-56046666D01*
X140052619Y-56046666D02*
X140100238Y-56141904D01*
X140100238Y-56141904D02*
X140147857Y-56189523D01*
X140147857Y-56189523D02*
X140243095Y-56237142D01*
X140243095Y-56237142D02*
X140385952Y-56237142D01*
X140385952Y-56237142D02*
X140481190Y-56189523D01*
X140481190Y-56189523D02*
X140528809Y-56141904D01*
X140528809Y-56141904D02*
X140576428Y-56046666D01*
X140576428Y-56046666D02*
X140576428Y-55665714D01*
X140052619Y-56570476D02*
X140052619Y-57237142D01*
X140052619Y-57237142D02*
X141052619Y-56808571D01*
X140481190Y-57760952D02*
X140433571Y-57665714D01*
X140433571Y-57665714D02*
X140385952Y-57618095D01*
X140385952Y-57618095D02*
X140290714Y-57570476D01*
X140290714Y-57570476D02*
X140243095Y-57570476D01*
X140243095Y-57570476D02*
X140147857Y-57618095D01*
X140147857Y-57618095D02*
X140100238Y-57665714D01*
X140100238Y-57665714D02*
X140052619Y-57760952D01*
X140052619Y-57760952D02*
X140052619Y-57951428D01*
X140052619Y-57951428D02*
X140100238Y-58046666D01*
X140100238Y-58046666D02*
X140147857Y-58094285D01*
X140147857Y-58094285D02*
X140243095Y-58141904D01*
X140243095Y-58141904D02*
X140290714Y-58141904D01*
X140290714Y-58141904D02*
X140385952Y-58094285D01*
X140385952Y-58094285D02*
X140433571Y-58046666D01*
X140433571Y-58046666D02*
X140481190Y-57951428D01*
X140481190Y-57951428D02*
X140481190Y-57760952D01*
X140481190Y-57760952D02*
X140528809Y-57665714D01*
X140528809Y-57665714D02*
X140576428Y-57618095D01*
X140576428Y-57618095D02*
X140671666Y-57570476D01*
X140671666Y-57570476D02*
X140862142Y-57570476D01*
X140862142Y-57570476D02*
X140957380Y-57618095D01*
X140957380Y-57618095D02*
X141005000Y-57665714D01*
X141005000Y-57665714D02*
X141052619Y-57760952D01*
X141052619Y-57760952D02*
X141052619Y-57951428D01*
X141052619Y-57951428D02*
X141005000Y-58046666D01*
X141005000Y-58046666D02*
X140957380Y-58094285D01*
X140957380Y-58094285D02*
X140862142Y-58141904D01*
X140862142Y-58141904D02*
X140671666Y-58141904D01*
X140671666Y-58141904D02*
X140576428Y-58094285D01*
X140576428Y-58094285D02*
X140528809Y-58046666D01*
X140528809Y-58046666D02*
X140481190Y-57951428D01*
%TO.C,R6*%
X48236666Y-49452619D02*
X48569999Y-48976428D01*
X48808094Y-49452619D02*
X48808094Y-48452619D01*
X48808094Y-48452619D02*
X48427142Y-48452619D01*
X48427142Y-48452619D02*
X48331904Y-48500238D01*
X48331904Y-48500238D02*
X48284285Y-48547857D01*
X48284285Y-48547857D02*
X48236666Y-48643095D01*
X48236666Y-48643095D02*
X48236666Y-48785952D01*
X48236666Y-48785952D02*
X48284285Y-48881190D01*
X48284285Y-48881190D02*
X48331904Y-48928809D01*
X48331904Y-48928809D02*
X48427142Y-48976428D01*
X48427142Y-48976428D02*
X48808094Y-48976428D01*
X47379523Y-48452619D02*
X47569999Y-48452619D01*
X47569999Y-48452619D02*
X47665237Y-48500238D01*
X47665237Y-48500238D02*
X47712856Y-48547857D01*
X47712856Y-48547857D02*
X47808094Y-48690714D01*
X47808094Y-48690714D02*
X47855713Y-48881190D01*
X47855713Y-48881190D02*
X47855713Y-49262142D01*
X47855713Y-49262142D02*
X47808094Y-49357380D01*
X47808094Y-49357380D02*
X47760475Y-49405000D01*
X47760475Y-49405000D02*
X47665237Y-49452619D01*
X47665237Y-49452619D02*
X47474761Y-49452619D01*
X47474761Y-49452619D02*
X47379523Y-49405000D01*
X47379523Y-49405000D02*
X47331904Y-49357380D01*
X47331904Y-49357380D02*
X47284285Y-49262142D01*
X47284285Y-49262142D02*
X47284285Y-49024047D01*
X47284285Y-49024047D02*
X47331904Y-48928809D01*
X47331904Y-48928809D02*
X47379523Y-48881190D01*
X47379523Y-48881190D02*
X47474761Y-48833571D01*
X47474761Y-48833571D02*
X47665237Y-48833571D01*
X47665237Y-48833571D02*
X47760475Y-48881190D01*
X47760475Y-48881190D02*
X47808094Y-48928809D01*
X47808094Y-48928809D02*
X47855713Y-49024047D01*
%TO.C,R76*%
X42752619Y-91142142D02*
X42276428Y-90808809D01*
X42752619Y-90570714D02*
X41752619Y-90570714D01*
X41752619Y-90570714D02*
X41752619Y-90951666D01*
X41752619Y-90951666D02*
X41800238Y-91046904D01*
X41800238Y-91046904D02*
X41847857Y-91094523D01*
X41847857Y-91094523D02*
X41943095Y-91142142D01*
X41943095Y-91142142D02*
X42085952Y-91142142D01*
X42085952Y-91142142D02*
X42181190Y-91094523D01*
X42181190Y-91094523D02*
X42228809Y-91046904D01*
X42228809Y-91046904D02*
X42276428Y-90951666D01*
X42276428Y-90951666D02*
X42276428Y-90570714D01*
X41752619Y-91475476D02*
X41752619Y-92142142D01*
X41752619Y-92142142D02*
X42752619Y-91713571D01*
X41752619Y-92951666D02*
X41752619Y-92761190D01*
X41752619Y-92761190D02*
X41800238Y-92665952D01*
X41800238Y-92665952D02*
X41847857Y-92618333D01*
X41847857Y-92618333D02*
X41990714Y-92523095D01*
X41990714Y-92523095D02*
X42181190Y-92475476D01*
X42181190Y-92475476D02*
X42562142Y-92475476D01*
X42562142Y-92475476D02*
X42657380Y-92523095D01*
X42657380Y-92523095D02*
X42705000Y-92570714D01*
X42705000Y-92570714D02*
X42752619Y-92665952D01*
X42752619Y-92665952D02*
X42752619Y-92856428D01*
X42752619Y-92856428D02*
X42705000Y-92951666D01*
X42705000Y-92951666D02*
X42657380Y-92999285D01*
X42657380Y-92999285D02*
X42562142Y-93046904D01*
X42562142Y-93046904D02*
X42324047Y-93046904D01*
X42324047Y-93046904D02*
X42228809Y-92999285D01*
X42228809Y-92999285D02*
X42181190Y-92951666D01*
X42181190Y-92951666D02*
X42133571Y-92856428D01*
X42133571Y-92856428D02*
X42133571Y-92665952D01*
X42133571Y-92665952D02*
X42181190Y-92570714D01*
X42181190Y-92570714D02*
X42228809Y-92523095D01*
X42228809Y-92523095D02*
X42324047Y-92475476D01*
%TO.C,C21*%
X40332857Y-59647380D02*
X40380476Y-59695000D01*
X40380476Y-59695000D02*
X40523333Y-59742619D01*
X40523333Y-59742619D02*
X40618571Y-59742619D01*
X40618571Y-59742619D02*
X40761428Y-59695000D01*
X40761428Y-59695000D02*
X40856666Y-59599761D01*
X40856666Y-59599761D02*
X40904285Y-59504523D01*
X40904285Y-59504523D02*
X40951904Y-59314047D01*
X40951904Y-59314047D02*
X40951904Y-59171190D01*
X40951904Y-59171190D02*
X40904285Y-58980714D01*
X40904285Y-58980714D02*
X40856666Y-58885476D01*
X40856666Y-58885476D02*
X40761428Y-58790238D01*
X40761428Y-58790238D02*
X40618571Y-58742619D01*
X40618571Y-58742619D02*
X40523333Y-58742619D01*
X40523333Y-58742619D02*
X40380476Y-58790238D01*
X40380476Y-58790238D02*
X40332857Y-58837857D01*
X39951904Y-58837857D02*
X39904285Y-58790238D01*
X39904285Y-58790238D02*
X39809047Y-58742619D01*
X39809047Y-58742619D02*
X39570952Y-58742619D01*
X39570952Y-58742619D02*
X39475714Y-58790238D01*
X39475714Y-58790238D02*
X39428095Y-58837857D01*
X39428095Y-58837857D02*
X39380476Y-58933095D01*
X39380476Y-58933095D02*
X39380476Y-59028333D01*
X39380476Y-59028333D02*
X39428095Y-59171190D01*
X39428095Y-59171190D02*
X39999523Y-59742619D01*
X39999523Y-59742619D02*
X39380476Y-59742619D01*
X38428095Y-59742619D02*
X38999523Y-59742619D01*
X38713809Y-59742619D02*
X38713809Y-58742619D01*
X38713809Y-58742619D02*
X38809047Y-58885476D01*
X38809047Y-58885476D02*
X38904285Y-58980714D01*
X38904285Y-58980714D02*
X38999523Y-59028333D01*
%TO.C,C27*%
X35252857Y-64727380D02*
X35300476Y-64775000D01*
X35300476Y-64775000D02*
X35443333Y-64822619D01*
X35443333Y-64822619D02*
X35538571Y-64822619D01*
X35538571Y-64822619D02*
X35681428Y-64775000D01*
X35681428Y-64775000D02*
X35776666Y-64679761D01*
X35776666Y-64679761D02*
X35824285Y-64584523D01*
X35824285Y-64584523D02*
X35871904Y-64394047D01*
X35871904Y-64394047D02*
X35871904Y-64251190D01*
X35871904Y-64251190D02*
X35824285Y-64060714D01*
X35824285Y-64060714D02*
X35776666Y-63965476D01*
X35776666Y-63965476D02*
X35681428Y-63870238D01*
X35681428Y-63870238D02*
X35538571Y-63822619D01*
X35538571Y-63822619D02*
X35443333Y-63822619D01*
X35443333Y-63822619D02*
X35300476Y-63870238D01*
X35300476Y-63870238D02*
X35252857Y-63917857D01*
X34871904Y-63917857D02*
X34824285Y-63870238D01*
X34824285Y-63870238D02*
X34729047Y-63822619D01*
X34729047Y-63822619D02*
X34490952Y-63822619D01*
X34490952Y-63822619D02*
X34395714Y-63870238D01*
X34395714Y-63870238D02*
X34348095Y-63917857D01*
X34348095Y-63917857D02*
X34300476Y-64013095D01*
X34300476Y-64013095D02*
X34300476Y-64108333D01*
X34300476Y-64108333D02*
X34348095Y-64251190D01*
X34348095Y-64251190D02*
X34919523Y-64822619D01*
X34919523Y-64822619D02*
X34300476Y-64822619D01*
X33967142Y-63822619D02*
X33300476Y-63822619D01*
X33300476Y-63822619D02*
X33729047Y-64822619D01*
%TO.C,C11*%
X123967380Y-51107142D02*
X124015000Y-51059523D01*
X124015000Y-51059523D02*
X124062619Y-50916666D01*
X124062619Y-50916666D02*
X124062619Y-50821428D01*
X124062619Y-50821428D02*
X124015000Y-50678571D01*
X124015000Y-50678571D02*
X123919761Y-50583333D01*
X123919761Y-50583333D02*
X123824523Y-50535714D01*
X123824523Y-50535714D02*
X123634047Y-50488095D01*
X123634047Y-50488095D02*
X123491190Y-50488095D01*
X123491190Y-50488095D02*
X123300714Y-50535714D01*
X123300714Y-50535714D02*
X123205476Y-50583333D01*
X123205476Y-50583333D02*
X123110238Y-50678571D01*
X123110238Y-50678571D02*
X123062619Y-50821428D01*
X123062619Y-50821428D02*
X123062619Y-50916666D01*
X123062619Y-50916666D02*
X123110238Y-51059523D01*
X123110238Y-51059523D02*
X123157857Y-51107142D01*
X124062619Y-52059523D02*
X124062619Y-51488095D01*
X124062619Y-51773809D02*
X123062619Y-51773809D01*
X123062619Y-51773809D02*
X123205476Y-51678571D01*
X123205476Y-51678571D02*
X123300714Y-51583333D01*
X123300714Y-51583333D02*
X123348333Y-51488095D01*
X124062619Y-53011904D02*
X124062619Y-52440476D01*
X124062619Y-52726190D02*
X123062619Y-52726190D01*
X123062619Y-52726190D02*
X123205476Y-52630952D01*
X123205476Y-52630952D02*
X123300714Y-52535714D01*
X123300714Y-52535714D02*
X123348333Y-52440476D01*
%TO.C,R73*%
X54692619Y-119732542D02*
X54216428Y-119399209D01*
X54692619Y-119161114D02*
X53692619Y-119161114D01*
X53692619Y-119161114D02*
X53692619Y-119542066D01*
X53692619Y-119542066D02*
X53740238Y-119637304D01*
X53740238Y-119637304D02*
X53787857Y-119684923D01*
X53787857Y-119684923D02*
X53883095Y-119732542D01*
X53883095Y-119732542D02*
X54025952Y-119732542D01*
X54025952Y-119732542D02*
X54121190Y-119684923D01*
X54121190Y-119684923D02*
X54168809Y-119637304D01*
X54168809Y-119637304D02*
X54216428Y-119542066D01*
X54216428Y-119542066D02*
X54216428Y-119161114D01*
X53692619Y-120065876D02*
X53692619Y-120732542D01*
X53692619Y-120732542D02*
X54692619Y-120303971D01*
X53692619Y-121018257D02*
X53692619Y-121637304D01*
X53692619Y-121637304D02*
X54073571Y-121303971D01*
X54073571Y-121303971D02*
X54073571Y-121446828D01*
X54073571Y-121446828D02*
X54121190Y-121542066D01*
X54121190Y-121542066D02*
X54168809Y-121589685D01*
X54168809Y-121589685D02*
X54264047Y-121637304D01*
X54264047Y-121637304D02*
X54502142Y-121637304D01*
X54502142Y-121637304D02*
X54597380Y-121589685D01*
X54597380Y-121589685D02*
X54645000Y-121542066D01*
X54645000Y-121542066D02*
X54692619Y-121446828D01*
X54692619Y-121446828D02*
X54692619Y-121161114D01*
X54692619Y-121161114D02*
X54645000Y-121065876D01*
X54645000Y-121065876D02*
X54597380Y-121018257D01*
%TO.C,U3*%
X66872619Y-77955695D02*
X67682142Y-77955695D01*
X67682142Y-77955695D02*
X67777380Y-78003314D01*
X67777380Y-78003314D02*
X67825000Y-78050933D01*
X67825000Y-78050933D02*
X67872619Y-78146171D01*
X67872619Y-78146171D02*
X67872619Y-78336647D01*
X67872619Y-78336647D02*
X67825000Y-78431885D01*
X67825000Y-78431885D02*
X67777380Y-78479504D01*
X67777380Y-78479504D02*
X67682142Y-78527123D01*
X67682142Y-78527123D02*
X66872619Y-78527123D01*
X66872619Y-78908076D02*
X66872619Y-79527123D01*
X66872619Y-79527123D02*
X67253571Y-79193790D01*
X67253571Y-79193790D02*
X67253571Y-79336647D01*
X67253571Y-79336647D02*
X67301190Y-79431885D01*
X67301190Y-79431885D02*
X67348809Y-79479504D01*
X67348809Y-79479504D02*
X67444047Y-79527123D01*
X67444047Y-79527123D02*
X67682142Y-79527123D01*
X67682142Y-79527123D02*
X67777380Y-79479504D01*
X67777380Y-79479504D02*
X67825000Y-79431885D01*
X67825000Y-79431885D02*
X67872619Y-79336647D01*
X67872619Y-79336647D02*
X67872619Y-79050933D01*
X67872619Y-79050933D02*
X67825000Y-78955695D01*
X67825000Y-78955695D02*
X67777380Y-78908076D01*
%TO.C,R74*%
X110572619Y-119737142D02*
X110096428Y-119403809D01*
X110572619Y-119165714D02*
X109572619Y-119165714D01*
X109572619Y-119165714D02*
X109572619Y-119546666D01*
X109572619Y-119546666D02*
X109620238Y-119641904D01*
X109620238Y-119641904D02*
X109667857Y-119689523D01*
X109667857Y-119689523D02*
X109763095Y-119737142D01*
X109763095Y-119737142D02*
X109905952Y-119737142D01*
X109905952Y-119737142D02*
X110001190Y-119689523D01*
X110001190Y-119689523D02*
X110048809Y-119641904D01*
X110048809Y-119641904D02*
X110096428Y-119546666D01*
X110096428Y-119546666D02*
X110096428Y-119165714D01*
X109572619Y-120070476D02*
X109572619Y-120737142D01*
X109572619Y-120737142D02*
X110572619Y-120308571D01*
X109905952Y-121546666D02*
X110572619Y-121546666D01*
X109525000Y-121308571D02*
X110239285Y-121070476D01*
X110239285Y-121070476D02*
X110239285Y-121689523D01*
%TO.C,C1*%
X134397380Y-51113333D02*
X134445000Y-51065714D01*
X134445000Y-51065714D02*
X134492619Y-50922857D01*
X134492619Y-50922857D02*
X134492619Y-50827619D01*
X134492619Y-50827619D02*
X134445000Y-50684762D01*
X134445000Y-50684762D02*
X134349761Y-50589524D01*
X134349761Y-50589524D02*
X134254523Y-50541905D01*
X134254523Y-50541905D02*
X134064047Y-50494286D01*
X134064047Y-50494286D02*
X133921190Y-50494286D01*
X133921190Y-50494286D02*
X133730714Y-50541905D01*
X133730714Y-50541905D02*
X133635476Y-50589524D01*
X133635476Y-50589524D02*
X133540238Y-50684762D01*
X133540238Y-50684762D02*
X133492619Y-50827619D01*
X133492619Y-50827619D02*
X133492619Y-50922857D01*
X133492619Y-50922857D02*
X133540238Y-51065714D01*
X133540238Y-51065714D02*
X133587857Y-51113333D01*
X134492619Y-52065714D02*
X134492619Y-51494286D01*
X134492619Y-51780000D02*
X133492619Y-51780000D01*
X133492619Y-51780000D02*
X133635476Y-51684762D01*
X133635476Y-51684762D02*
X133730714Y-51589524D01*
X133730714Y-51589524D02*
X133778333Y-51494286D01*
%TO.C,R70*%
X53200419Y-119737142D02*
X52724228Y-119403809D01*
X53200419Y-119165714D02*
X52200419Y-119165714D01*
X52200419Y-119165714D02*
X52200419Y-119546666D01*
X52200419Y-119546666D02*
X52248038Y-119641904D01*
X52248038Y-119641904D02*
X52295657Y-119689523D01*
X52295657Y-119689523D02*
X52390895Y-119737142D01*
X52390895Y-119737142D02*
X52533752Y-119737142D01*
X52533752Y-119737142D02*
X52628990Y-119689523D01*
X52628990Y-119689523D02*
X52676609Y-119641904D01*
X52676609Y-119641904D02*
X52724228Y-119546666D01*
X52724228Y-119546666D02*
X52724228Y-119165714D01*
X52200419Y-120070476D02*
X52200419Y-120737142D01*
X52200419Y-120737142D02*
X53200419Y-120308571D01*
X52200419Y-121308571D02*
X52200419Y-121403809D01*
X52200419Y-121403809D02*
X52248038Y-121499047D01*
X52248038Y-121499047D02*
X52295657Y-121546666D01*
X52295657Y-121546666D02*
X52390895Y-121594285D01*
X52390895Y-121594285D02*
X52581371Y-121641904D01*
X52581371Y-121641904D02*
X52819466Y-121641904D01*
X52819466Y-121641904D02*
X53009942Y-121594285D01*
X53009942Y-121594285D02*
X53105180Y-121546666D01*
X53105180Y-121546666D02*
X53152800Y-121499047D01*
X53152800Y-121499047D02*
X53200419Y-121403809D01*
X53200419Y-121403809D02*
X53200419Y-121308571D01*
X53200419Y-121308571D02*
X53152800Y-121213333D01*
X53152800Y-121213333D02*
X53105180Y-121165714D01*
X53105180Y-121165714D02*
X53009942Y-121118095D01*
X53009942Y-121118095D02*
X52819466Y-121070476D01*
X52819466Y-121070476D02*
X52581371Y-121070476D01*
X52581371Y-121070476D02*
X52390895Y-121118095D01*
X52390895Y-121118095D02*
X52295657Y-121165714D01*
X52295657Y-121165714D02*
X52248038Y-121213333D01*
X52248038Y-121213333D02*
X52200419Y-121308571D01*
%TO.C,R5*%
X48236666Y-46502619D02*
X48569999Y-46026428D01*
X48808094Y-46502619D02*
X48808094Y-45502619D01*
X48808094Y-45502619D02*
X48427142Y-45502619D01*
X48427142Y-45502619D02*
X48331904Y-45550238D01*
X48331904Y-45550238D02*
X48284285Y-45597857D01*
X48284285Y-45597857D02*
X48236666Y-45693095D01*
X48236666Y-45693095D02*
X48236666Y-45835952D01*
X48236666Y-45835952D02*
X48284285Y-45931190D01*
X48284285Y-45931190D02*
X48331904Y-45978809D01*
X48331904Y-45978809D02*
X48427142Y-46026428D01*
X48427142Y-46026428D02*
X48808094Y-46026428D01*
X47331904Y-45502619D02*
X47808094Y-45502619D01*
X47808094Y-45502619D02*
X47855713Y-45978809D01*
X47855713Y-45978809D02*
X47808094Y-45931190D01*
X47808094Y-45931190D02*
X47712856Y-45883571D01*
X47712856Y-45883571D02*
X47474761Y-45883571D01*
X47474761Y-45883571D02*
X47379523Y-45931190D01*
X47379523Y-45931190D02*
X47331904Y-45978809D01*
X47331904Y-45978809D02*
X47284285Y-46074047D01*
X47284285Y-46074047D02*
X47284285Y-46312142D01*
X47284285Y-46312142D02*
X47331904Y-46407380D01*
X47331904Y-46407380D02*
X47379523Y-46455000D01*
X47379523Y-46455000D02*
X47474761Y-46502619D01*
X47474761Y-46502619D02*
X47712856Y-46502619D01*
X47712856Y-46502619D02*
X47808094Y-46455000D01*
X47808094Y-46455000D02*
X47855713Y-46407380D01*
%TO.C,R69*%
X63072619Y-90797142D02*
X62596428Y-90463809D01*
X63072619Y-90225714D02*
X62072619Y-90225714D01*
X62072619Y-90225714D02*
X62072619Y-90606666D01*
X62072619Y-90606666D02*
X62120238Y-90701904D01*
X62120238Y-90701904D02*
X62167857Y-90749523D01*
X62167857Y-90749523D02*
X62263095Y-90797142D01*
X62263095Y-90797142D02*
X62405952Y-90797142D01*
X62405952Y-90797142D02*
X62501190Y-90749523D01*
X62501190Y-90749523D02*
X62548809Y-90701904D01*
X62548809Y-90701904D02*
X62596428Y-90606666D01*
X62596428Y-90606666D02*
X62596428Y-90225714D01*
X62072619Y-91654285D02*
X62072619Y-91463809D01*
X62072619Y-91463809D02*
X62120238Y-91368571D01*
X62120238Y-91368571D02*
X62167857Y-91320952D01*
X62167857Y-91320952D02*
X62310714Y-91225714D01*
X62310714Y-91225714D02*
X62501190Y-91178095D01*
X62501190Y-91178095D02*
X62882142Y-91178095D01*
X62882142Y-91178095D02*
X62977380Y-91225714D01*
X62977380Y-91225714D02*
X63025000Y-91273333D01*
X63025000Y-91273333D02*
X63072619Y-91368571D01*
X63072619Y-91368571D02*
X63072619Y-91559047D01*
X63072619Y-91559047D02*
X63025000Y-91654285D01*
X63025000Y-91654285D02*
X62977380Y-91701904D01*
X62977380Y-91701904D02*
X62882142Y-91749523D01*
X62882142Y-91749523D02*
X62644047Y-91749523D01*
X62644047Y-91749523D02*
X62548809Y-91701904D01*
X62548809Y-91701904D02*
X62501190Y-91654285D01*
X62501190Y-91654285D02*
X62453571Y-91559047D01*
X62453571Y-91559047D02*
X62453571Y-91368571D01*
X62453571Y-91368571D02*
X62501190Y-91273333D01*
X62501190Y-91273333D02*
X62548809Y-91225714D01*
X62548809Y-91225714D02*
X62644047Y-91178095D01*
X63072619Y-92225714D02*
X63072619Y-92416190D01*
X63072619Y-92416190D02*
X63025000Y-92511428D01*
X63025000Y-92511428D02*
X62977380Y-92559047D01*
X62977380Y-92559047D02*
X62834523Y-92654285D01*
X62834523Y-92654285D02*
X62644047Y-92701904D01*
X62644047Y-92701904D02*
X62263095Y-92701904D01*
X62263095Y-92701904D02*
X62167857Y-92654285D01*
X62167857Y-92654285D02*
X62120238Y-92606666D01*
X62120238Y-92606666D02*
X62072619Y-92511428D01*
X62072619Y-92511428D02*
X62072619Y-92320952D01*
X62072619Y-92320952D02*
X62120238Y-92225714D01*
X62120238Y-92225714D02*
X62167857Y-92178095D01*
X62167857Y-92178095D02*
X62263095Y-92130476D01*
X62263095Y-92130476D02*
X62501190Y-92130476D01*
X62501190Y-92130476D02*
X62596428Y-92178095D01*
X62596428Y-92178095D02*
X62644047Y-92225714D01*
X62644047Y-92225714D02*
X62691666Y-92320952D01*
X62691666Y-92320952D02*
X62691666Y-92511428D01*
X62691666Y-92511428D02*
X62644047Y-92606666D01*
X62644047Y-92606666D02*
X62596428Y-92654285D01*
X62596428Y-92654285D02*
X62501190Y-92701904D01*
%TO.C,R67*%
X48237619Y-90892542D02*
X47761428Y-90559209D01*
X48237619Y-90321114D02*
X47237619Y-90321114D01*
X47237619Y-90321114D02*
X47237619Y-90702066D01*
X47237619Y-90702066D02*
X47285238Y-90797304D01*
X47285238Y-90797304D02*
X47332857Y-90844923D01*
X47332857Y-90844923D02*
X47428095Y-90892542D01*
X47428095Y-90892542D02*
X47570952Y-90892542D01*
X47570952Y-90892542D02*
X47666190Y-90844923D01*
X47666190Y-90844923D02*
X47713809Y-90797304D01*
X47713809Y-90797304D02*
X47761428Y-90702066D01*
X47761428Y-90702066D02*
X47761428Y-90321114D01*
X47237619Y-91749685D02*
X47237619Y-91559209D01*
X47237619Y-91559209D02*
X47285238Y-91463971D01*
X47285238Y-91463971D02*
X47332857Y-91416352D01*
X47332857Y-91416352D02*
X47475714Y-91321114D01*
X47475714Y-91321114D02*
X47666190Y-91273495D01*
X47666190Y-91273495D02*
X48047142Y-91273495D01*
X48047142Y-91273495D02*
X48142380Y-91321114D01*
X48142380Y-91321114D02*
X48190000Y-91368733D01*
X48190000Y-91368733D02*
X48237619Y-91463971D01*
X48237619Y-91463971D02*
X48237619Y-91654447D01*
X48237619Y-91654447D02*
X48190000Y-91749685D01*
X48190000Y-91749685D02*
X48142380Y-91797304D01*
X48142380Y-91797304D02*
X48047142Y-91844923D01*
X48047142Y-91844923D02*
X47809047Y-91844923D01*
X47809047Y-91844923D02*
X47713809Y-91797304D01*
X47713809Y-91797304D02*
X47666190Y-91749685D01*
X47666190Y-91749685D02*
X47618571Y-91654447D01*
X47618571Y-91654447D02*
X47618571Y-91463971D01*
X47618571Y-91463971D02*
X47666190Y-91368733D01*
X47666190Y-91368733D02*
X47713809Y-91321114D01*
X47713809Y-91321114D02*
X47809047Y-91273495D01*
X47237619Y-92178257D02*
X47237619Y-92844923D01*
X47237619Y-92844923D02*
X48237619Y-92416352D01*
%TO.C,C31*%
X107627380Y-51893342D02*
X107675000Y-51845723D01*
X107675000Y-51845723D02*
X107722619Y-51702866D01*
X107722619Y-51702866D02*
X107722619Y-51607628D01*
X107722619Y-51607628D02*
X107675000Y-51464771D01*
X107675000Y-51464771D02*
X107579761Y-51369533D01*
X107579761Y-51369533D02*
X107484523Y-51321914D01*
X107484523Y-51321914D02*
X107294047Y-51274295D01*
X107294047Y-51274295D02*
X107151190Y-51274295D01*
X107151190Y-51274295D02*
X106960714Y-51321914D01*
X106960714Y-51321914D02*
X106865476Y-51369533D01*
X106865476Y-51369533D02*
X106770238Y-51464771D01*
X106770238Y-51464771D02*
X106722619Y-51607628D01*
X106722619Y-51607628D02*
X106722619Y-51702866D01*
X106722619Y-51702866D02*
X106770238Y-51845723D01*
X106770238Y-51845723D02*
X106817857Y-51893342D01*
X106722619Y-52226676D02*
X106722619Y-52845723D01*
X106722619Y-52845723D02*
X107103571Y-52512390D01*
X107103571Y-52512390D02*
X107103571Y-52655247D01*
X107103571Y-52655247D02*
X107151190Y-52750485D01*
X107151190Y-52750485D02*
X107198809Y-52798104D01*
X107198809Y-52798104D02*
X107294047Y-52845723D01*
X107294047Y-52845723D02*
X107532142Y-52845723D01*
X107532142Y-52845723D02*
X107627380Y-52798104D01*
X107627380Y-52798104D02*
X107675000Y-52750485D01*
X107675000Y-52750485D02*
X107722619Y-52655247D01*
X107722619Y-52655247D02*
X107722619Y-52369533D01*
X107722619Y-52369533D02*
X107675000Y-52274295D01*
X107675000Y-52274295D02*
X107627380Y-52226676D01*
X107722619Y-53798104D02*
X107722619Y-53226676D01*
X107722619Y-53512390D02*
X106722619Y-53512390D01*
X106722619Y-53512390D02*
X106865476Y-53417152D01*
X106865476Y-53417152D02*
X106960714Y-53321914D01*
X106960714Y-53321914D02*
X107008333Y-53226676D01*
%TO.C,R34*%
X100412619Y-119649642D02*
X99936428Y-119316309D01*
X100412619Y-119078214D02*
X99412619Y-119078214D01*
X99412619Y-119078214D02*
X99412619Y-119459166D01*
X99412619Y-119459166D02*
X99460238Y-119554404D01*
X99460238Y-119554404D02*
X99507857Y-119602023D01*
X99507857Y-119602023D02*
X99603095Y-119649642D01*
X99603095Y-119649642D02*
X99745952Y-119649642D01*
X99745952Y-119649642D02*
X99841190Y-119602023D01*
X99841190Y-119602023D02*
X99888809Y-119554404D01*
X99888809Y-119554404D02*
X99936428Y-119459166D01*
X99936428Y-119459166D02*
X99936428Y-119078214D01*
X99412619Y-119982976D02*
X99412619Y-120602023D01*
X99412619Y-120602023D02*
X99793571Y-120268690D01*
X99793571Y-120268690D02*
X99793571Y-120411547D01*
X99793571Y-120411547D02*
X99841190Y-120506785D01*
X99841190Y-120506785D02*
X99888809Y-120554404D01*
X99888809Y-120554404D02*
X99984047Y-120602023D01*
X99984047Y-120602023D02*
X100222142Y-120602023D01*
X100222142Y-120602023D02*
X100317380Y-120554404D01*
X100317380Y-120554404D02*
X100365000Y-120506785D01*
X100365000Y-120506785D02*
X100412619Y-120411547D01*
X100412619Y-120411547D02*
X100412619Y-120125833D01*
X100412619Y-120125833D02*
X100365000Y-120030595D01*
X100365000Y-120030595D02*
X100317380Y-119982976D01*
X99745952Y-121459166D02*
X100412619Y-121459166D01*
X99365000Y-121221071D02*
X100079285Y-120982976D01*
X100079285Y-120982976D02*
X100079285Y-121602023D01*
%TO.C,R7*%
X48236666Y-52402619D02*
X48569999Y-51926428D01*
X48808094Y-52402619D02*
X48808094Y-51402619D01*
X48808094Y-51402619D02*
X48427142Y-51402619D01*
X48427142Y-51402619D02*
X48331904Y-51450238D01*
X48331904Y-51450238D02*
X48284285Y-51497857D01*
X48284285Y-51497857D02*
X48236666Y-51593095D01*
X48236666Y-51593095D02*
X48236666Y-51735952D01*
X48236666Y-51735952D02*
X48284285Y-51831190D01*
X48284285Y-51831190D02*
X48331904Y-51878809D01*
X48331904Y-51878809D02*
X48427142Y-51926428D01*
X48427142Y-51926428D02*
X48808094Y-51926428D01*
X47903332Y-51402619D02*
X47236666Y-51402619D01*
X47236666Y-51402619D02*
X47665237Y-52402619D01*
%TO.C,C12*%
X32968880Y-20866242D02*
X33016500Y-20818623D01*
X33016500Y-20818623D02*
X33064119Y-20675766D01*
X33064119Y-20675766D02*
X33064119Y-20580528D01*
X33064119Y-20580528D02*
X33016500Y-20437671D01*
X33016500Y-20437671D02*
X32921261Y-20342433D01*
X32921261Y-20342433D02*
X32826023Y-20294814D01*
X32826023Y-20294814D02*
X32635547Y-20247195D01*
X32635547Y-20247195D02*
X32492690Y-20247195D01*
X32492690Y-20247195D02*
X32302214Y-20294814D01*
X32302214Y-20294814D02*
X32206976Y-20342433D01*
X32206976Y-20342433D02*
X32111738Y-20437671D01*
X32111738Y-20437671D02*
X32064119Y-20580528D01*
X32064119Y-20580528D02*
X32064119Y-20675766D01*
X32064119Y-20675766D02*
X32111738Y-20818623D01*
X32111738Y-20818623D02*
X32159357Y-20866242D01*
X33064119Y-21818623D02*
X33064119Y-21247195D01*
X33064119Y-21532909D02*
X32064119Y-21532909D01*
X32064119Y-21532909D02*
X32206976Y-21437671D01*
X32206976Y-21437671D02*
X32302214Y-21342433D01*
X32302214Y-21342433D02*
X32349833Y-21247195D01*
X32159357Y-22199576D02*
X32111738Y-22247195D01*
X32111738Y-22247195D02*
X32064119Y-22342433D01*
X32064119Y-22342433D02*
X32064119Y-22580528D01*
X32064119Y-22580528D02*
X32111738Y-22675766D01*
X32111738Y-22675766D02*
X32159357Y-22723385D01*
X32159357Y-22723385D02*
X32254595Y-22771004D01*
X32254595Y-22771004D02*
X32349833Y-22771004D01*
X32349833Y-22771004D02*
X32492690Y-22723385D01*
X32492690Y-22723385D02*
X33064119Y-22151957D01*
X33064119Y-22151957D02*
X33064119Y-22771004D01*
%TO.C,C35*%
X74607380Y-74334742D02*
X74655000Y-74287123D01*
X74655000Y-74287123D02*
X74702619Y-74144266D01*
X74702619Y-74144266D02*
X74702619Y-74049028D01*
X74702619Y-74049028D02*
X74655000Y-73906171D01*
X74655000Y-73906171D02*
X74559761Y-73810933D01*
X74559761Y-73810933D02*
X74464523Y-73763314D01*
X74464523Y-73763314D02*
X74274047Y-73715695D01*
X74274047Y-73715695D02*
X74131190Y-73715695D01*
X74131190Y-73715695D02*
X73940714Y-73763314D01*
X73940714Y-73763314D02*
X73845476Y-73810933D01*
X73845476Y-73810933D02*
X73750238Y-73906171D01*
X73750238Y-73906171D02*
X73702619Y-74049028D01*
X73702619Y-74049028D02*
X73702619Y-74144266D01*
X73702619Y-74144266D02*
X73750238Y-74287123D01*
X73750238Y-74287123D02*
X73797857Y-74334742D01*
X73702619Y-74668076D02*
X73702619Y-75287123D01*
X73702619Y-75287123D02*
X74083571Y-74953790D01*
X74083571Y-74953790D02*
X74083571Y-75096647D01*
X74083571Y-75096647D02*
X74131190Y-75191885D01*
X74131190Y-75191885D02*
X74178809Y-75239504D01*
X74178809Y-75239504D02*
X74274047Y-75287123D01*
X74274047Y-75287123D02*
X74512142Y-75287123D01*
X74512142Y-75287123D02*
X74607380Y-75239504D01*
X74607380Y-75239504D02*
X74655000Y-75191885D01*
X74655000Y-75191885D02*
X74702619Y-75096647D01*
X74702619Y-75096647D02*
X74702619Y-74810933D01*
X74702619Y-74810933D02*
X74655000Y-74715695D01*
X74655000Y-74715695D02*
X74607380Y-74668076D01*
X73702619Y-76191885D02*
X73702619Y-75715695D01*
X73702619Y-75715695D02*
X74178809Y-75668076D01*
X74178809Y-75668076D02*
X74131190Y-75715695D01*
X74131190Y-75715695D02*
X74083571Y-75810933D01*
X74083571Y-75810933D02*
X74083571Y-76049028D01*
X74083571Y-76049028D02*
X74131190Y-76144266D01*
X74131190Y-76144266D02*
X74178809Y-76191885D01*
X74178809Y-76191885D02*
X74274047Y-76239504D01*
X74274047Y-76239504D02*
X74512142Y-76239504D01*
X74512142Y-76239504D02*
X74607380Y-76191885D01*
X74607380Y-76191885D02*
X74655000Y-76144266D01*
X74655000Y-76144266D02*
X74702619Y-76049028D01*
X74702619Y-76049028D02*
X74702619Y-75810933D01*
X74702619Y-75810933D02*
X74655000Y-75715695D01*
X74655000Y-75715695D02*
X74607380Y-75668076D01*
%TO.C,C13*%
X49652857Y-63307380D02*
X49700476Y-63355000D01*
X49700476Y-63355000D02*
X49843333Y-63402619D01*
X49843333Y-63402619D02*
X49938571Y-63402619D01*
X49938571Y-63402619D02*
X50081428Y-63355000D01*
X50081428Y-63355000D02*
X50176666Y-63259761D01*
X50176666Y-63259761D02*
X50224285Y-63164523D01*
X50224285Y-63164523D02*
X50271904Y-62974047D01*
X50271904Y-62974047D02*
X50271904Y-62831190D01*
X50271904Y-62831190D02*
X50224285Y-62640714D01*
X50224285Y-62640714D02*
X50176666Y-62545476D01*
X50176666Y-62545476D02*
X50081428Y-62450238D01*
X50081428Y-62450238D02*
X49938571Y-62402619D01*
X49938571Y-62402619D02*
X49843333Y-62402619D01*
X49843333Y-62402619D02*
X49700476Y-62450238D01*
X49700476Y-62450238D02*
X49652857Y-62497857D01*
X48700476Y-63402619D02*
X49271904Y-63402619D01*
X48986190Y-63402619D02*
X48986190Y-62402619D01*
X48986190Y-62402619D02*
X49081428Y-62545476D01*
X49081428Y-62545476D02*
X49176666Y-62640714D01*
X49176666Y-62640714D02*
X49271904Y-62688333D01*
X48367142Y-62402619D02*
X47748095Y-62402619D01*
X47748095Y-62402619D02*
X48081428Y-62783571D01*
X48081428Y-62783571D02*
X47938571Y-62783571D01*
X47938571Y-62783571D02*
X47843333Y-62831190D01*
X47843333Y-62831190D02*
X47795714Y-62878809D01*
X47795714Y-62878809D02*
X47748095Y-62974047D01*
X47748095Y-62974047D02*
X47748095Y-63212142D01*
X47748095Y-63212142D02*
X47795714Y-63307380D01*
X47795714Y-63307380D02*
X47843333Y-63355000D01*
X47843333Y-63355000D02*
X47938571Y-63402619D01*
X47938571Y-63402619D02*
X48224285Y-63402619D01*
X48224285Y-63402619D02*
X48319523Y-63355000D01*
X48319523Y-63355000D02*
X48367142Y-63307380D01*
%TO.C,C5*%
X135096722Y-60484777D02*
X135144342Y-60437158D01*
X135144342Y-60437158D02*
X135191961Y-60294301D01*
X135191961Y-60294301D02*
X135191961Y-60199063D01*
X135191961Y-60199063D02*
X135144342Y-60056206D01*
X135144342Y-60056206D02*
X135049103Y-59960968D01*
X135049103Y-59960968D02*
X134953865Y-59913349D01*
X134953865Y-59913349D02*
X134763389Y-59865730D01*
X134763389Y-59865730D02*
X134620532Y-59865730D01*
X134620532Y-59865730D02*
X134430056Y-59913349D01*
X134430056Y-59913349D02*
X134334818Y-59960968D01*
X134334818Y-59960968D02*
X134239580Y-60056206D01*
X134239580Y-60056206D02*
X134191961Y-60199063D01*
X134191961Y-60199063D02*
X134191961Y-60294301D01*
X134191961Y-60294301D02*
X134239580Y-60437158D01*
X134239580Y-60437158D02*
X134287199Y-60484777D01*
X134191961Y-61389539D02*
X134191961Y-60913349D01*
X134191961Y-60913349D02*
X134668151Y-60865730D01*
X134668151Y-60865730D02*
X134620532Y-60913349D01*
X134620532Y-60913349D02*
X134572913Y-61008587D01*
X134572913Y-61008587D02*
X134572913Y-61246682D01*
X134572913Y-61246682D02*
X134620532Y-61341920D01*
X134620532Y-61341920D02*
X134668151Y-61389539D01*
X134668151Y-61389539D02*
X134763389Y-61437158D01*
X134763389Y-61437158D02*
X135001484Y-61437158D01*
X135001484Y-61437158D02*
X135096722Y-61389539D01*
X135096722Y-61389539D02*
X135144342Y-61341920D01*
X135144342Y-61341920D02*
X135191961Y-61246682D01*
X135191961Y-61246682D02*
X135191961Y-61008587D01*
X135191961Y-61008587D02*
X135144342Y-60913349D01*
X135144342Y-60913349D02*
X135096722Y-60865730D01*
%TO.C,C18*%
X123967380Y-46027142D02*
X124015000Y-45979523D01*
X124015000Y-45979523D02*
X124062619Y-45836666D01*
X124062619Y-45836666D02*
X124062619Y-45741428D01*
X124062619Y-45741428D02*
X124015000Y-45598571D01*
X124015000Y-45598571D02*
X123919761Y-45503333D01*
X123919761Y-45503333D02*
X123824523Y-45455714D01*
X123824523Y-45455714D02*
X123634047Y-45408095D01*
X123634047Y-45408095D02*
X123491190Y-45408095D01*
X123491190Y-45408095D02*
X123300714Y-45455714D01*
X123300714Y-45455714D02*
X123205476Y-45503333D01*
X123205476Y-45503333D02*
X123110238Y-45598571D01*
X123110238Y-45598571D02*
X123062619Y-45741428D01*
X123062619Y-45741428D02*
X123062619Y-45836666D01*
X123062619Y-45836666D02*
X123110238Y-45979523D01*
X123110238Y-45979523D02*
X123157857Y-46027142D01*
X124062619Y-46979523D02*
X124062619Y-46408095D01*
X124062619Y-46693809D02*
X123062619Y-46693809D01*
X123062619Y-46693809D02*
X123205476Y-46598571D01*
X123205476Y-46598571D02*
X123300714Y-46503333D01*
X123300714Y-46503333D02*
X123348333Y-46408095D01*
X123491190Y-47550952D02*
X123443571Y-47455714D01*
X123443571Y-47455714D02*
X123395952Y-47408095D01*
X123395952Y-47408095D02*
X123300714Y-47360476D01*
X123300714Y-47360476D02*
X123253095Y-47360476D01*
X123253095Y-47360476D02*
X123157857Y-47408095D01*
X123157857Y-47408095D02*
X123110238Y-47455714D01*
X123110238Y-47455714D02*
X123062619Y-47550952D01*
X123062619Y-47550952D02*
X123062619Y-47741428D01*
X123062619Y-47741428D02*
X123110238Y-47836666D01*
X123110238Y-47836666D02*
X123157857Y-47884285D01*
X123157857Y-47884285D02*
X123253095Y-47931904D01*
X123253095Y-47931904D02*
X123300714Y-47931904D01*
X123300714Y-47931904D02*
X123395952Y-47884285D01*
X123395952Y-47884285D02*
X123443571Y-47836666D01*
X123443571Y-47836666D02*
X123491190Y-47741428D01*
X123491190Y-47741428D02*
X123491190Y-47550952D01*
X123491190Y-47550952D02*
X123538809Y-47455714D01*
X123538809Y-47455714D02*
X123586428Y-47408095D01*
X123586428Y-47408095D02*
X123681666Y-47360476D01*
X123681666Y-47360476D02*
X123872142Y-47360476D01*
X123872142Y-47360476D02*
X123967380Y-47408095D01*
X123967380Y-47408095D02*
X124015000Y-47455714D01*
X124015000Y-47455714D02*
X124062619Y-47550952D01*
X124062619Y-47550952D02*
X124062619Y-47741428D01*
X124062619Y-47741428D02*
X124015000Y-47836666D01*
X124015000Y-47836666D02*
X123967380Y-47884285D01*
X123967380Y-47884285D02*
X123872142Y-47931904D01*
X123872142Y-47931904D02*
X123681666Y-47931904D01*
X123681666Y-47931904D02*
X123586428Y-47884285D01*
X123586428Y-47884285D02*
X123538809Y-47836666D01*
X123538809Y-47836666D02*
X123491190Y-47741428D01*
%TO.C,C23*%
X39662857Y-64727380D02*
X39710476Y-64775000D01*
X39710476Y-64775000D02*
X39853333Y-64822619D01*
X39853333Y-64822619D02*
X39948571Y-64822619D01*
X39948571Y-64822619D02*
X40091428Y-64775000D01*
X40091428Y-64775000D02*
X40186666Y-64679761D01*
X40186666Y-64679761D02*
X40234285Y-64584523D01*
X40234285Y-64584523D02*
X40281904Y-64394047D01*
X40281904Y-64394047D02*
X40281904Y-64251190D01*
X40281904Y-64251190D02*
X40234285Y-64060714D01*
X40234285Y-64060714D02*
X40186666Y-63965476D01*
X40186666Y-63965476D02*
X40091428Y-63870238D01*
X40091428Y-63870238D02*
X39948571Y-63822619D01*
X39948571Y-63822619D02*
X39853333Y-63822619D01*
X39853333Y-63822619D02*
X39710476Y-63870238D01*
X39710476Y-63870238D02*
X39662857Y-63917857D01*
X39281904Y-63917857D02*
X39234285Y-63870238D01*
X39234285Y-63870238D02*
X39139047Y-63822619D01*
X39139047Y-63822619D02*
X38900952Y-63822619D01*
X38900952Y-63822619D02*
X38805714Y-63870238D01*
X38805714Y-63870238D02*
X38758095Y-63917857D01*
X38758095Y-63917857D02*
X38710476Y-64013095D01*
X38710476Y-64013095D02*
X38710476Y-64108333D01*
X38710476Y-64108333D02*
X38758095Y-64251190D01*
X38758095Y-64251190D02*
X39329523Y-64822619D01*
X39329523Y-64822619D02*
X38710476Y-64822619D01*
X38377142Y-63822619D02*
X37758095Y-63822619D01*
X37758095Y-63822619D02*
X38091428Y-64203571D01*
X38091428Y-64203571D02*
X37948571Y-64203571D01*
X37948571Y-64203571D02*
X37853333Y-64251190D01*
X37853333Y-64251190D02*
X37805714Y-64298809D01*
X37805714Y-64298809D02*
X37758095Y-64394047D01*
X37758095Y-64394047D02*
X37758095Y-64632142D01*
X37758095Y-64632142D02*
X37805714Y-64727380D01*
X37805714Y-64727380D02*
X37853333Y-64775000D01*
X37853333Y-64775000D02*
X37948571Y-64822619D01*
X37948571Y-64822619D02*
X38234285Y-64822619D01*
X38234285Y-64822619D02*
X38329523Y-64775000D01*
X38329523Y-64775000D02*
X38377142Y-64727380D01*
%TO.C,R71*%
X44820419Y-119737142D02*
X44344228Y-119403809D01*
X44820419Y-119165714D02*
X43820419Y-119165714D01*
X43820419Y-119165714D02*
X43820419Y-119546666D01*
X43820419Y-119546666D02*
X43868038Y-119641904D01*
X43868038Y-119641904D02*
X43915657Y-119689523D01*
X43915657Y-119689523D02*
X44010895Y-119737142D01*
X44010895Y-119737142D02*
X44153752Y-119737142D01*
X44153752Y-119737142D02*
X44248990Y-119689523D01*
X44248990Y-119689523D02*
X44296609Y-119641904D01*
X44296609Y-119641904D02*
X44344228Y-119546666D01*
X44344228Y-119546666D02*
X44344228Y-119165714D01*
X43820419Y-120070476D02*
X43820419Y-120737142D01*
X43820419Y-120737142D02*
X44820419Y-120308571D01*
X44820419Y-121641904D02*
X44820419Y-121070476D01*
X44820419Y-121356190D02*
X43820419Y-121356190D01*
X43820419Y-121356190D02*
X43963276Y-121260952D01*
X43963276Y-121260952D02*
X44058514Y-121165714D01*
X44058514Y-121165714D02*
X44106133Y-121070476D01*
%TO.C,C14*%
X56042857Y-67567380D02*
X56090476Y-67615000D01*
X56090476Y-67615000D02*
X56233333Y-67662619D01*
X56233333Y-67662619D02*
X56328571Y-67662619D01*
X56328571Y-67662619D02*
X56471428Y-67615000D01*
X56471428Y-67615000D02*
X56566666Y-67519761D01*
X56566666Y-67519761D02*
X56614285Y-67424523D01*
X56614285Y-67424523D02*
X56661904Y-67234047D01*
X56661904Y-67234047D02*
X56661904Y-67091190D01*
X56661904Y-67091190D02*
X56614285Y-66900714D01*
X56614285Y-66900714D02*
X56566666Y-66805476D01*
X56566666Y-66805476D02*
X56471428Y-66710238D01*
X56471428Y-66710238D02*
X56328571Y-66662619D01*
X56328571Y-66662619D02*
X56233333Y-66662619D01*
X56233333Y-66662619D02*
X56090476Y-66710238D01*
X56090476Y-66710238D02*
X56042857Y-66757857D01*
X55090476Y-67662619D02*
X55661904Y-67662619D01*
X55376190Y-67662619D02*
X55376190Y-66662619D01*
X55376190Y-66662619D02*
X55471428Y-66805476D01*
X55471428Y-66805476D02*
X55566666Y-66900714D01*
X55566666Y-66900714D02*
X55661904Y-66948333D01*
X54233333Y-66995952D02*
X54233333Y-67662619D01*
X54471428Y-66615000D02*
X54709523Y-67329285D01*
X54709523Y-67329285D02*
X54090476Y-67329285D01*
%TO.C,R29*%
X71372619Y-88257122D02*
X70896428Y-87923789D01*
X71372619Y-87685694D02*
X70372619Y-87685694D01*
X70372619Y-87685694D02*
X70372619Y-88066646D01*
X70372619Y-88066646D02*
X70420238Y-88161884D01*
X70420238Y-88161884D02*
X70467857Y-88209503D01*
X70467857Y-88209503D02*
X70563095Y-88257122D01*
X70563095Y-88257122D02*
X70705952Y-88257122D01*
X70705952Y-88257122D02*
X70801190Y-88209503D01*
X70801190Y-88209503D02*
X70848809Y-88161884D01*
X70848809Y-88161884D02*
X70896428Y-88066646D01*
X70896428Y-88066646D02*
X70896428Y-87685694D01*
X70467857Y-88638075D02*
X70420238Y-88685694D01*
X70420238Y-88685694D02*
X70372619Y-88780932D01*
X70372619Y-88780932D02*
X70372619Y-89019027D01*
X70372619Y-89019027D02*
X70420238Y-89114265D01*
X70420238Y-89114265D02*
X70467857Y-89161884D01*
X70467857Y-89161884D02*
X70563095Y-89209503D01*
X70563095Y-89209503D02*
X70658333Y-89209503D01*
X70658333Y-89209503D02*
X70801190Y-89161884D01*
X70801190Y-89161884D02*
X71372619Y-88590456D01*
X71372619Y-88590456D02*
X71372619Y-89209503D01*
X71372619Y-89685694D02*
X71372619Y-89876170D01*
X71372619Y-89876170D02*
X71325000Y-89971408D01*
X71325000Y-89971408D02*
X71277380Y-90019027D01*
X71277380Y-90019027D02*
X71134523Y-90114265D01*
X71134523Y-90114265D02*
X70944047Y-90161884D01*
X70944047Y-90161884D02*
X70563095Y-90161884D01*
X70563095Y-90161884D02*
X70467857Y-90114265D01*
X70467857Y-90114265D02*
X70420238Y-90066646D01*
X70420238Y-90066646D02*
X70372619Y-89971408D01*
X70372619Y-89971408D02*
X70372619Y-89780932D01*
X70372619Y-89780932D02*
X70420238Y-89685694D01*
X70420238Y-89685694D02*
X70467857Y-89638075D01*
X70467857Y-89638075D02*
X70563095Y-89590456D01*
X70563095Y-89590456D02*
X70801190Y-89590456D01*
X70801190Y-89590456D02*
X70896428Y-89638075D01*
X70896428Y-89638075D02*
X70944047Y-89685694D01*
X70944047Y-89685694D02*
X70991666Y-89780932D01*
X70991666Y-89780932D02*
X70991666Y-89971408D01*
X70991666Y-89971408D02*
X70944047Y-90066646D01*
X70944047Y-90066646D02*
X70896428Y-90114265D01*
X70896428Y-90114265D02*
X70801190Y-90161884D01*
%TO.C,R64*%
X102575619Y-92712642D02*
X102099428Y-92379309D01*
X102575619Y-92141214D02*
X101575619Y-92141214D01*
X101575619Y-92141214D02*
X101575619Y-92522166D01*
X101575619Y-92522166D02*
X101623238Y-92617404D01*
X101623238Y-92617404D02*
X101670857Y-92665023D01*
X101670857Y-92665023D02*
X101766095Y-92712642D01*
X101766095Y-92712642D02*
X101908952Y-92712642D01*
X101908952Y-92712642D02*
X102004190Y-92665023D01*
X102004190Y-92665023D02*
X102051809Y-92617404D01*
X102051809Y-92617404D02*
X102099428Y-92522166D01*
X102099428Y-92522166D02*
X102099428Y-92141214D01*
X101575619Y-93569785D02*
X101575619Y-93379309D01*
X101575619Y-93379309D02*
X101623238Y-93284071D01*
X101623238Y-93284071D02*
X101670857Y-93236452D01*
X101670857Y-93236452D02*
X101813714Y-93141214D01*
X101813714Y-93141214D02*
X102004190Y-93093595D01*
X102004190Y-93093595D02*
X102385142Y-93093595D01*
X102385142Y-93093595D02*
X102480380Y-93141214D01*
X102480380Y-93141214D02*
X102528000Y-93188833D01*
X102528000Y-93188833D02*
X102575619Y-93284071D01*
X102575619Y-93284071D02*
X102575619Y-93474547D01*
X102575619Y-93474547D02*
X102528000Y-93569785D01*
X102528000Y-93569785D02*
X102480380Y-93617404D01*
X102480380Y-93617404D02*
X102385142Y-93665023D01*
X102385142Y-93665023D02*
X102147047Y-93665023D01*
X102147047Y-93665023D02*
X102051809Y-93617404D01*
X102051809Y-93617404D02*
X102004190Y-93569785D01*
X102004190Y-93569785D02*
X101956571Y-93474547D01*
X101956571Y-93474547D02*
X101956571Y-93284071D01*
X101956571Y-93284071D02*
X102004190Y-93188833D01*
X102004190Y-93188833D02*
X102051809Y-93141214D01*
X102051809Y-93141214D02*
X102147047Y-93093595D01*
X101908952Y-94522166D02*
X102575619Y-94522166D01*
X101528000Y-94284071D02*
X102242285Y-94045976D01*
X102242285Y-94045976D02*
X102242285Y-94665023D01*
%TO.C,C30*%
X141025250Y-53364770D02*
X141072870Y-53317151D01*
X141072870Y-53317151D02*
X141120489Y-53174294D01*
X141120489Y-53174294D02*
X141120489Y-53079056D01*
X141120489Y-53079056D02*
X141072870Y-52936199D01*
X141072870Y-52936199D02*
X140977631Y-52840961D01*
X140977631Y-52840961D02*
X140882393Y-52793342D01*
X140882393Y-52793342D02*
X140691917Y-52745723D01*
X140691917Y-52745723D02*
X140549060Y-52745723D01*
X140549060Y-52745723D02*
X140358584Y-52793342D01*
X140358584Y-52793342D02*
X140263346Y-52840961D01*
X140263346Y-52840961D02*
X140168108Y-52936199D01*
X140168108Y-52936199D02*
X140120489Y-53079056D01*
X140120489Y-53079056D02*
X140120489Y-53174294D01*
X140120489Y-53174294D02*
X140168108Y-53317151D01*
X140168108Y-53317151D02*
X140215727Y-53364770D01*
X140120489Y-53698104D02*
X140120489Y-54317151D01*
X140120489Y-54317151D02*
X140501441Y-53983818D01*
X140501441Y-53983818D02*
X140501441Y-54126675D01*
X140501441Y-54126675D02*
X140549060Y-54221913D01*
X140549060Y-54221913D02*
X140596679Y-54269532D01*
X140596679Y-54269532D02*
X140691917Y-54317151D01*
X140691917Y-54317151D02*
X140930012Y-54317151D01*
X140930012Y-54317151D02*
X141025250Y-54269532D01*
X141025250Y-54269532D02*
X141072870Y-54221913D01*
X141072870Y-54221913D02*
X141120489Y-54126675D01*
X141120489Y-54126675D02*
X141120489Y-53840961D01*
X141120489Y-53840961D02*
X141072870Y-53745723D01*
X141072870Y-53745723D02*
X141025250Y-53698104D01*
X140120489Y-54936199D02*
X140120489Y-55031437D01*
X140120489Y-55031437D02*
X140168108Y-55126675D01*
X140168108Y-55126675D02*
X140215727Y-55174294D01*
X140215727Y-55174294D02*
X140310965Y-55221913D01*
X140310965Y-55221913D02*
X140501441Y-55269532D01*
X140501441Y-55269532D02*
X140739536Y-55269532D01*
X140739536Y-55269532D02*
X140930012Y-55221913D01*
X140930012Y-55221913D02*
X141025250Y-55174294D01*
X141025250Y-55174294D02*
X141072870Y-55126675D01*
X141072870Y-55126675D02*
X141120489Y-55031437D01*
X141120489Y-55031437D02*
X141120489Y-54936199D01*
X141120489Y-54936199D02*
X141072870Y-54840961D01*
X141072870Y-54840961D02*
X141025250Y-54793342D01*
X141025250Y-54793342D02*
X140930012Y-54745723D01*
X140930012Y-54745723D02*
X140739536Y-54698104D01*
X140739536Y-54698104D02*
X140501441Y-54698104D01*
X140501441Y-54698104D02*
X140310965Y-54745723D01*
X140310965Y-54745723D02*
X140215727Y-54793342D01*
X140215727Y-54793342D02*
X140168108Y-54840961D01*
X140168108Y-54840961D02*
X140120489Y-54936199D01*
%TO.C,C3*%
X132832976Y-50953162D02*
X132880596Y-50905543D01*
X132880596Y-50905543D02*
X132928215Y-50762686D01*
X132928215Y-50762686D02*
X132928215Y-50667448D01*
X132928215Y-50667448D02*
X132880596Y-50524591D01*
X132880596Y-50524591D02*
X132785357Y-50429353D01*
X132785357Y-50429353D02*
X132690119Y-50381734D01*
X132690119Y-50381734D02*
X132499643Y-50334115D01*
X132499643Y-50334115D02*
X132356786Y-50334115D01*
X132356786Y-50334115D02*
X132166310Y-50381734D01*
X132166310Y-50381734D02*
X132071072Y-50429353D01*
X132071072Y-50429353D02*
X131975834Y-50524591D01*
X131975834Y-50524591D02*
X131928215Y-50667448D01*
X131928215Y-50667448D02*
X131928215Y-50762686D01*
X131928215Y-50762686D02*
X131975834Y-50905543D01*
X131975834Y-50905543D02*
X132023453Y-50953162D01*
X131928215Y-51286496D02*
X131928215Y-51905543D01*
X131928215Y-51905543D02*
X132309167Y-51572210D01*
X132309167Y-51572210D02*
X132309167Y-51715067D01*
X132309167Y-51715067D02*
X132356786Y-51810305D01*
X132356786Y-51810305D02*
X132404405Y-51857924D01*
X132404405Y-51857924D02*
X132499643Y-51905543D01*
X132499643Y-51905543D02*
X132737738Y-51905543D01*
X132737738Y-51905543D02*
X132832976Y-51857924D01*
X132832976Y-51857924D02*
X132880596Y-51810305D01*
X132880596Y-51810305D02*
X132928215Y-51715067D01*
X132928215Y-51715067D02*
X132928215Y-51429353D01*
X132928215Y-51429353D02*
X132880596Y-51334115D01*
X132880596Y-51334115D02*
X132832976Y-51286496D01*
%TO.C,C8*%
X39327380Y-26888233D02*
X39375000Y-26840614D01*
X39375000Y-26840614D02*
X39422619Y-26697757D01*
X39422619Y-26697757D02*
X39422619Y-26602519D01*
X39422619Y-26602519D02*
X39375000Y-26459662D01*
X39375000Y-26459662D02*
X39279761Y-26364424D01*
X39279761Y-26364424D02*
X39184523Y-26316805D01*
X39184523Y-26316805D02*
X38994047Y-26269186D01*
X38994047Y-26269186D02*
X38851190Y-26269186D01*
X38851190Y-26269186D02*
X38660714Y-26316805D01*
X38660714Y-26316805D02*
X38565476Y-26364424D01*
X38565476Y-26364424D02*
X38470238Y-26459662D01*
X38470238Y-26459662D02*
X38422619Y-26602519D01*
X38422619Y-26602519D02*
X38422619Y-26697757D01*
X38422619Y-26697757D02*
X38470238Y-26840614D01*
X38470238Y-26840614D02*
X38517857Y-26888233D01*
X38851190Y-27459662D02*
X38803571Y-27364424D01*
X38803571Y-27364424D02*
X38755952Y-27316805D01*
X38755952Y-27316805D02*
X38660714Y-27269186D01*
X38660714Y-27269186D02*
X38613095Y-27269186D01*
X38613095Y-27269186D02*
X38517857Y-27316805D01*
X38517857Y-27316805D02*
X38470238Y-27364424D01*
X38470238Y-27364424D02*
X38422619Y-27459662D01*
X38422619Y-27459662D02*
X38422619Y-27650138D01*
X38422619Y-27650138D02*
X38470238Y-27745376D01*
X38470238Y-27745376D02*
X38517857Y-27792995D01*
X38517857Y-27792995D02*
X38613095Y-27840614D01*
X38613095Y-27840614D02*
X38660714Y-27840614D01*
X38660714Y-27840614D02*
X38755952Y-27792995D01*
X38755952Y-27792995D02*
X38803571Y-27745376D01*
X38803571Y-27745376D02*
X38851190Y-27650138D01*
X38851190Y-27650138D02*
X38851190Y-27459662D01*
X38851190Y-27459662D02*
X38898809Y-27364424D01*
X38898809Y-27364424D02*
X38946428Y-27316805D01*
X38946428Y-27316805D02*
X39041666Y-27269186D01*
X39041666Y-27269186D02*
X39232142Y-27269186D01*
X39232142Y-27269186D02*
X39327380Y-27316805D01*
X39327380Y-27316805D02*
X39375000Y-27364424D01*
X39375000Y-27364424D02*
X39422619Y-27459662D01*
X39422619Y-27459662D02*
X39422619Y-27650138D01*
X39422619Y-27650138D02*
X39375000Y-27745376D01*
X39375000Y-27745376D02*
X39327380Y-27792995D01*
X39327380Y-27792995D02*
X39232142Y-27840614D01*
X39232142Y-27840614D02*
X39041666Y-27840614D01*
X39041666Y-27840614D02*
X38946428Y-27792995D01*
X38946428Y-27792995D02*
X38898809Y-27745376D01*
X38898809Y-27745376D02*
X38851190Y-27650138D01*
%TO.C,R68*%
X52912619Y-90797142D02*
X52436428Y-90463809D01*
X52912619Y-90225714D02*
X51912619Y-90225714D01*
X51912619Y-90225714D02*
X51912619Y-90606666D01*
X51912619Y-90606666D02*
X51960238Y-90701904D01*
X51960238Y-90701904D02*
X52007857Y-90749523D01*
X52007857Y-90749523D02*
X52103095Y-90797142D01*
X52103095Y-90797142D02*
X52245952Y-90797142D01*
X52245952Y-90797142D02*
X52341190Y-90749523D01*
X52341190Y-90749523D02*
X52388809Y-90701904D01*
X52388809Y-90701904D02*
X52436428Y-90606666D01*
X52436428Y-90606666D02*
X52436428Y-90225714D01*
X51912619Y-91654285D02*
X51912619Y-91463809D01*
X51912619Y-91463809D02*
X51960238Y-91368571D01*
X51960238Y-91368571D02*
X52007857Y-91320952D01*
X52007857Y-91320952D02*
X52150714Y-91225714D01*
X52150714Y-91225714D02*
X52341190Y-91178095D01*
X52341190Y-91178095D02*
X52722142Y-91178095D01*
X52722142Y-91178095D02*
X52817380Y-91225714D01*
X52817380Y-91225714D02*
X52865000Y-91273333D01*
X52865000Y-91273333D02*
X52912619Y-91368571D01*
X52912619Y-91368571D02*
X52912619Y-91559047D01*
X52912619Y-91559047D02*
X52865000Y-91654285D01*
X52865000Y-91654285D02*
X52817380Y-91701904D01*
X52817380Y-91701904D02*
X52722142Y-91749523D01*
X52722142Y-91749523D02*
X52484047Y-91749523D01*
X52484047Y-91749523D02*
X52388809Y-91701904D01*
X52388809Y-91701904D02*
X52341190Y-91654285D01*
X52341190Y-91654285D02*
X52293571Y-91559047D01*
X52293571Y-91559047D02*
X52293571Y-91368571D01*
X52293571Y-91368571D02*
X52341190Y-91273333D01*
X52341190Y-91273333D02*
X52388809Y-91225714D01*
X52388809Y-91225714D02*
X52484047Y-91178095D01*
X52341190Y-92320952D02*
X52293571Y-92225714D01*
X52293571Y-92225714D02*
X52245952Y-92178095D01*
X52245952Y-92178095D02*
X52150714Y-92130476D01*
X52150714Y-92130476D02*
X52103095Y-92130476D01*
X52103095Y-92130476D02*
X52007857Y-92178095D01*
X52007857Y-92178095D02*
X51960238Y-92225714D01*
X51960238Y-92225714D02*
X51912619Y-92320952D01*
X51912619Y-92320952D02*
X51912619Y-92511428D01*
X51912619Y-92511428D02*
X51960238Y-92606666D01*
X51960238Y-92606666D02*
X52007857Y-92654285D01*
X52007857Y-92654285D02*
X52103095Y-92701904D01*
X52103095Y-92701904D02*
X52150714Y-92701904D01*
X52150714Y-92701904D02*
X52245952Y-92654285D01*
X52245952Y-92654285D02*
X52293571Y-92606666D01*
X52293571Y-92606666D02*
X52341190Y-92511428D01*
X52341190Y-92511428D02*
X52341190Y-92320952D01*
X52341190Y-92320952D02*
X52388809Y-92225714D01*
X52388809Y-92225714D02*
X52436428Y-92178095D01*
X52436428Y-92178095D02*
X52531666Y-92130476D01*
X52531666Y-92130476D02*
X52722142Y-92130476D01*
X52722142Y-92130476D02*
X52817380Y-92178095D01*
X52817380Y-92178095D02*
X52865000Y-92225714D01*
X52865000Y-92225714D02*
X52912619Y-92320952D01*
X52912619Y-92320952D02*
X52912619Y-92511428D01*
X52912619Y-92511428D02*
X52865000Y-92606666D01*
X52865000Y-92606666D02*
X52817380Y-92654285D01*
X52817380Y-92654285D02*
X52722142Y-92701904D01*
X52722142Y-92701904D02*
X52531666Y-92701904D01*
X52531666Y-92701904D02*
X52436428Y-92654285D01*
X52436428Y-92654285D02*
X52388809Y-92606666D01*
X52388809Y-92606666D02*
X52341190Y-92511428D01*
%TO.C,C29*%
X136367380Y-53507142D02*
X136415000Y-53459523D01*
X136415000Y-53459523D02*
X136462619Y-53316666D01*
X136462619Y-53316666D02*
X136462619Y-53221428D01*
X136462619Y-53221428D02*
X136415000Y-53078571D01*
X136415000Y-53078571D02*
X136319761Y-52983333D01*
X136319761Y-52983333D02*
X136224523Y-52935714D01*
X136224523Y-52935714D02*
X136034047Y-52888095D01*
X136034047Y-52888095D02*
X135891190Y-52888095D01*
X135891190Y-52888095D02*
X135700714Y-52935714D01*
X135700714Y-52935714D02*
X135605476Y-52983333D01*
X135605476Y-52983333D02*
X135510238Y-53078571D01*
X135510238Y-53078571D02*
X135462619Y-53221428D01*
X135462619Y-53221428D02*
X135462619Y-53316666D01*
X135462619Y-53316666D02*
X135510238Y-53459523D01*
X135510238Y-53459523D02*
X135557857Y-53507142D01*
X135557857Y-53888095D02*
X135510238Y-53935714D01*
X135510238Y-53935714D02*
X135462619Y-54030952D01*
X135462619Y-54030952D02*
X135462619Y-54269047D01*
X135462619Y-54269047D02*
X135510238Y-54364285D01*
X135510238Y-54364285D02*
X135557857Y-54411904D01*
X135557857Y-54411904D02*
X135653095Y-54459523D01*
X135653095Y-54459523D02*
X135748333Y-54459523D01*
X135748333Y-54459523D02*
X135891190Y-54411904D01*
X135891190Y-54411904D02*
X136462619Y-53840476D01*
X136462619Y-53840476D02*
X136462619Y-54459523D01*
X136462619Y-54935714D02*
X136462619Y-55126190D01*
X136462619Y-55126190D02*
X136415000Y-55221428D01*
X136415000Y-55221428D02*
X136367380Y-55269047D01*
X136367380Y-55269047D02*
X136224523Y-55364285D01*
X136224523Y-55364285D02*
X136034047Y-55411904D01*
X136034047Y-55411904D02*
X135653095Y-55411904D01*
X135653095Y-55411904D02*
X135557857Y-55364285D01*
X135557857Y-55364285D02*
X135510238Y-55316666D01*
X135510238Y-55316666D02*
X135462619Y-55221428D01*
X135462619Y-55221428D02*
X135462619Y-55030952D01*
X135462619Y-55030952D02*
X135510238Y-54935714D01*
X135510238Y-54935714D02*
X135557857Y-54888095D01*
X135557857Y-54888095D02*
X135653095Y-54840476D01*
X135653095Y-54840476D02*
X135891190Y-54840476D01*
X135891190Y-54840476D02*
X135986428Y-54888095D01*
X135986428Y-54888095D02*
X136034047Y-54935714D01*
X136034047Y-54935714D02*
X136081666Y-55030952D01*
X136081666Y-55030952D02*
X136081666Y-55221428D01*
X136081666Y-55221428D02*
X136034047Y-55316666D01*
X136034047Y-55316666D02*
X135986428Y-55364285D01*
X135986428Y-55364285D02*
X135891190Y-55411904D01*
%TO.C,R80*%
X156292619Y-56237142D02*
X155816428Y-55903809D01*
X156292619Y-55665714D02*
X155292619Y-55665714D01*
X155292619Y-55665714D02*
X155292619Y-56046666D01*
X155292619Y-56046666D02*
X155340238Y-56141904D01*
X155340238Y-56141904D02*
X155387857Y-56189523D01*
X155387857Y-56189523D02*
X155483095Y-56237142D01*
X155483095Y-56237142D02*
X155625952Y-56237142D01*
X155625952Y-56237142D02*
X155721190Y-56189523D01*
X155721190Y-56189523D02*
X155768809Y-56141904D01*
X155768809Y-56141904D02*
X155816428Y-56046666D01*
X155816428Y-56046666D02*
X155816428Y-55665714D01*
X155721190Y-56808571D02*
X155673571Y-56713333D01*
X155673571Y-56713333D02*
X155625952Y-56665714D01*
X155625952Y-56665714D02*
X155530714Y-56618095D01*
X155530714Y-56618095D02*
X155483095Y-56618095D01*
X155483095Y-56618095D02*
X155387857Y-56665714D01*
X155387857Y-56665714D02*
X155340238Y-56713333D01*
X155340238Y-56713333D02*
X155292619Y-56808571D01*
X155292619Y-56808571D02*
X155292619Y-56999047D01*
X155292619Y-56999047D02*
X155340238Y-57094285D01*
X155340238Y-57094285D02*
X155387857Y-57141904D01*
X155387857Y-57141904D02*
X155483095Y-57189523D01*
X155483095Y-57189523D02*
X155530714Y-57189523D01*
X155530714Y-57189523D02*
X155625952Y-57141904D01*
X155625952Y-57141904D02*
X155673571Y-57094285D01*
X155673571Y-57094285D02*
X155721190Y-56999047D01*
X155721190Y-56999047D02*
X155721190Y-56808571D01*
X155721190Y-56808571D02*
X155768809Y-56713333D01*
X155768809Y-56713333D02*
X155816428Y-56665714D01*
X155816428Y-56665714D02*
X155911666Y-56618095D01*
X155911666Y-56618095D02*
X156102142Y-56618095D01*
X156102142Y-56618095D02*
X156197380Y-56665714D01*
X156197380Y-56665714D02*
X156245000Y-56713333D01*
X156245000Y-56713333D02*
X156292619Y-56808571D01*
X156292619Y-56808571D02*
X156292619Y-56999047D01*
X156292619Y-56999047D02*
X156245000Y-57094285D01*
X156245000Y-57094285D02*
X156197380Y-57141904D01*
X156197380Y-57141904D02*
X156102142Y-57189523D01*
X156102142Y-57189523D02*
X155911666Y-57189523D01*
X155911666Y-57189523D02*
X155816428Y-57141904D01*
X155816428Y-57141904D02*
X155768809Y-57094285D01*
X155768809Y-57094285D02*
X155721190Y-56999047D01*
X155292619Y-57808571D02*
X155292619Y-57903809D01*
X155292619Y-57903809D02*
X155340238Y-57999047D01*
X155340238Y-57999047D02*
X155387857Y-58046666D01*
X155387857Y-58046666D02*
X155483095Y-58094285D01*
X155483095Y-58094285D02*
X155673571Y-58141904D01*
X155673571Y-58141904D02*
X155911666Y-58141904D01*
X155911666Y-58141904D02*
X156102142Y-58094285D01*
X156102142Y-58094285D02*
X156197380Y-58046666D01*
X156197380Y-58046666D02*
X156245000Y-57999047D01*
X156245000Y-57999047D02*
X156292619Y-57903809D01*
X156292619Y-57903809D02*
X156292619Y-57808571D01*
X156292619Y-57808571D02*
X156245000Y-57713333D01*
X156245000Y-57713333D02*
X156197380Y-57665714D01*
X156197380Y-57665714D02*
X156102142Y-57618095D01*
X156102142Y-57618095D02*
X155911666Y-57570476D01*
X155911666Y-57570476D02*
X155673571Y-57570476D01*
X155673571Y-57570476D02*
X155483095Y-57618095D01*
X155483095Y-57618095D02*
X155387857Y-57665714D01*
X155387857Y-57665714D02*
X155340238Y-57713333D01*
X155340238Y-57713333D02*
X155292619Y-57808571D01*
%TO.C,C22*%
X109597380Y-54763342D02*
X109645000Y-54715723D01*
X109645000Y-54715723D02*
X109692619Y-54572866D01*
X109692619Y-54572866D02*
X109692619Y-54477628D01*
X109692619Y-54477628D02*
X109645000Y-54334771D01*
X109645000Y-54334771D02*
X109549761Y-54239533D01*
X109549761Y-54239533D02*
X109454523Y-54191914D01*
X109454523Y-54191914D02*
X109264047Y-54144295D01*
X109264047Y-54144295D02*
X109121190Y-54144295D01*
X109121190Y-54144295D02*
X108930714Y-54191914D01*
X108930714Y-54191914D02*
X108835476Y-54239533D01*
X108835476Y-54239533D02*
X108740238Y-54334771D01*
X108740238Y-54334771D02*
X108692619Y-54477628D01*
X108692619Y-54477628D02*
X108692619Y-54572866D01*
X108692619Y-54572866D02*
X108740238Y-54715723D01*
X108740238Y-54715723D02*
X108787857Y-54763342D01*
X108787857Y-55144295D02*
X108740238Y-55191914D01*
X108740238Y-55191914D02*
X108692619Y-55287152D01*
X108692619Y-55287152D02*
X108692619Y-55525247D01*
X108692619Y-55525247D02*
X108740238Y-55620485D01*
X108740238Y-55620485D02*
X108787857Y-55668104D01*
X108787857Y-55668104D02*
X108883095Y-55715723D01*
X108883095Y-55715723D02*
X108978333Y-55715723D01*
X108978333Y-55715723D02*
X109121190Y-55668104D01*
X109121190Y-55668104D02*
X109692619Y-55096676D01*
X109692619Y-55096676D02*
X109692619Y-55715723D01*
X108787857Y-56096676D02*
X108740238Y-56144295D01*
X108740238Y-56144295D02*
X108692619Y-56239533D01*
X108692619Y-56239533D02*
X108692619Y-56477628D01*
X108692619Y-56477628D02*
X108740238Y-56572866D01*
X108740238Y-56572866D02*
X108787857Y-56620485D01*
X108787857Y-56620485D02*
X108883095Y-56668104D01*
X108883095Y-56668104D02*
X108978333Y-56668104D01*
X108978333Y-56668104D02*
X109121190Y-56620485D01*
X109121190Y-56620485D02*
X109692619Y-56049057D01*
X109692619Y-56049057D02*
X109692619Y-56668104D01*
%TO.C,R66*%
X39740419Y-119737142D02*
X39264228Y-119403809D01*
X39740419Y-119165714D02*
X38740419Y-119165714D01*
X38740419Y-119165714D02*
X38740419Y-119546666D01*
X38740419Y-119546666D02*
X38788038Y-119641904D01*
X38788038Y-119641904D02*
X38835657Y-119689523D01*
X38835657Y-119689523D02*
X38930895Y-119737142D01*
X38930895Y-119737142D02*
X39073752Y-119737142D01*
X39073752Y-119737142D02*
X39168990Y-119689523D01*
X39168990Y-119689523D02*
X39216609Y-119641904D01*
X39216609Y-119641904D02*
X39264228Y-119546666D01*
X39264228Y-119546666D02*
X39264228Y-119165714D01*
X38740419Y-120594285D02*
X38740419Y-120403809D01*
X38740419Y-120403809D02*
X38788038Y-120308571D01*
X38788038Y-120308571D02*
X38835657Y-120260952D01*
X38835657Y-120260952D02*
X38978514Y-120165714D01*
X38978514Y-120165714D02*
X39168990Y-120118095D01*
X39168990Y-120118095D02*
X39549942Y-120118095D01*
X39549942Y-120118095D02*
X39645180Y-120165714D01*
X39645180Y-120165714D02*
X39692800Y-120213333D01*
X39692800Y-120213333D02*
X39740419Y-120308571D01*
X39740419Y-120308571D02*
X39740419Y-120499047D01*
X39740419Y-120499047D02*
X39692800Y-120594285D01*
X39692800Y-120594285D02*
X39645180Y-120641904D01*
X39645180Y-120641904D02*
X39549942Y-120689523D01*
X39549942Y-120689523D02*
X39311847Y-120689523D01*
X39311847Y-120689523D02*
X39216609Y-120641904D01*
X39216609Y-120641904D02*
X39168990Y-120594285D01*
X39168990Y-120594285D02*
X39121371Y-120499047D01*
X39121371Y-120499047D02*
X39121371Y-120308571D01*
X39121371Y-120308571D02*
X39168990Y-120213333D01*
X39168990Y-120213333D02*
X39216609Y-120165714D01*
X39216609Y-120165714D02*
X39311847Y-120118095D01*
X38740419Y-121546666D02*
X38740419Y-121356190D01*
X38740419Y-121356190D02*
X38788038Y-121260952D01*
X38788038Y-121260952D02*
X38835657Y-121213333D01*
X38835657Y-121213333D02*
X38978514Y-121118095D01*
X38978514Y-121118095D02*
X39168990Y-121070476D01*
X39168990Y-121070476D02*
X39549942Y-121070476D01*
X39549942Y-121070476D02*
X39645180Y-121118095D01*
X39645180Y-121118095D02*
X39692800Y-121165714D01*
X39692800Y-121165714D02*
X39740419Y-121260952D01*
X39740419Y-121260952D02*
X39740419Y-121451428D01*
X39740419Y-121451428D02*
X39692800Y-121546666D01*
X39692800Y-121546666D02*
X39645180Y-121594285D01*
X39645180Y-121594285D02*
X39549942Y-121641904D01*
X39549942Y-121641904D02*
X39311847Y-121641904D01*
X39311847Y-121641904D02*
X39216609Y-121594285D01*
X39216609Y-121594285D02*
X39168990Y-121546666D01*
X39168990Y-121546666D02*
X39121371Y-121451428D01*
X39121371Y-121451428D02*
X39121371Y-121260952D01*
X39121371Y-121260952D02*
X39168990Y-121165714D01*
X39168990Y-121165714D02*
X39216609Y-121118095D01*
X39216609Y-121118095D02*
X39311847Y-121070476D01*
%TO.C,C7*%
X34467380Y-26888233D02*
X34515000Y-26840614D01*
X34515000Y-26840614D02*
X34562619Y-26697757D01*
X34562619Y-26697757D02*
X34562619Y-26602519D01*
X34562619Y-26602519D02*
X34515000Y-26459662D01*
X34515000Y-26459662D02*
X34419761Y-26364424D01*
X34419761Y-26364424D02*
X34324523Y-26316805D01*
X34324523Y-26316805D02*
X34134047Y-26269186D01*
X34134047Y-26269186D02*
X33991190Y-26269186D01*
X33991190Y-26269186D02*
X33800714Y-26316805D01*
X33800714Y-26316805D02*
X33705476Y-26364424D01*
X33705476Y-26364424D02*
X33610238Y-26459662D01*
X33610238Y-26459662D02*
X33562619Y-26602519D01*
X33562619Y-26602519D02*
X33562619Y-26697757D01*
X33562619Y-26697757D02*
X33610238Y-26840614D01*
X33610238Y-26840614D02*
X33657857Y-26888233D01*
X33562619Y-27221567D02*
X33562619Y-27888233D01*
X33562619Y-27888233D02*
X34562619Y-27459662D01*
%TO.C,C6*%
X127347380Y-62153333D02*
X127395000Y-62105714D01*
X127395000Y-62105714D02*
X127442619Y-61962857D01*
X127442619Y-61962857D02*
X127442619Y-61867619D01*
X127442619Y-61867619D02*
X127395000Y-61724762D01*
X127395000Y-61724762D02*
X127299761Y-61629524D01*
X127299761Y-61629524D02*
X127204523Y-61581905D01*
X127204523Y-61581905D02*
X127014047Y-61534286D01*
X127014047Y-61534286D02*
X126871190Y-61534286D01*
X126871190Y-61534286D02*
X126680714Y-61581905D01*
X126680714Y-61581905D02*
X126585476Y-61629524D01*
X126585476Y-61629524D02*
X126490238Y-61724762D01*
X126490238Y-61724762D02*
X126442619Y-61867619D01*
X126442619Y-61867619D02*
X126442619Y-61962857D01*
X126442619Y-61962857D02*
X126490238Y-62105714D01*
X126490238Y-62105714D02*
X126537857Y-62153333D01*
X126442619Y-63010476D02*
X126442619Y-62820000D01*
X126442619Y-62820000D02*
X126490238Y-62724762D01*
X126490238Y-62724762D02*
X126537857Y-62677143D01*
X126537857Y-62677143D02*
X126680714Y-62581905D01*
X126680714Y-62581905D02*
X126871190Y-62534286D01*
X126871190Y-62534286D02*
X127252142Y-62534286D01*
X127252142Y-62534286D02*
X127347380Y-62581905D01*
X127347380Y-62581905D02*
X127395000Y-62629524D01*
X127395000Y-62629524D02*
X127442619Y-62724762D01*
X127442619Y-62724762D02*
X127442619Y-62915238D01*
X127442619Y-62915238D02*
X127395000Y-63010476D01*
X127395000Y-63010476D02*
X127347380Y-63058095D01*
X127347380Y-63058095D02*
X127252142Y-63105714D01*
X127252142Y-63105714D02*
X127014047Y-63105714D01*
X127014047Y-63105714D02*
X126918809Y-63058095D01*
X126918809Y-63058095D02*
X126871190Y-63010476D01*
X126871190Y-63010476D02*
X126823571Y-62915238D01*
X126823571Y-62915238D02*
X126823571Y-62724762D01*
X126823571Y-62724762D02*
X126871190Y-62629524D01*
X126871190Y-62629524D02*
X126918809Y-62581905D01*
X126918809Y-62581905D02*
X127014047Y-62534286D01*
%TO.C,R3*%
X48236666Y-40602619D02*
X48569999Y-40126428D01*
X48808094Y-40602619D02*
X48808094Y-39602619D01*
X48808094Y-39602619D02*
X48427142Y-39602619D01*
X48427142Y-39602619D02*
X48331904Y-39650238D01*
X48331904Y-39650238D02*
X48284285Y-39697857D01*
X48284285Y-39697857D02*
X48236666Y-39793095D01*
X48236666Y-39793095D02*
X48236666Y-39935952D01*
X48236666Y-39935952D02*
X48284285Y-40031190D01*
X48284285Y-40031190D02*
X48331904Y-40078809D01*
X48331904Y-40078809D02*
X48427142Y-40126428D01*
X48427142Y-40126428D02*
X48808094Y-40126428D01*
X47903332Y-39602619D02*
X47284285Y-39602619D01*
X47284285Y-39602619D02*
X47617618Y-39983571D01*
X47617618Y-39983571D02*
X47474761Y-39983571D01*
X47474761Y-39983571D02*
X47379523Y-40031190D01*
X47379523Y-40031190D02*
X47331904Y-40078809D01*
X47331904Y-40078809D02*
X47284285Y-40174047D01*
X47284285Y-40174047D02*
X47284285Y-40412142D01*
X47284285Y-40412142D02*
X47331904Y-40507380D01*
X47331904Y-40507380D02*
X47379523Y-40555000D01*
X47379523Y-40555000D02*
X47474761Y-40602619D01*
X47474761Y-40602619D02*
X47760475Y-40602619D01*
X47760475Y-40602619D02*
X47855713Y-40555000D01*
X47855713Y-40555000D02*
X47903332Y-40507380D01*
%TO.C,U1*%
X23621904Y-24212619D02*
X23621904Y-25022142D01*
X23621904Y-25022142D02*
X23574285Y-25117380D01*
X23574285Y-25117380D02*
X23526666Y-25165000D01*
X23526666Y-25165000D02*
X23431428Y-25212619D01*
X23431428Y-25212619D02*
X23240952Y-25212619D01*
X23240952Y-25212619D02*
X23145714Y-25165000D01*
X23145714Y-25165000D02*
X23098095Y-25117380D01*
X23098095Y-25117380D02*
X23050476Y-25022142D01*
X23050476Y-25022142D02*
X23050476Y-24212619D01*
X22050476Y-25212619D02*
X22621904Y-25212619D01*
X22336190Y-25212619D02*
X22336190Y-24212619D01*
X22336190Y-24212619D02*
X22431428Y-24355476D01*
X22431428Y-24355476D02*
X22526666Y-24450714D01*
X22526666Y-24450714D02*
X22621904Y-24498333D01*
X26034999Y-25254768D02*
X26034999Y-25492863D01*
X26273094Y-25397625D02*
X26034999Y-25492863D01*
X26034999Y-25492863D02*
X25796904Y-25397625D01*
X26177856Y-25683339D02*
X26034999Y-25492863D01*
X26034999Y-25492863D02*
X25892142Y-25683339D01*
X26034999Y-25254768D02*
X26034999Y-25492863D01*
X26273094Y-25397625D02*
X26034999Y-25492863D01*
X26034999Y-25492863D02*
X25796904Y-25397625D01*
X26177856Y-25683339D02*
X26034999Y-25492863D01*
X26034999Y-25492863D02*
X25892142Y-25683339D01*
%TO.C,R2*%
X48236666Y-37652619D02*
X48569999Y-37176428D01*
X48808094Y-37652619D02*
X48808094Y-36652619D01*
X48808094Y-36652619D02*
X48427142Y-36652619D01*
X48427142Y-36652619D02*
X48331904Y-36700238D01*
X48331904Y-36700238D02*
X48284285Y-36747857D01*
X48284285Y-36747857D02*
X48236666Y-36843095D01*
X48236666Y-36843095D02*
X48236666Y-36985952D01*
X48236666Y-36985952D02*
X48284285Y-37081190D01*
X48284285Y-37081190D02*
X48331904Y-37128809D01*
X48331904Y-37128809D02*
X48427142Y-37176428D01*
X48427142Y-37176428D02*
X48808094Y-37176428D01*
X47855713Y-36747857D02*
X47808094Y-36700238D01*
X47808094Y-36700238D02*
X47712856Y-36652619D01*
X47712856Y-36652619D02*
X47474761Y-36652619D01*
X47474761Y-36652619D02*
X47379523Y-36700238D01*
X47379523Y-36700238D02*
X47331904Y-36747857D01*
X47331904Y-36747857D02*
X47284285Y-36843095D01*
X47284285Y-36843095D02*
X47284285Y-36938333D01*
X47284285Y-36938333D02*
X47331904Y-37081190D01*
X47331904Y-37081190D02*
X47903332Y-37652619D01*
X47903332Y-37652619D02*
X47284285Y-37652619D01*
%TO.C,R63*%
X95622857Y-92792619D02*
X95956190Y-92316428D01*
X96194285Y-92792619D02*
X96194285Y-91792619D01*
X96194285Y-91792619D02*
X95813333Y-91792619D01*
X95813333Y-91792619D02*
X95718095Y-91840238D01*
X95718095Y-91840238D02*
X95670476Y-91887857D01*
X95670476Y-91887857D02*
X95622857Y-91983095D01*
X95622857Y-91983095D02*
X95622857Y-92125952D01*
X95622857Y-92125952D02*
X95670476Y-92221190D01*
X95670476Y-92221190D02*
X95718095Y-92268809D01*
X95718095Y-92268809D02*
X95813333Y-92316428D01*
X95813333Y-92316428D02*
X96194285Y-92316428D01*
X94765714Y-91792619D02*
X94956190Y-91792619D01*
X94956190Y-91792619D02*
X95051428Y-91840238D01*
X95051428Y-91840238D02*
X95099047Y-91887857D01*
X95099047Y-91887857D02*
X95194285Y-92030714D01*
X95194285Y-92030714D02*
X95241904Y-92221190D01*
X95241904Y-92221190D02*
X95241904Y-92602142D01*
X95241904Y-92602142D02*
X95194285Y-92697380D01*
X95194285Y-92697380D02*
X95146666Y-92745000D01*
X95146666Y-92745000D02*
X95051428Y-92792619D01*
X95051428Y-92792619D02*
X94860952Y-92792619D01*
X94860952Y-92792619D02*
X94765714Y-92745000D01*
X94765714Y-92745000D02*
X94718095Y-92697380D01*
X94718095Y-92697380D02*
X94670476Y-92602142D01*
X94670476Y-92602142D02*
X94670476Y-92364047D01*
X94670476Y-92364047D02*
X94718095Y-92268809D01*
X94718095Y-92268809D02*
X94765714Y-92221190D01*
X94765714Y-92221190D02*
X94860952Y-92173571D01*
X94860952Y-92173571D02*
X95051428Y-92173571D01*
X95051428Y-92173571D02*
X95146666Y-92221190D01*
X95146666Y-92221190D02*
X95194285Y-92268809D01*
X95194285Y-92268809D02*
X95241904Y-92364047D01*
X94337142Y-91792619D02*
X93718095Y-91792619D01*
X93718095Y-91792619D02*
X94051428Y-92173571D01*
X94051428Y-92173571D02*
X93908571Y-92173571D01*
X93908571Y-92173571D02*
X93813333Y-92221190D01*
X93813333Y-92221190D02*
X93765714Y-92268809D01*
X93765714Y-92268809D02*
X93718095Y-92364047D01*
X93718095Y-92364047D02*
X93718095Y-92602142D01*
X93718095Y-92602142D02*
X93765714Y-92697380D01*
X93765714Y-92697380D02*
X93813333Y-92745000D01*
X93813333Y-92745000D02*
X93908571Y-92792619D01*
X93908571Y-92792619D02*
X94194285Y-92792619D01*
X94194285Y-92792619D02*
X94289523Y-92745000D01*
X94289523Y-92745000D02*
X94337142Y-92697380D01*
%TO.C,C25*%
X35212857Y-59647380D02*
X35260476Y-59695000D01*
X35260476Y-59695000D02*
X35403333Y-59742619D01*
X35403333Y-59742619D02*
X35498571Y-59742619D01*
X35498571Y-59742619D02*
X35641428Y-59695000D01*
X35641428Y-59695000D02*
X35736666Y-59599761D01*
X35736666Y-59599761D02*
X35784285Y-59504523D01*
X35784285Y-59504523D02*
X35831904Y-59314047D01*
X35831904Y-59314047D02*
X35831904Y-59171190D01*
X35831904Y-59171190D02*
X35784285Y-58980714D01*
X35784285Y-58980714D02*
X35736666Y-58885476D01*
X35736666Y-58885476D02*
X35641428Y-58790238D01*
X35641428Y-58790238D02*
X35498571Y-58742619D01*
X35498571Y-58742619D02*
X35403333Y-58742619D01*
X35403333Y-58742619D02*
X35260476Y-58790238D01*
X35260476Y-58790238D02*
X35212857Y-58837857D01*
X34831904Y-58837857D02*
X34784285Y-58790238D01*
X34784285Y-58790238D02*
X34689047Y-58742619D01*
X34689047Y-58742619D02*
X34450952Y-58742619D01*
X34450952Y-58742619D02*
X34355714Y-58790238D01*
X34355714Y-58790238D02*
X34308095Y-58837857D01*
X34308095Y-58837857D02*
X34260476Y-58933095D01*
X34260476Y-58933095D02*
X34260476Y-59028333D01*
X34260476Y-59028333D02*
X34308095Y-59171190D01*
X34308095Y-59171190D02*
X34879523Y-59742619D01*
X34879523Y-59742619D02*
X34260476Y-59742619D01*
X33355714Y-58742619D02*
X33831904Y-58742619D01*
X33831904Y-58742619D02*
X33879523Y-59218809D01*
X33879523Y-59218809D02*
X33831904Y-59171190D01*
X33831904Y-59171190D02*
X33736666Y-59123571D01*
X33736666Y-59123571D02*
X33498571Y-59123571D01*
X33498571Y-59123571D02*
X33403333Y-59171190D01*
X33403333Y-59171190D02*
X33355714Y-59218809D01*
X33355714Y-59218809D02*
X33308095Y-59314047D01*
X33308095Y-59314047D02*
X33308095Y-59552142D01*
X33308095Y-59552142D02*
X33355714Y-59647380D01*
X33355714Y-59647380D02*
X33403333Y-59695000D01*
X33403333Y-59695000D02*
X33498571Y-59742619D01*
X33498571Y-59742619D02*
X33736666Y-59742619D01*
X33736666Y-59742619D02*
X33831904Y-59695000D01*
X33831904Y-59695000D02*
X33879523Y-59647380D01*
%TO.C,R4*%
X48236666Y-43552619D02*
X48569999Y-43076428D01*
X48808094Y-43552619D02*
X48808094Y-42552619D01*
X48808094Y-42552619D02*
X48427142Y-42552619D01*
X48427142Y-42552619D02*
X48331904Y-42600238D01*
X48331904Y-42600238D02*
X48284285Y-42647857D01*
X48284285Y-42647857D02*
X48236666Y-42743095D01*
X48236666Y-42743095D02*
X48236666Y-42885952D01*
X48236666Y-42885952D02*
X48284285Y-42981190D01*
X48284285Y-42981190D02*
X48331904Y-43028809D01*
X48331904Y-43028809D02*
X48427142Y-43076428D01*
X48427142Y-43076428D02*
X48808094Y-43076428D01*
X47379523Y-42885952D02*
X47379523Y-43552619D01*
X47617618Y-42505000D02*
X47855713Y-43219285D01*
X47855713Y-43219285D02*
X47236666Y-43219285D01*
%TO.C,R27*%
X67392619Y-84704742D02*
X66916428Y-84371409D01*
X67392619Y-84133314D02*
X66392619Y-84133314D01*
X66392619Y-84133314D02*
X66392619Y-84514266D01*
X66392619Y-84514266D02*
X66440238Y-84609504D01*
X66440238Y-84609504D02*
X66487857Y-84657123D01*
X66487857Y-84657123D02*
X66583095Y-84704742D01*
X66583095Y-84704742D02*
X66725952Y-84704742D01*
X66725952Y-84704742D02*
X66821190Y-84657123D01*
X66821190Y-84657123D02*
X66868809Y-84609504D01*
X66868809Y-84609504D02*
X66916428Y-84514266D01*
X66916428Y-84514266D02*
X66916428Y-84133314D01*
X66487857Y-85085695D02*
X66440238Y-85133314D01*
X66440238Y-85133314D02*
X66392619Y-85228552D01*
X66392619Y-85228552D02*
X66392619Y-85466647D01*
X66392619Y-85466647D02*
X66440238Y-85561885D01*
X66440238Y-85561885D02*
X66487857Y-85609504D01*
X66487857Y-85609504D02*
X66583095Y-85657123D01*
X66583095Y-85657123D02*
X66678333Y-85657123D01*
X66678333Y-85657123D02*
X66821190Y-85609504D01*
X66821190Y-85609504D02*
X67392619Y-85038076D01*
X67392619Y-85038076D02*
X67392619Y-85657123D01*
X66392619Y-85990457D02*
X66392619Y-86657123D01*
X66392619Y-86657123D02*
X67392619Y-86228552D01*
%TO.C,L2*%
X22736666Y-44202619D02*
X23212856Y-44202619D01*
X23212856Y-44202619D02*
X23212856Y-43202619D01*
X22450951Y-43297857D02*
X22403332Y-43250238D01*
X22403332Y-43250238D02*
X22308094Y-43202619D01*
X22308094Y-43202619D02*
X22069999Y-43202619D01*
X22069999Y-43202619D02*
X21974761Y-43250238D01*
X21974761Y-43250238D02*
X21927142Y-43297857D01*
X21927142Y-43297857D02*
X21879523Y-43393095D01*
X21879523Y-43393095D02*
X21879523Y-43488333D01*
X21879523Y-43488333D02*
X21927142Y-43631190D01*
X21927142Y-43631190D02*
X22498570Y-44202619D01*
X22498570Y-44202619D02*
X21879523Y-44202619D01*
%TO.C,R79*%
X145643633Y-52965051D02*
X145167442Y-52631718D01*
X145643633Y-52393623D02*
X144643633Y-52393623D01*
X144643633Y-52393623D02*
X144643633Y-52774575D01*
X144643633Y-52774575D02*
X144691252Y-52869813D01*
X144691252Y-52869813D02*
X144738871Y-52917432D01*
X144738871Y-52917432D02*
X144834109Y-52965051D01*
X144834109Y-52965051D02*
X144976966Y-52965051D01*
X144976966Y-52965051D02*
X145072204Y-52917432D01*
X145072204Y-52917432D02*
X145119823Y-52869813D01*
X145119823Y-52869813D02*
X145167442Y-52774575D01*
X145167442Y-52774575D02*
X145167442Y-52393623D01*
X144643633Y-53298385D02*
X144643633Y-53965051D01*
X144643633Y-53965051D02*
X145643633Y-53536480D01*
X145643633Y-54393623D02*
X145643633Y-54584099D01*
X145643633Y-54584099D02*
X145596014Y-54679337D01*
X145596014Y-54679337D02*
X145548394Y-54726956D01*
X145548394Y-54726956D02*
X145405537Y-54822194D01*
X145405537Y-54822194D02*
X145215061Y-54869813D01*
X145215061Y-54869813D02*
X144834109Y-54869813D01*
X144834109Y-54869813D02*
X144738871Y-54822194D01*
X144738871Y-54822194D02*
X144691252Y-54774575D01*
X144691252Y-54774575D02*
X144643633Y-54679337D01*
X144643633Y-54679337D02*
X144643633Y-54488861D01*
X144643633Y-54488861D02*
X144691252Y-54393623D01*
X144691252Y-54393623D02*
X144738871Y-54346004D01*
X144738871Y-54346004D02*
X144834109Y-54298385D01*
X144834109Y-54298385D02*
X145072204Y-54298385D01*
X145072204Y-54298385D02*
X145167442Y-54346004D01*
X145167442Y-54346004D02*
X145215061Y-54393623D01*
X145215061Y-54393623D02*
X145262680Y-54488861D01*
X145262680Y-54488861D02*
X145262680Y-54679337D01*
X145262680Y-54679337D02*
X145215061Y-54774575D01*
X145215061Y-54774575D02*
X145167442Y-54822194D01*
X145167442Y-54822194D02*
X145072204Y-54869813D01*
%TO.C,C15*%
X50962857Y-70107380D02*
X51010476Y-70155000D01*
X51010476Y-70155000D02*
X51153333Y-70202619D01*
X51153333Y-70202619D02*
X51248571Y-70202619D01*
X51248571Y-70202619D02*
X51391428Y-70155000D01*
X51391428Y-70155000D02*
X51486666Y-70059761D01*
X51486666Y-70059761D02*
X51534285Y-69964523D01*
X51534285Y-69964523D02*
X51581904Y-69774047D01*
X51581904Y-69774047D02*
X51581904Y-69631190D01*
X51581904Y-69631190D02*
X51534285Y-69440714D01*
X51534285Y-69440714D02*
X51486666Y-69345476D01*
X51486666Y-69345476D02*
X51391428Y-69250238D01*
X51391428Y-69250238D02*
X51248571Y-69202619D01*
X51248571Y-69202619D02*
X51153333Y-69202619D01*
X51153333Y-69202619D02*
X51010476Y-69250238D01*
X51010476Y-69250238D02*
X50962857Y-69297857D01*
X50010476Y-70202619D02*
X50581904Y-70202619D01*
X50296190Y-70202619D02*
X50296190Y-69202619D01*
X50296190Y-69202619D02*
X50391428Y-69345476D01*
X50391428Y-69345476D02*
X50486666Y-69440714D01*
X50486666Y-69440714D02*
X50581904Y-69488333D01*
X49105714Y-69202619D02*
X49581904Y-69202619D01*
X49581904Y-69202619D02*
X49629523Y-69678809D01*
X49629523Y-69678809D02*
X49581904Y-69631190D01*
X49581904Y-69631190D02*
X49486666Y-69583571D01*
X49486666Y-69583571D02*
X49248571Y-69583571D01*
X49248571Y-69583571D02*
X49153333Y-69631190D01*
X49153333Y-69631190D02*
X49105714Y-69678809D01*
X49105714Y-69678809D02*
X49058095Y-69774047D01*
X49058095Y-69774047D02*
X49058095Y-70012142D01*
X49058095Y-70012142D02*
X49105714Y-70107380D01*
X49105714Y-70107380D02*
X49153333Y-70155000D01*
X49153333Y-70155000D02*
X49248571Y-70202619D01*
X49248571Y-70202619D02*
X49486666Y-70202619D01*
X49486666Y-70202619D02*
X49581904Y-70155000D01*
X49581904Y-70155000D02*
X49629523Y-70107380D01*
%TO.C,R72*%
X57992619Y-90865442D02*
X57516428Y-90532109D01*
X57992619Y-90294014D02*
X56992619Y-90294014D01*
X56992619Y-90294014D02*
X56992619Y-90674966D01*
X56992619Y-90674966D02*
X57040238Y-90770204D01*
X57040238Y-90770204D02*
X57087857Y-90817823D01*
X57087857Y-90817823D02*
X57183095Y-90865442D01*
X57183095Y-90865442D02*
X57325952Y-90865442D01*
X57325952Y-90865442D02*
X57421190Y-90817823D01*
X57421190Y-90817823D02*
X57468809Y-90770204D01*
X57468809Y-90770204D02*
X57516428Y-90674966D01*
X57516428Y-90674966D02*
X57516428Y-90294014D01*
X56992619Y-91198776D02*
X56992619Y-91865442D01*
X56992619Y-91865442D02*
X57992619Y-91436871D01*
X57087857Y-92198776D02*
X57040238Y-92246395D01*
X57040238Y-92246395D02*
X56992619Y-92341633D01*
X56992619Y-92341633D02*
X56992619Y-92579728D01*
X56992619Y-92579728D02*
X57040238Y-92674966D01*
X57040238Y-92674966D02*
X57087857Y-92722585D01*
X57087857Y-92722585D02*
X57183095Y-92770204D01*
X57183095Y-92770204D02*
X57278333Y-92770204D01*
X57278333Y-92770204D02*
X57421190Y-92722585D01*
X57421190Y-92722585D02*
X57992619Y-92151157D01*
X57992619Y-92151157D02*
X57992619Y-92770204D01*
%TO.C,C26*%
X107627380Y-54763342D02*
X107675000Y-54715723D01*
X107675000Y-54715723D02*
X107722619Y-54572866D01*
X107722619Y-54572866D02*
X107722619Y-54477628D01*
X107722619Y-54477628D02*
X107675000Y-54334771D01*
X107675000Y-54334771D02*
X107579761Y-54239533D01*
X107579761Y-54239533D02*
X107484523Y-54191914D01*
X107484523Y-54191914D02*
X107294047Y-54144295D01*
X107294047Y-54144295D02*
X107151190Y-54144295D01*
X107151190Y-54144295D02*
X106960714Y-54191914D01*
X106960714Y-54191914D02*
X106865476Y-54239533D01*
X106865476Y-54239533D02*
X106770238Y-54334771D01*
X106770238Y-54334771D02*
X106722619Y-54477628D01*
X106722619Y-54477628D02*
X106722619Y-54572866D01*
X106722619Y-54572866D02*
X106770238Y-54715723D01*
X106770238Y-54715723D02*
X106817857Y-54763342D01*
X106817857Y-55144295D02*
X106770238Y-55191914D01*
X106770238Y-55191914D02*
X106722619Y-55287152D01*
X106722619Y-55287152D02*
X106722619Y-55525247D01*
X106722619Y-55525247D02*
X106770238Y-55620485D01*
X106770238Y-55620485D02*
X106817857Y-55668104D01*
X106817857Y-55668104D02*
X106913095Y-55715723D01*
X106913095Y-55715723D02*
X107008333Y-55715723D01*
X107008333Y-55715723D02*
X107151190Y-55668104D01*
X107151190Y-55668104D02*
X107722619Y-55096676D01*
X107722619Y-55096676D02*
X107722619Y-55715723D01*
X106722619Y-56572866D02*
X106722619Y-56382390D01*
X106722619Y-56382390D02*
X106770238Y-56287152D01*
X106770238Y-56287152D02*
X106817857Y-56239533D01*
X106817857Y-56239533D02*
X106960714Y-56144295D01*
X106960714Y-56144295D02*
X107151190Y-56096676D01*
X107151190Y-56096676D02*
X107532142Y-56096676D01*
X107532142Y-56096676D02*
X107627380Y-56144295D01*
X107627380Y-56144295D02*
X107675000Y-56191914D01*
X107675000Y-56191914D02*
X107722619Y-56287152D01*
X107722619Y-56287152D02*
X107722619Y-56477628D01*
X107722619Y-56477628D02*
X107675000Y-56572866D01*
X107675000Y-56572866D02*
X107627380Y-56620485D01*
X107627380Y-56620485D02*
X107532142Y-56668104D01*
X107532142Y-56668104D02*
X107294047Y-56668104D01*
X107294047Y-56668104D02*
X107198809Y-56620485D01*
X107198809Y-56620485D02*
X107151190Y-56572866D01*
X107151190Y-56572866D02*
X107103571Y-56477628D01*
X107103571Y-56477628D02*
X107103571Y-56287152D01*
X107103571Y-56287152D02*
X107151190Y-56191914D01*
X107151190Y-56191914D02*
X107198809Y-56144295D01*
X107198809Y-56144295D02*
X107294047Y-56096676D01*
%TO.C,C19*%
X44112857Y-64727380D02*
X44160476Y-64775000D01*
X44160476Y-64775000D02*
X44303333Y-64822619D01*
X44303333Y-64822619D02*
X44398571Y-64822619D01*
X44398571Y-64822619D02*
X44541428Y-64775000D01*
X44541428Y-64775000D02*
X44636666Y-64679761D01*
X44636666Y-64679761D02*
X44684285Y-64584523D01*
X44684285Y-64584523D02*
X44731904Y-64394047D01*
X44731904Y-64394047D02*
X44731904Y-64251190D01*
X44731904Y-64251190D02*
X44684285Y-64060714D01*
X44684285Y-64060714D02*
X44636666Y-63965476D01*
X44636666Y-63965476D02*
X44541428Y-63870238D01*
X44541428Y-63870238D02*
X44398571Y-63822619D01*
X44398571Y-63822619D02*
X44303333Y-63822619D01*
X44303333Y-63822619D02*
X44160476Y-63870238D01*
X44160476Y-63870238D02*
X44112857Y-63917857D01*
X43160476Y-64822619D02*
X43731904Y-64822619D01*
X43446190Y-64822619D02*
X43446190Y-63822619D01*
X43446190Y-63822619D02*
X43541428Y-63965476D01*
X43541428Y-63965476D02*
X43636666Y-64060714D01*
X43636666Y-64060714D02*
X43731904Y-64108333D01*
X42684285Y-64822619D02*
X42493809Y-64822619D01*
X42493809Y-64822619D02*
X42398571Y-64775000D01*
X42398571Y-64775000D02*
X42350952Y-64727380D01*
X42350952Y-64727380D02*
X42255714Y-64584523D01*
X42255714Y-64584523D02*
X42208095Y-64394047D01*
X42208095Y-64394047D02*
X42208095Y-64013095D01*
X42208095Y-64013095D02*
X42255714Y-63917857D01*
X42255714Y-63917857D02*
X42303333Y-63870238D01*
X42303333Y-63870238D02*
X42398571Y-63822619D01*
X42398571Y-63822619D02*
X42589047Y-63822619D01*
X42589047Y-63822619D02*
X42684285Y-63870238D01*
X42684285Y-63870238D02*
X42731904Y-63917857D01*
X42731904Y-63917857D02*
X42779523Y-64013095D01*
X42779523Y-64013095D02*
X42779523Y-64251190D01*
X42779523Y-64251190D02*
X42731904Y-64346428D01*
X42731904Y-64346428D02*
X42684285Y-64394047D01*
X42684285Y-64394047D02*
X42589047Y-64441666D01*
X42589047Y-64441666D02*
X42398571Y-64441666D01*
X42398571Y-64441666D02*
X42303333Y-64394047D01*
X42303333Y-64394047D02*
X42255714Y-64346428D01*
X42255714Y-64346428D02*
X42208095Y-64251190D01*
%TO.C,L1*%
X22736666Y-35112619D02*
X23212856Y-35112619D01*
X23212856Y-35112619D02*
X23212856Y-34112619D01*
X21879523Y-35112619D02*
X22450951Y-35112619D01*
X22165237Y-35112619D02*
X22165237Y-34112619D01*
X22165237Y-34112619D02*
X22260475Y-34255476D01*
X22260475Y-34255476D02*
X22355713Y-34350714D01*
X22355713Y-34350714D02*
X22450951Y-34398333D01*
%TO.C,C2*%
X127347380Y-57703333D02*
X127395000Y-57655714D01*
X127395000Y-57655714D02*
X127442619Y-57512857D01*
X127442619Y-57512857D02*
X127442619Y-57417619D01*
X127442619Y-57417619D02*
X127395000Y-57274762D01*
X127395000Y-57274762D02*
X127299761Y-57179524D01*
X127299761Y-57179524D02*
X127204523Y-57131905D01*
X127204523Y-57131905D02*
X127014047Y-57084286D01*
X127014047Y-57084286D02*
X126871190Y-57084286D01*
X126871190Y-57084286D02*
X126680714Y-57131905D01*
X126680714Y-57131905D02*
X126585476Y-57179524D01*
X126585476Y-57179524D02*
X126490238Y-57274762D01*
X126490238Y-57274762D02*
X126442619Y-57417619D01*
X126442619Y-57417619D02*
X126442619Y-57512857D01*
X126442619Y-57512857D02*
X126490238Y-57655714D01*
X126490238Y-57655714D02*
X126537857Y-57703333D01*
X126537857Y-58084286D02*
X126490238Y-58131905D01*
X126490238Y-58131905D02*
X126442619Y-58227143D01*
X126442619Y-58227143D02*
X126442619Y-58465238D01*
X126442619Y-58465238D02*
X126490238Y-58560476D01*
X126490238Y-58560476D02*
X126537857Y-58608095D01*
X126537857Y-58608095D02*
X126633095Y-58655714D01*
X126633095Y-58655714D02*
X126728333Y-58655714D01*
X126728333Y-58655714D02*
X126871190Y-58608095D01*
X126871190Y-58608095D02*
X127442619Y-58036667D01*
X127442619Y-58036667D02*
X127442619Y-58655714D01*
%TO.C,R1*%
X47832619Y-21368233D02*
X47356428Y-21034900D01*
X47832619Y-20796805D02*
X46832619Y-20796805D01*
X46832619Y-20796805D02*
X46832619Y-21177757D01*
X46832619Y-21177757D02*
X46880238Y-21272995D01*
X46880238Y-21272995D02*
X46927857Y-21320614D01*
X46927857Y-21320614D02*
X47023095Y-21368233D01*
X47023095Y-21368233D02*
X47165952Y-21368233D01*
X47165952Y-21368233D02*
X47261190Y-21320614D01*
X47261190Y-21320614D02*
X47308809Y-21272995D01*
X47308809Y-21272995D02*
X47356428Y-21177757D01*
X47356428Y-21177757D02*
X47356428Y-20796805D01*
X47832619Y-22320614D02*
X47832619Y-21749186D01*
X47832619Y-22034900D02*
X46832619Y-22034900D01*
X46832619Y-22034900D02*
X46975476Y-21939662D01*
X46975476Y-21939662D02*
X47070714Y-21844424D01*
X47070714Y-21844424D02*
X47118333Y-21749186D01*
%TO.C,S1*%
X38936904Y-36555000D02*
X38794047Y-36602619D01*
X38794047Y-36602619D02*
X38555952Y-36602619D01*
X38555952Y-36602619D02*
X38460714Y-36555000D01*
X38460714Y-36555000D02*
X38413095Y-36507380D01*
X38413095Y-36507380D02*
X38365476Y-36412142D01*
X38365476Y-36412142D02*
X38365476Y-36316904D01*
X38365476Y-36316904D02*
X38413095Y-36221666D01*
X38413095Y-36221666D02*
X38460714Y-36174047D01*
X38460714Y-36174047D02*
X38555952Y-36126428D01*
X38555952Y-36126428D02*
X38746428Y-36078809D01*
X38746428Y-36078809D02*
X38841666Y-36031190D01*
X38841666Y-36031190D02*
X38889285Y-35983571D01*
X38889285Y-35983571D02*
X38936904Y-35888333D01*
X38936904Y-35888333D02*
X38936904Y-35793095D01*
X38936904Y-35793095D02*
X38889285Y-35697857D01*
X38889285Y-35697857D02*
X38841666Y-35650238D01*
X38841666Y-35650238D02*
X38746428Y-35602619D01*
X38746428Y-35602619D02*
X38508333Y-35602619D01*
X38508333Y-35602619D02*
X38365476Y-35650238D01*
X37413095Y-36602619D02*
X37984523Y-36602619D01*
X37698809Y-36602619D02*
X37698809Y-35602619D01*
X37698809Y-35602619D02*
X37794047Y-35745476D01*
X37794047Y-35745476D02*
X37889285Y-35840714D01*
X37889285Y-35840714D02*
X37984523Y-35888333D01*
%TO.C,C20*%
X40332857Y-54567380D02*
X40380476Y-54615000D01*
X40380476Y-54615000D02*
X40523333Y-54662619D01*
X40523333Y-54662619D02*
X40618571Y-54662619D01*
X40618571Y-54662619D02*
X40761428Y-54615000D01*
X40761428Y-54615000D02*
X40856666Y-54519761D01*
X40856666Y-54519761D02*
X40904285Y-54424523D01*
X40904285Y-54424523D02*
X40951904Y-54234047D01*
X40951904Y-54234047D02*
X40951904Y-54091190D01*
X40951904Y-54091190D02*
X40904285Y-53900714D01*
X40904285Y-53900714D02*
X40856666Y-53805476D01*
X40856666Y-53805476D02*
X40761428Y-53710238D01*
X40761428Y-53710238D02*
X40618571Y-53662619D01*
X40618571Y-53662619D02*
X40523333Y-53662619D01*
X40523333Y-53662619D02*
X40380476Y-53710238D01*
X40380476Y-53710238D02*
X40332857Y-53757857D01*
X39951904Y-53757857D02*
X39904285Y-53710238D01*
X39904285Y-53710238D02*
X39809047Y-53662619D01*
X39809047Y-53662619D02*
X39570952Y-53662619D01*
X39570952Y-53662619D02*
X39475714Y-53710238D01*
X39475714Y-53710238D02*
X39428095Y-53757857D01*
X39428095Y-53757857D02*
X39380476Y-53853095D01*
X39380476Y-53853095D02*
X39380476Y-53948333D01*
X39380476Y-53948333D02*
X39428095Y-54091190D01*
X39428095Y-54091190D02*
X39999523Y-54662619D01*
X39999523Y-54662619D02*
X39380476Y-54662619D01*
X38761428Y-53662619D02*
X38666190Y-53662619D01*
X38666190Y-53662619D02*
X38570952Y-53710238D01*
X38570952Y-53710238D02*
X38523333Y-53757857D01*
X38523333Y-53757857D02*
X38475714Y-53853095D01*
X38475714Y-53853095D02*
X38428095Y-54043571D01*
X38428095Y-54043571D02*
X38428095Y-54281666D01*
X38428095Y-54281666D02*
X38475714Y-54472142D01*
X38475714Y-54472142D02*
X38523333Y-54567380D01*
X38523333Y-54567380D02*
X38570952Y-54615000D01*
X38570952Y-54615000D02*
X38666190Y-54662619D01*
X38666190Y-54662619D02*
X38761428Y-54662619D01*
X38761428Y-54662619D02*
X38856666Y-54615000D01*
X38856666Y-54615000D02*
X38904285Y-54567380D01*
X38904285Y-54567380D02*
X38951904Y-54472142D01*
X38951904Y-54472142D02*
X38999523Y-54281666D01*
X38999523Y-54281666D02*
X38999523Y-54043571D01*
X38999523Y-54043571D02*
X38951904Y-53853095D01*
X38951904Y-53853095D02*
X38904285Y-53757857D01*
X38904285Y-53757857D02*
X38856666Y-53710238D01*
X38856666Y-53710238D02*
X38761428Y-53662619D01*
%TO.C,L3*%
X22736666Y-52892619D02*
X23212856Y-52892619D01*
X23212856Y-52892619D02*
X23212856Y-51892619D01*
X22498570Y-51892619D02*
X21879523Y-51892619D01*
X21879523Y-51892619D02*
X22212856Y-52273571D01*
X22212856Y-52273571D02*
X22069999Y-52273571D01*
X22069999Y-52273571D02*
X21974761Y-52321190D01*
X21974761Y-52321190D02*
X21927142Y-52368809D01*
X21927142Y-52368809D02*
X21879523Y-52464047D01*
X21879523Y-52464047D02*
X21879523Y-52702142D01*
X21879523Y-52702142D02*
X21927142Y-52797380D01*
X21927142Y-52797380D02*
X21974761Y-52845000D01*
X21974761Y-52845000D02*
X22069999Y-52892619D01*
X22069999Y-52892619D02*
X22355713Y-52892619D01*
X22355713Y-52892619D02*
X22450951Y-52845000D01*
X22450951Y-52845000D02*
X22498570Y-52797380D01*
%TO.C,R65*%
X113510019Y-92475942D02*
X113033828Y-92142609D01*
X113510019Y-91904514D02*
X112510019Y-91904514D01*
X112510019Y-91904514D02*
X112510019Y-92285466D01*
X112510019Y-92285466D02*
X112557638Y-92380704D01*
X112557638Y-92380704D02*
X112605257Y-92428323D01*
X112605257Y-92428323D02*
X112700495Y-92475942D01*
X112700495Y-92475942D02*
X112843352Y-92475942D01*
X112843352Y-92475942D02*
X112938590Y-92428323D01*
X112938590Y-92428323D02*
X112986209Y-92380704D01*
X112986209Y-92380704D02*
X113033828Y-92285466D01*
X113033828Y-92285466D02*
X113033828Y-91904514D01*
X112510019Y-93333085D02*
X112510019Y-93142609D01*
X112510019Y-93142609D02*
X112557638Y-93047371D01*
X112557638Y-93047371D02*
X112605257Y-92999752D01*
X112605257Y-92999752D02*
X112748114Y-92904514D01*
X112748114Y-92904514D02*
X112938590Y-92856895D01*
X112938590Y-92856895D02*
X113319542Y-92856895D01*
X113319542Y-92856895D02*
X113414780Y-92904514D01*
X113414780Y-92904514D02*
X113462400Y-92952133D01*
X113462400Y-92952133D02*
X113510019Y-93047371D01*
X113510019Y-93047371D02*
X113510019Y-93237847D01*
X113510019Y-93237847D02*
X113462400Y-93333085D01*
X113462400Y-93333085D02*
X113414780Y-93380704D01*
X113414780Y-93380704D02*
X113319542Y-93428323D01*
X113319542Y-93428323D02*
X113081447Y-93428323D01*
X113081447Y-93428323D02*
X112986209Y-93380704D01*
X112986209Y-93380704D02*
X112938590Y-93333085D01*
X112938590Y-93333085D02*
X112890971Y-93237847D01*
X112890971Y-93237847D02*
X112890971Y-93047371D01*
X112890971Y-93047371D02*
X112938590Y-92952133D01*
X112938590Y-92952133D02*
X112986209Y-92904514D01*
X112986209Y-92904514D02*
X113081447Y-92856895D01*
X112510019Y-94333085D02*
X112510019Y-93856895D01*
X112510019Y-93856895D02*
X112986209Y-93809276D01*
X112986209Y-93809276D02*
X112938590Y-93856895D01*
X112938590Y-93856895D02*
X112890971Y-93952133D01*
X112890971Y-93952133D02*
X112890971Y-94190228D01*
X112890971Y-94190228D02*
X112938590Y-94285466D01*
X112938590Y-94285466D02*
X112986209Y-94333085D01*
X112986209Y-94333085D02*
X113081447Y-94380704D01*
X113081447Y-94380704D02*
X113319542Y-94380704D01*
X113319542Y-94380704D02*
X113414780Y-94333085D01*
X113414780Y-94333085D02*
X113462400Y-94285466D01*
X113462400Y-94285466D02*
X113510019Y-94190228D01*
X113510019Y-94190228D02*
X113510019Y-93952133D01*
X113510019Y-93952133D02*
X113462400Y-93856895D01*
X113462400Y-93856895D02*
X113414780Y-93809276D01*
%TO.C,C9*%
X35067380Y-21348233D02*
X35115000Y-21300614D01*
X35115000Y-21300614D02*
X35162619Y-21157757D01*
X35162619Y-21157757D02*
X35162619Y-21062519D01*
X35162619Y-21062519D02*
X35115000Y-20919662D01*
X35115000Y-20919662D02*
X35019761Y-20824424D01*
X35019761Y-20824424D02*
X34924523Y-20776805D01*
X34924523Y-20776805D02*
X34734047Y-20729186D01*
X34734047Y-20729186D02*
X34591190Y-20729186D01*
X34591190Y-20729186D02*
X34400714Y-20776805D01*
X34400714Y-20776805D02*
X34305476Y-20824424D01*
X34305476Y-20824424D02*
X34210238Y-20919662D01*
X34210238Y-20919662D02*
X34162619Y-21062519D01*
X34162619Y-21062519D02*
X34162619Y-21157757D01*
X34162619Y-21157757D02*
X34210238Y-21300614D01*
X34210238Y-21300614D02*
X34257857Y-21348233D01*
X35162619Y-21824424D02*
X35162619Y-22014900D01*
X35162619Y-22014900D02*
X35115000Y-22110138D01*
X35115000Y-22110138D02*
X35067380Y-22157757D01*
X35067380Y-22157757D02*
X34924523Y-22252995D01*
X34924523Y-22252995D02*
X34734047Y-22300614D01*
X34734047Y-22300614D02*
X34353095Y-22300614D01*
X34353095Y-22300614D02*
X34257857Y-22252995D01*
X34257857Y-22252995D02*
X34210238Y-22205376D01*
X34210238Y-22205376D02*
X34162619Y-22110138D01*
X34162619Y-22110138D02*
X34162619Y-21919662D01*
X34162619Y-21919662D02*
X34210238Y-21824424D01*
X34210238Y-21824424D02*
X34257857Y-21776805D01*
X34257857Y-21776805D02*
X34353095Y-21729186D01*
X34353095Y-21729186D02*
X34591190Y-21729186D01*
X34591190Y-21729186D02*
X34686428Y-21776805D01*
X34686428Y-21776805D02*
X34734047Y-21824424D01*
X34734047Y-21824424D02*
X34781666Y-21919662D01*
X34781666Y-21919662D02*
X34781666Y-22110138D01*
X34781666Y-22110138D02*
X34734047Y-22205376D01*
X34734047Y-22205376D02*
X34686428Y-22252995D01*
X34686428Y-22252995D02*
X34591190Y-22300614D01*
%TO.C,C28*%
X113537380Y-51893342D02*
X113585000Y-51845723D01*
X113585000Y-51845723D02*
X113632619Y-51702866D01*
X113632619Y-51702866D02*
X113632619Y-51607628D01*
X113632619Y-51607628D02*
X113585000Y-51464771D01*
X113585000Y-51464771D02*
X113489761Y-51369533D01*
X113489761Y-51369533D02*
X113394523Y-51321914D01*
X113394523Y-51321914D02*
X113204047Y-51274295D01*
X113204047Y-51274295D02*
X113061190Y-51274295D01*
X113061190Y-51274295D02*
X112870714Y-51321914D01*
X112870714Y-51321914D02*
X112775476Y-51369533D01*
X112775476Y-51369533D02*
X112680238Y-51464771D01*
X112680238Y-51464771D02*
X112632619Y-51607628D01*
X112632619Y-51607628D02*
X112632619Y-51702866D01*
X112632619Y-51702866D02*
X112680238Y-51845723D01*
X112680238Y-51845723D02*
X112727857Y-51893342D01*
X112727857Y-52274295D02*
X112680238Y-52321914D01*
X112680238Y-52321914D02*
X112632619Y-52417152D01*
X112632619Y-52417152D02*
X112632619Y-52655247D01*
X112632619Y-52655247D02*
X112680238Y-52750485D01*
X112680238Y-52750485D02*
X112727857Y-52798104D01*
X112727857Y-52798104D02*
X112823095Y-52845723D01*
X112823095Y-52845723D02*
X112918333Y-52845723D01*
X112918333Y-52845723D02*
X113061190Y-52798104D01*
X113061190Y-52798104D02*
X113632619Y-52226676D01*
X113632619Y-52226676D02*
X113632619Y-52845723D01*
X113061190Y-53417152D02*
X113013571Y-53321914D01*
X113013571Y-53321914D02*
X112965952Y-53274295D01*
X112965952Y-53274295D02*
X112870714Y-53226676D01*
X112870714Y-53226676D02*
X112823095Y-53226676D01*
X112823095Y-53226676D02*
X112727857Y-53274295D01*
X112727857Y-53274295D02*
X112680238Y-53321914D01*
X112680238Y-53321914D02*
X112632619Y-53417152D01*
X112632619Y-53417152D02*
X112632619Y-53607628D01*
X112632619Y-53607628D02*
X112680238Y-53702866D01*
X112680238Y-53702866D02*
X112727857Y-53750485D01*
X112727857Y-53750485D02*
X112823095Y-53798104D01*
X112823095Y-53798104D02*
X112870714Y-53798104D01*
X112870714Y-53798104D02*
X112965952Y-53750485D01*
X112965952Y-53750485D02*
X113013571Y-53702866D01*
X113013571Y-53702866D02*
X113061190Y-53607628D01*
X113061190Y-53607628D02*
X113061190Y-53417152D01*
X113061190Y-53417152D02*
X113108809Y-53321914D01*
X113108809Y-53321914D02*
X113156428Y-53274295D01*
X113156428Y-53274295D02*
X113251666Y-53226676D01*
X113251666Y-53226676D02*
X113442142Y-53226676D01*
X113442142Y-53226676D02*
X113537380Y-53274295D01*
X113537380Y-53274295D02*
X113585000Y-53321914D01*
X113585000Y-53321914D02*
X113632619Y-53417152D01*
X113632619Y-53417152D02*
X113632619Y-53607628D01*
X113632619Y-53607628D02*
X113585000Y-53702866D01*
X113585000Y-53702866D02*
X113537380Y-53750485D01*
X113537380Y-53750485D02*
X113442142Y-53798104D01*
X113442142Y-53798104D02*
X113251666Y-53798104D01*
X113251666Y-53798104D02*
X113156428Y-53750485D01*
X113156428Y-53750485D02*
X113108809Y-53702866D01*
X113108809Y-53702866D02*
X113061190Y-53607628D01*
D11*
%TO.C,C17*%
X125795000Y-46931252D02*
X125795000Y-46408748D01*
X127265000Y-46931252D02*
X127265000Y-46408748D01*
%TO.C,C24*%
X34831252Y-56615000D02*
X34308748Y-56615000D01*
X34831252Y-55145000D02*
X34308748Y-55145000D01*
%TO.C,RN1*%
X68030000Y-41520000D02*
X70130000Y-41520000D01*
X68030000Y-36180000D02*
X70130000Y-36180000D01*
%TO.C,R33*%
X143467064Y-74395000D02*
X143012936Y-74395000D01*
X143467064Y-72925000D02*
X143012936Y-72925000D01*
%TO.C,C10*%
X125795000Y-52011252D02*
X125795000Y-51488748D01*
X127265000Y-52011252D02*
X127265000Y-51488748D01*
%TO.C,R28*%
X71305000Y-85120536D02*
X71305000Y-85574664D01*
X69835000Y-85120536D02*
X69835000Y-85574664D01*
%TO.C,C36*%
X77730000Y-74869764D02*
X77730000Y-75085436D01*
X77010000Y-74869764D02*
X77010000Y-75085436D01*
%TO.C,R75*%
X107415000Y-118807936D02*
X107415000Y-119262064D01*
X105945000Y-118807936D02*
X105945000Y-119262064D01*
%TO.C,C4*%
X132405000Y-57608748D02*
X132405000Y-58131252D01*
X130935000Y-57608748D02*
X130935000Y-58131252D01*
%TO.C,C16*%
X130257900Y-46925652D02*
X130257900Y-46403148D01*
X131727900Y-46925652D02*
X131727900Y-46403148D01*
%TO.C,R77*%
X105231900Y-93326664D02*
X105231900Y-92872536D01*
X106701900Y-93326664D02*
X106701900Y-92872536D01*
%TO.C,R81*%
X153135000Y-56652936D02*
X153135000Y-57107064D01*
X151665000Y-56652936D02*
X151665000Y-57107064D01*
%TO.C,R78*%
X142975000Y-56652936D02*
X142975000Y-57107064D01*
X141505000Y-56652936D02*
X141505000Y-57107064D01*
%TO.C,R6*%
X48297064Y-51375000D02*
X47842936Y-51375000D01*
X48297064Y-49905000D02*
X47842936Y-49905000D01*
%TO.C,R76*%
X39905000Y-92012064D02*
X39905000Y-91557936D01*
X41375000Y-92012064D02*
X41375000Y-91557936D01*
%TO.C,C21*%
X39951252Y-61695000D02*
X39428748Y-61695000D01*
X39951252Y-60225000D02*
X39428748Y-60225000D01*
%TO.C,C27*%
X34871252Y-66775000D02*
X34348748Y-66775000D01*
X34871252Y-65305000D02*
X34348748Y-65305000D01*
%TO.C,C11*%
X121185000Y-52011252D02*
X121185000Y-51488748D01*
X122655000Y-52011252D02*
X122655000Y-51488748D01*
%TO.C,R73*%
X56615000Y-120148336D02*
X56615000Y-120602464D01*
X55145000Y-120148336D02*
X55145000Y-120602464D01*
%TO.C,U3*%
X73747500Y-75970100D02*
X73465000Y-75970100D01*
X68535000Y-75970100D02*
X68535000Y-74317600D01*
X68252500Y-75970100D02*
X68535000Y-75970100D01*
X73747500Y-78717600D02*
X73747500Y-75970100D01*
X73747500Y-78717600D02*
X73747500Y-81465100D01*
X68252500Y-78717600D02*
X68252500Y-75970100D01*
X68252500Y-78717600D02*
X68252500Y-81465100D01*
X73747500Y-81465100D02*
X73465000Y-81465100D01*
X68252500Y-81465100D02*
X68535000Y-81465100D01*
%TO.C,R74*%
X112495000Y-120152936D02*
X112495000Y-120607064D01*
X111025000Y-120152936D02*
X111025000Y-120607064D01*
%TO.C,C1*%
X135550000Y-51172164D02*
X135550000Y-51387836D01*
X134830000Y-51172164D02*
X134830000Y-51387836D01*
%TO.C,R70*%
X50352800Y-120607064D02*
X50352800Y-120152936D01*
X51822800Y-120607064D02*
X51822800Y-120152936D01*
%TO.C,R5*%
X48297064Y-48425000D02*
X47842936Y-48425000D01*
X48297064Y-46955000D02*
X47842936Y-46955000D01*
%TO.C,R69*%
X60225000Y-91667064D02*
X60225000Y-91212936D01*
X61695000Y-91667064D02*
X61695000Y-91212936D01*
%TO.C,R67*%
X45390000Y-91762464D02*
X45390000Y-91308336D01*
X46860000Y-91762464D02*
X46860000Y-91308336D01*
%TO.C,C31*%
X105740000Y-52644036D02*
X105740000Y-52428364D01*
X106460000Y-52644036D02*
X106460000Y-52428364D01*
%TO.C,R34*%
X102335000Y-120065436D02*
X102335000Y-120519564D01*
X100865000Y-120065436D02*
X100865000Y-120519564D01*
%TO.C,R7*%
X48297064Y-54325000D02*
X47842936Y-54325000D01*
X48297064Y-52855000D02*
X47842936Y-52855000D01*
%TO.C,C12*%
X31081500Y-21616936D02*
X31081500Y-21401264D01*
X31801500Y-21616936D02*
X31801500Y-21401264D01*
%TO.C,C35*%
X75760000Y-74869764D02*
X75760000Y-75085436D01*
X75040000Y-74869764D02*
X75040000Y-75085436D01*
%TO.C,C13*%
X48902164Y-60600000D02*
X49117836Y-60600000D01*
X48902164Y-61320000D02*
X49117836Y-61320000D01*
%TO.C,C5*%
X135415000Y-57608748D02*
X135415000Y-58131252D01*
X133945000Y-57608748D02*
X133945000Y-58131252D01*
%TO.C,C18*%
X121185000Y-46931252D02*
X121185000Y-46408748D01*
X122655000Y-46931252D02*
X122655000Y-46408748D01*
%TO.C,C23*%
X39281252Y-66775000D02*
X38758748Y-66775000D01*
X39281252Y-65305000D02*
X38758748Y-65305000D01*
%TO.C,R71*%
X46742800Y-120152936D02*
X46742800Y-120607064D01*
X45272800Y-120152936D02*
X45272800Y-120607064D01*
%TO.C,C14*%
X55292164Y-65680000D02*
X55507836Y-65680000D01*
X55292164Y-66400000D02*
X55507836Y-66400000D01*
%TO.C,R29*%
X73295000Y-85120536D02*
X73295000Y-85574664D01*
X71825000Y-85120536D02*
X71825000Y-85574664D01*
%TO.C,R64*%
X99728000Y-93582564D02*
X99728000Y-93128436D01*
X101198000Y-93582564D02*
X101198000Y-93128436D01*
%TO.C,C30*%
X139490000Y-54042164D02*
X139490000Y-54257836D01*
X138770000Y-54042164D02*
X138770000Y-54257836D01*
%TO.C,C3*%
X131368400Y-51061364D02*
X131368400Y-51277036D01*
X130648400Y-51061364D02*
X130648400Y-51277036D01*
%TO.C,C8*%
X41375000Y-26793648D02*
X41375000Y-27316152D01*
X39905000Y-26793648D02*
X39905000Y-27316152D01*
%TO.C,R68*%
X50065000Y-91667064D02*
X50065000Y-91212936D01*
X51535000Y-91667064D02*
X51535000Y-91212936D01*
%TO.C,C29*%
X137520000Y-54042164D02*
X137520000Y-54257836D01*
X136800000Y-54042164D02*
X136800000Y-54257836D01*
%TO.C,R80*%
X158215000Y-56652936D02*
X158215000Y-57107064D01*
X156745000Y-56652936D02*
X156745000Y-57107064D01*
%TO.C,C22*%
X107710000Y-55514036D02*
X107710000Y-55298364D01*
X108430000Y-55514036D02*
X108430000Y-55298364D01*
%TO.C,R66*%
X41662800Y-120152936D02*
X41662800Y-120607064D01*
X40192800Y-120152936D02*
X40192800Y-120607064D01*
%TO.C,C7*%
X36515000Y-26793648D02*
X36515000Y-27316152D01*
X35045000Y-26793648D02*
X35045000Y-27316152D01*
%TO.C,C6*%
X129395000Y-62058748D02*
X129395000Y-62581252D01*
X127925000Y-62058748D02*
X127925000Y-62581252D01*
%TO.C,R3*%
X48297064Y-42525000D02*
X47842936Y-42525000D01*
X48297064Y-41055000D02*
X47842936Y-41055000D01*
D12*
%TO.C,U1*%
X24986112Y-33644000D02*
X20733888Y-33644000D01*
X20733888Y-26786000D02*
X24986112Y-26786000D01*
G36*
X27019999Y-33330551D02*
G01*
X26765999Y-33330551D01*
X26765999Y-32949551D01*
X27019999Y-32949551D01*
X27019999Y-33330551D01*
G37*
G36*
X18954001Y-27480449D02*
G01*
X18700001Y-27480449D01*
X18700001Y-27099449D01*
X18954001Y-27099449D01*
X18954001Y-27480449D01*
G37*
D11*
%TO.C,R2*%
X48297064Y-39575000D02*
X47842936Y-39575000D01*
X48297064Y-38105000D02*
X47842936Y-38105000D01*
%TO.C,R63*%
X95207064Y-94715000D02*
X94752936Y-94715000D01*
X95207064Y-93245000D02*
X94752936Y-93245000D01*
%TO.C,C25*%
X34831252Y-61695000D02*
X34308748Y-61695000D01*
X34831252Y-60225000D02*
X34308748Y-60225000D01*
%TO.C,R4*%
X48297064Y-45475000D02*
X47842936Y-45475000D01*
X48297064Y-44005000D02*
X47842936Y-44005000D01*
%TO.C,R27*%
X69315000Y-85120536D02*
X69315000Y-85574664D01*
X67845000Y-85120536D02*
X67845000Y-85574664D01*
%TO.C,L2*%
X26020000Y-49740000D02*
X19120000Y-49740000D01*
X26020000Y-44640000D02*
X19120000Y-44640000D01*
%TO.C,R79*%
X145925000Y-56652936D02*
X145925000Y-57107064D01*
X144455000Y-56652936D02*
X144455000Y-57107064D01*
%TO.C,C15*%
X50212164Y-68220000D02*
X50427836Y-68220000D01*
X50212164Y-68940000D02*
X50427836Y-68940000D01*
%TO.C,R72*%
X55145000Y-91735364D02*
X55145000Y-91281236D01*
X56615000Y-91735364D02*
X56615000Y-91281236D01*
%TO.C,C26*%
X105740000Y-55514036D02*
X105740000Y-55298364D01*
X106460000Y-55514036D02*
X106460000Y-55298364D01*
%TO.C,C19*%
X43731252Y-66775000D02*
X43208748Y-66775000D01*
X43731252Y-65305000D02*
X43208748Y-65305000D01*
%TO.C,L1*%
X26020000Y-40650000D02*
X19120000Y-40650000D01*
X26020000Y-35550000D02*
X19120000Y-35550000D01*
%TO.C,C2*%
X129395000Y-57608748D02*
X129395000Y-58131252D01*
X127925000Y-57608748D02*
X127925000Y-58131252D01*
%TO.C,R1*%
X44985000Y-21761964D02*
X44985000Y-21307836D01*
X46455000Y-21761964D02*
X46455000Y-21307836D01*
D13*
%TO.C,S1*%
X35175000Y-37340000D02*
X41175000Y-37340000D01*
X35175000Y-43940000D02*
X41175000Y-43940000D01*
D11*
%TO.C,C20*%
X39951252Y-56615000D02*
X39428748Y-56615000D01*
X39951252Y-55145000D02*
X39428748Y-55145000D01*
%TO.C,L3*%
X26020000Y-58430000D02*
X19120000Y-58430000D01*
X26020000Y-53330000D02*
X19120000Y-53330000D01*
%TO.C,R65*%
X110662400Y-93345864D02*
X110662400Y-92891736D01*
X112132400Y-93345864D02*
X112132400Y-92891736D01*
%TO.C,C9*%
X36220000Y-21407064D02*
X36220000Y-21622736D01*
X35500000Y-21407064D02*
X35500000Y-21622736D01*
%TO.C,C28*%
X111650000Y-52644036D02*
X111650000Y-52428364D01*
X112370000Y-52644036D02*
X112370000Y-52428364D01*
%TD*%
M02*
